<svg width="24" height="25" viewBox="0 0 24 25" fill="none" xmlns="http://www.w3.org/2000/svg">
<g clip-path="url(#clip0_138_878)">
<path d="M5 16.5H19V19.5C19 20.6046 18.1046 21.5 17 21.5H7C5.89543 21.5 5 20.6046 5 19.5V16.5Z" stroke="#F8F9FA" stroke-width="2" stroke-linejoin="round"/>
<path d="M4 7.5H20V14.5C20 15.6046 19.1046 16.5 18 16.5H6C4.89543 16.5 4 15.6046 4 14.5V7.5Z" stroke="#F8F9FA" stroke-width="2" stroke-linejoin="round"/>
<rect x="12" y="12.5" width="0.01" height="0.01" stroke="#F8F9FA" stroke-width="3" stroke-linejoin="round"/>
<path d="M9 5.5C9 4.39543 9.89543 3.5 11 3.5H13C14.1046 3.5 15 4.39543 15 5.5V7.5H9V5.5Z" stroke="#F8F9FA" stroke-width="2" stroke-linejoin="round"/>
</g>
<defs>
<clipPath id="clip0_138_878">
<rect width="24" height="24" fill="white" transform="translate(0 0.5)"/>
</clipPath>
</defs>
</svg>
