<svg width="106" height="72" viewBox="0 0 106 72" fill="none" xmlns="http://www.w3.org/2000/svg">
<path fill-rule="evenodd" clip-rule="evenodd" d="M33.4471 6.86391C22.5299 3.16261 10.6793 9.01225 6.978 19.9295C3.2767 30.8467 9.12633 42.6973 20.0435 46.3986L60.5421 60.129L89.1624 70.6737C90.3091 71.1558 92.6861 71.2843 91.4818 69.2144C91.1713 68.6806 90.8111 68.1729 90.4489 67.6623C88.7965 65.333 87.1022 62.9445 89.8881 57.7529C92.0719 55.5628 93.8006 52.8516 94.8607 49.7247C98.562 38.8075 92.7123 26.9568 81.7951 23.2555L33.4471 6.86391Z" fill="#4FCE6C"/>
<rect x="23.2438" y="17.9121" width="38.5542" height="3" rx="1.5" transform="rotate(18.7284 23.2438 17.9121)" fill="black"/>
<rect x="19.7926" y="28.0898" width="57.4324" height="3" rx="1.5" transform="rotate(18.7284 19.7926 28.0898)" fill="black"/>
</svg>
