<svg width="106" height="76" viewBox="0 0 106 76" fill="none" xmlns="http://www.w3.org/2000/svg">
<g clip-path="url(#clip0_155_4527)">
<path opacity="0.1" d="M30.9048 3.29883H21.8783C21.3576 3.29883 20.9355 3.72091 20.9355 4.24157V5.65506C20.9355 6.17572 21.3576 6.5978 21.8783 6.5978H30.9048C31.4255 6.5978 31.8475 6.17572 31.8475 5.65506V4.24157C31.8475 3.72091 31.4255 3.29883 30.9048 3.29883Z" fill="white"/>
<path opacity="0.1" d="M42.3247 6.59766H33.2982C32.7776 6.59766 32.3555 7.01974 32.3555 7.5404V8.95388C32.3555 9.47455 32.7776 9.89663 33.2982 9.89663H42.3247C42.8454 9.89663 43.2675 9.47455 43.2675 8.95388V7.5404C43.2675 7.01974 42.8454 6.59766 42.3247 6.59766Z" fill="white"/>
<path opacity="0.1" d="M42.3247 1.65039H33.2982C32.7776 1.65039 32.3555 2.07247 32.3555 2.59314V4.00662C32.3555 4.52728 32.7776 4.94936 33.2982 4.94936H42.3247C42.8454 4.94936 43.2675 4.52728 43.2675 4.00662V2.59314C43.2675 2.07247 42.8454 1.65039 42.3247 1.65039Z" fill="white"/>
<path opacity="0.1" d="M55.0127 0H45.9862C45.4655 0 45.0435 0.422081 45.0435 0.942745V2.35623C45.0435 2.87689 45.4655 3.29897 45.9862 3.29897H55.0127C55.5334 3.29897 55.9554 2.87689 55.9554 2.35623V0.942745C55.9554 0.422081 55.5334 0 55.0127 0Z" fill="white"/>
<path opacity="0.1" d="M66.4326 3.29883H57.4061C56.8855 3.29883 56.4634 3.72091 56.4634 4.24157V5.65506C56.4634 6.17572 56.8855 6.5978 57.4061 6.5978H66.4326C66.9533 6.5978 67.3754 6.17572 67.3754 5.65506V4.24157C67.3754 3.72091 66.9533 3.29883 66.4326 3.29883Z" fill="white"/>
<path opacity="0.1" d="M77.8521 6.59766H68.8256C68.3049 6.59766 67.8828 7.01974 67.8828 7.5404V8.95388C67.8828 9.47455 68.3049 9.89663 68.8256 9.89663H77.8521C78.3727 9.89663 78.7948 9.47455 78.7948 8.95388V7.5404C78.7948 7.01974 78.3727 6.59766 77.8521 6.59766Z" fill="white"/>
<path opacity="0.1" d="M77.8521 1.65039H68.8256C68.3049 1.65039 67.8828 2.07247 67.8828 2.59314V4.00662C67.8828 4.52728 68.3049 4.94936 68.8256 4.94936H77.8521C78.3727 4.94936 78.7948 4.52728 78.7948 4.00662V2.59314C78.7948 2.07247 78.3727 1.65039 77.8521 1.65039Z" fill="white"/>
<path opacity="0.1" d="M19.4854 42.252H10.4589C9.93819 42.252 9.51611 42.674 9.51611 43.1947V44.6082C9.51611 45.1288 9.93819 45.5509 10.4589 45.5509H19.4854C20.006 45.5509 20.4281 45.1288 20.4281 44.6082V43.1947C20.4281 42.674 20.006 42.252 19.4854 42.252Z" fill="white"/>
<path opacity="0.1" d="M55.0127 42.252H45.9862C45.4655 42.252 45.0435 42.674 45.0435 43.1947V44.6082C45.0435 45.1288 45.4655 45.5509 45.9862 45.5509H55.0127C55.5334 45.5509 55.9554 45.1288 55.9554 44.6082V43.1947C55.9554 42.674 55.5334 42.252 55.0127 42.252Z" fill="white"/>
<path opacity="0.1" d="M77.8521 48.8496H68.8256C68.3049 48.8496 67.8828 49.2717 67.8828 49.7924V51.2058C67.8828 51.7265 68.3049 52.1486 68.8256 52.1486H77.8521C78.3727 52.1486 78.7948 51.7265 78.7948 51.2058V49.7924C78.7948 49.2717 78.3727 48.8496 77.8521 48.8496Z" fill="white"/>
<path d="M91.5833 1.14258H0.914831C0.409584 1.14258 0 1.55216 0 2.05741V46.5402C0 47.0455 0.409584 47.4551 0.914831 47.4551H91.5833C92.0885 47.4551 92.4981 47.0455 92.4981 46.5402V2.05741C92.4981 1.55216 92.0885 1.14258 91.5833 1.14258Z" fill="#1A1A1A"/>
<path d="M90.5638 2.14648H2.137C1.63175 2.14648 1.22217 2.55607 1.22217 3.06131V45.5336C1.22217 46.0388 1.63175 46.4484 2.137 46.4484H90.5638C91.069 46.4484 91.4786 46.0388 91.4786 45.5336V3.06131C91.4786 2.55607 91.069 2.14648 90.5638 2.14648Z" fill="white"/>
<path opacity="0.1" d="M0 44.6621H92.4981V46.5387C92.4981 46.7813 92.4017 47.014 92.2302 47.1856C92.0586 47.3572 91.8259 47.4535 91.5833 47.4535H0.91483C0.672202 47.4535 0.439511 47.3572 0.267947 47.1856C0.0963831 47.014 0 46.7813 0 46.5387V44.6621Z" fill="black"/>
<path d="M15.5433 41.2363H9.326C9.15081 41.2363 9.00879 41.3783 9.00879 41.5535V44.345C9.00879 44.5202 9.15081 44.6622 9.326 44.6622H15.5433C15.7185 44.6622 15.8605 44.5202 15.8605 44.345V41.5535C15.8605 41.3783 15.7185 41.2363 15.5433 41.2363Z" fill="#090814"/>
<path d="M22.2046 44.1562H18.0174C17.8773 44.1562 17.7637 44.2699 17.7637 44.41C17.7637 44.5502 17.8773 44.6638 18.0174 44.6638H22.2046C22.3447 44.6638 22.4584 44.5502 22.4584 44.41C22.4584 44.2699 22.3447 44.1562 22.2046 44.1562Z" fill="#090814"/>
<path d="M13.5958 10.1998C16.9443 10.8177 20.36 10.1998 23.6945 9.78107L33.8287 8.51224C34.2385 8.46021 34.8349 8.21533 35.0759 8.71652C35.2117 8.99693 35.1204 9.60471 35.1305 9.92699C35.1571 10.8152 35.1546 11.7034 35.1305 12.5915C35.0848 14.2892 34.9605 15.9831 34.8019 17.6732C34.4935 20.9811 34.0571 24.2712 33.8388 27.5917C33.7272 29.2818 33.6713 30.977 33.7208 32.6671C33.7322 33.0705 33.7487 33.474 33.7728 33.8763C33.7995 34.3267 34.0012 34.9954 33.5102 35.2961C33.2298 35.4686 32.6778 35.4598 32.3568 35.5105C31.8493 35.5905 31.3418 35.6539 30.8241 35.7059C27.4122 36.0472 23.9559 35.9051 20.5313 35.8848L10.1903 35.8315L7.66783 35.8176C7.43944 35.8176 6.61596 35.9546 6.47512 35.6831C6.41549 35.5676 6.57409 35.0271 6.60201 34.8824C6.64092 34.6439 6.68321 34.4058 6.72889 34.1681C7.02326 32.4996 7.37092 30.8412 7.72112 29.1841C8.47354 25.6314 9.24372 22.0609 9.55332 18.432C9.70685 16.6112 9.60534 14.7739 9.79313 12.957C9.88068 12.1132 9.98472 10.2302 11.1076 10.1554C12.0593 10.0919 13.0388 10.1554 13.993 10.1554C14.0434 10.1554 14.0919 10.1353 14.1276 10.0996C14.1632 10.0639 14.1833 10.0155 14.1833 9.96505C14.1833 9.91458 14.1632 9.86617 14.1276 9.83047C14.0919 9.79478 14.0434 9.77473 13.993 9.77473C13.0921 9.77473 12.19 9.75062 11.2891 9.76839C10.6902 9.77981 10.274 9.92191 9.98853 10.4726C9.25895 11.8861 9.33381 13.7716 9.31097 15.3145C9.25641 19.008 8.68924 22.623 7.95078 26.2353C7.57901 28.0536 7.17806 29.8655 6.80883 31.685C6.635 32.5541 6.46878 33.4258 6.31652 34.3001C6.24546 34.7162 5.88638 35.6336 6.20232 36.0155C6.51826 36.3974 7.49019 36.1919 7.9254 36.1944L10.9528 36.2122L16.754 36.2452C20.5021 36.2667 24.2629 36.3721 28.0098 36.2617C29.7989 36.2084 31.6894 36.1348 33.4315 35.7072C33.9505 35.5803 34.2004 35.3418 34.2207 34.7886C34.2512 33.9308 34.1116 33.0464 34.0939 32.1849C33.967 24.813 35.6989 17.5438 35.5213 10.1693C35.5099 9.66815 35.6989 8.40439 35.1508 8.10113C34.9046 7.9641 34.5849 8.03896 34.3261 8.06941C33.8312 8.12651 33.3376 8.1963 32.8428 8.25466L26.4161 9.05657C24.3619 9.31033 22.3089 9.5844 20.2509 9.81787C18.0723 10.0716 15.8721 10.2226 13.7011 9.81787C13.4613 9.77346 13.3586 10.1402 13.5996 10.1846L13.5958 10.1998Z" fill="white"/>
<path d="M9.55575 14.685L34.9096 13.4415C35.1545 13.4288 35.1558 13.0482 34.9096 13.0609L9.55575 14.3043C9.31213 14.3157 9.31086 14.6964 9.55575 14.685Z" fill="white"/>
<path d="M17.3668 11.5469C17.2959 11.622 17.2445 11.7133 17.2169 11.8129C17.1893 11.9125 17.1864 12.0173 17.2086 12.1182C17.2307 12.2191 17.2772 12.3131 17.3439 12.392C17.4106 12.4708 17.4956 12.5322 17.5914 12.5708C17.9327 12.7269 18.3337 12.5962 18.6725 12.5112C19.18 12.3843 19.6875 12.2714 20.209 12.1787C21.344 11.9778 22.4937 11.8709 23.6463 11.859C24.1716 11.8526 24.6931 11.8768 25.2184 11.8996C25.599 11.9148 26.0089 11.9453 26.3312 11.7093C26.6991 11.4403 26.8184 10.915 26.458 10.5876C25.9505 10.1245 24.8568 10.3935 24.2706 10.4417C22.1435 10.6184 20.0302 10.9337 17.9442 11.3857C17.7056 11.4365 17.8059 11.8044 18.0457 11.7524C19.4219 11.4555 20.8088 11.217 22.2062 11.0368C22.893 10.9522 23.5812 10.8807 24.2706 10.8224C24.5954 10.7957 24.9202 10.7716 25.245 10.7526C25.3719 10.745 25.5064 10.731 25.6358 10.7348C26.0381 10.7437 26.085 10.6714 25.8439 11.1573C25.6295 11.5875 25.698 11.538 25.3262 11.524C25.1689 11.524 25.0116 11.5063 24.8542 11.4986C24.532 11.4851 24.2097 11.4779 23.8874 11.4771C23.2014 11.4771 22.517 11.5101 21.8344 11.576C21.2558 11.6319 20.6785 11.7105 20.1063 11.812C19.7484 11.8755 19.3932 11.9491 19.0392 12.0303C18.8831 12.0671 18.7258 12.1051 18.5697 12.1445C18.4948 12.1648 18.4187 12.1825 18.3438 12.2016C18.0664 12.298 17.83 12.1711 17.6346 11.8209C17.8046 11.6446 17.5369 11.3743 17.3656 11.5519L17.3668 11.5469Z" fill="white"/>
<path d="M21.9625 16.9611C20.1265 16.89 18.1433 17.3861 16.9341 18.8643C15.9876 20.0202 15.4483 22.0034 16.4507 23.3052C17.528 24.701 19.8905 24.4548 21.3154 23.8597C22.8228 23.2253 24.4723 21.9171 24.9253 20.2803C25.4899 18.2362 23.6564 16.6908 21.7468 16.668C21.6964 16.668 21.6479 16.688 21.6123 16.7237C21.5766 16.7594 21.5565 16.8078 21.5565 16.8583C21.5565 16.9088 21.5766 16.9572 21.6123 16.9929C21.6479 17.0286 21.6964 17.0486 21.7468 17.0486C22.8355 17.0613 23.9039 17.5282 24.4114 18.542C24.943 19.6104 24.485 20.7321 23.777 21.5872C22.6426 22.9487 20.8688 23.9752 19.062 23.946C17.9771 23.9295 16.7781 23.5577 16.4418 22.4133C16.1652 21.4857 16.3759 20.4719 16.858 19.6497C17.901 17.8734 20.0238 17.2719 21.9701 17.3481C22.215 17.3569 22.215 16.9763 21.9701 16.9674L21.9625 16.9611Z" fill="white"/>
<path d="M20.139 19.7809C20.0607 19.7519 19.9763 19.7432 19.8938 19.7555C19.8112 19.7679 19.7331 19.8009 19.6668 19.8516C19.6004 19.9023 19.5479 19.9689 19.5142 20.0453C19.4806 20.1216 19.4667 20.2053 19.4741 20.2885C19.5122 20.7833 20.0577 20.9229 20.4676 20.8937C20.8216 20.8632 21.2352 20.7326 21.1109 20.2897C21.088 20.2114 21.0485 20.1388 20.9951 20.0771C20.9417 20.0153 20.8756 19.9658 20.8013 19.9319C20.6877 19.8869 20.5646 19.8716 20.4435 19.8875C20.3965 19.8875 19.9664 20.0448 20.1491 19.8558L19.8497 19.8165C19.8829 19.8492 19.9084 19.889 19.9242 19.933C19.94 19.9769 19.9457 20.0238 19.941 20.0702C19.9416 20.1034 19.9508 20.1358 19.9676 20.1644C19.9845 20.1929 20.0085 20.2166 20.0373 20.2331C20.0661 20.2496 20.0986 20.2584 20.1318 20.2585C20.165 20.2586 20.1976 20.2502 20.2265 20.2339C20.27 20.2157 20.3178 20.21 20.3644 20.2174C20.411 20.2248 20.4546 20.2451 20.4903 20.2759C20.5261 20.3068 20.5525 20.347 20.5666 20.392C20.5807 20.437 20.582 20.4851 20.5704 20.5308C20.5601 20.5748 20.5658 20.6209 20.5862 20.6611C20.6067 20.7013 20.6407 20.733 20.6823 20.7506C20.7238 20.7682 20.7703 20.7706 20.8134 20.7573C20.8565 20.744 20.8936 20.7159 20.918 20.678C21.0449 20.4496 21.1984 19.9954 21.0081 19.7568C20.8812 19.5957 20.6363 19.6439 20.4841 19.7378C20.3901 19.8043 20.3026 19.8795 20.2227 19.9624C20.0692 20.0981 19.9689 20.1616 20.026 19.9015C20.1212 19.4282 20.5729 19.0513 20.9853 18.8623L20.7061 18.6479C20.5598 19.1978 20.2981 19.7104 19.9385 20.1514L20.2633 20.2859C20.2541 20.1117 20.2989 19.9389 20.3915 19.791C20.4842 19.6432 20.6202 19.5276 20.781 19.4599H20.5945L20.6934 19.6223C20.6566 19.8621 21.0233 19.9649 21.0601 19.7226C21.1083 19.4092 20.9104 19.0019 20.5437 19.1554C20.106 19.3381 19.8788 19.8393 19.8877 20.2859C19.8877 20.4382 20.1034 20.5562 20.2138 20.4217C20.6173 19.9315 20.9119 19.361 21.0779 18.7481C21.0867 18.7117 21.0848 18.6736 21.0723 18.6383C21.0598 18.603 21.0373 18.5722 21.0076 18.5494C20.9779 18.5267 20.9422 18.5131 20.9049 18.5103C20.8676 18.5075 20.8303 18.5156 20.7975 18.5337C20.4174 18.7055 20.0962 18.9852 19.8738 19.3381C19.719 19.5919 19.5248 19.9877 19.6822 20.2796C19.708 20.3263 19.7428 20.3674 19.7845 20.4005C19.8263 20.4337 19.8743 20.4583 19.9256 20.4728C19.9769 20.4873 20.0306 20.4915 20.0836 20.4851C20.1365 20.4787 20.1877 20.4619 20.2341 20.4356C20.3514 20.3661 20.4586 20.2807 20.5526 20.1819C20.5995 20.14 20.6516 20.0677 20.7137 20.055C20.7696 20.0169 20.767 20.0385 20.7049 20.1222C20.704 20.2537 20.6657 20.3822 20.5945 20.4927L20.9421 20.6387C20.9735 20.5202 20.9698 20.3952 20.9316 20.2787C20.8934 20.1623 20.8223 20.0594 20.7269 19.9825C20.6315 19.9056 20.5158 19.858 20.3939 19.8454C20.272 19.8328 20.1491 19.8558 20.04 19.9116L20.3267 20.0766C20.3327 19.9151 20.282 19.7566 20.1834 19.6287C20.1684 19.604 20.1481 19.583 20.1239 19.5672C20.0997 19.5514 20.0723 19.5413 20.0437 19.5375C20.0151 19.5337 19.986 19.5364 19.9586 19.5454C19.9311 19.5544 19.906 19.5694 19.8852 19.5893C19.6923 19.7911 19.6555 20.14 19.8979 20.3265C20.0793 20.4648 20.1681 20.3265 20.3673 20.2948C21.0436 20.2073 20.649 20.5118 20.4105 20.5219C20.3038 20.5334 20.196 20.5256 20.092 20.4991C19.8272 20.4094 19.8107 20.294 20.0425 20.1527C20.2696 20.2453 20.3673 19.8774 20.144 19.786L20.139 19.7809Z" fill="white"/>
<path d="M19.8333 20.4764C19.9894 20.984 19.3448 21.1515 19.039 21.3266C18.8244 21.4469 18.6373 21.6107 18.4896 21.8074C18.1699 22.2363 18.0506 22.7819 17.9453 23.2958C17.8971 23.5356 18.2638 23.6371 18.3132 23.3973C18.3713 23.0197 18.4792 22.6515 18.6343 22.3023C18.8626 21.848 19.19 21.6958 19.6163 21.4623C20.0427 21.2289 20.351 20.8672 20.2 20.3749C20.1289 20.1415 19.761 20.2417 19.8333 20.4764Z" fill="white"/>
<path d="M20.4677 20.2207C20.3769 20.2333 20.2941 20.2792 20.2354 20.3496C20.1768 20.42 20.1465 20.5098 20.1505 20.6014C20.1505 20.7523 20.2507 20.8488 20.3192 20.9693C20.4819 21.2159 20.606 21.4859 20.6872 21.77C20.7481 22.0427 20.8078 22.5313 20.6656 22.785C20.403 23.2558 19.9284 23.1657 19.5237 23.1657C19.143 23.1657 18.8487 23.2926 18.8614 22.7622C18.869 22.464 19.0771 22.162 19.242 21.9273L18.8943 21.8816C18.9677 22.269 19.0063 22.6623 19.0098 23.0566C19.0098 23.2329 19.2801 23.3306 19.3638 23.1517C19.5678 22.7226 19.7297 22.2747 19.8472 21.8144L19.4729 21.7636L19.5389 22.7279C19.54 22.7691 19.5543 22.8088 19.5798 22.8412C19.6052 22.8735 19.6404 22.8969 19.6801 22.9077C19.7198 22.9185 19.762 22.9162 19.8003 22.9012C19.8386 22.8862 19.8711 22.8593 19.8929 22.8244C19.9374 22.7753 19.9699 22.7167 19.9881 22.6531C20.0008 22.5934 19.884 22.1912 19.8371 22.3346L20.2101 22.3853L20.2368 21.4692L19.8561 21.52C19.9366 21.7783 19.9608 22.0509 19.9272 22.3194C19.9031 22.5313 20.2596 22.5795 20.3078 22.3701L20.5464 21.1393L20.1987 21.1837C20.2813 21.354 20.3041 21.5471 20.2634 21.7319C20.2355 21.9755 20.6162 21.973 20.6441 21.7319C20.6764 21.4792 20.6359 21.2226 20.5273 20.9922C20.5081 20.9604 20.4799 20.9349 20.4464 20.9188C20.4129 20.9028 20.3755 20.8968 20.3386 20.9016C20.3018 20.9065 20.2671 20.9219 20.2389 20.9461C20.2107 20.9703 20.1901 21.0022 20.1797 21.0378L19.9399 22.2686L20.3142 22.3194C20.3522 22.0169 20.3232 21.7097 20.2292 21.4198C20.2164 21.3761 20.1885 21.3384 20.1504 21.3135C20.1123 21.2886 20.0665 21.2783 20.0214 21.2843C19.9763 21.2902 19.9348 21.3122 19.9045 21.3461C19.8742 21.3801 19.857 21.4237 19.8561 21.4692L19.8295 22.3853C19.8305 22.4309 19.8477 22.4745 19.878 22.5085C19.9084 22.5425 19.9498 22.5645 19.995 22.5706C20.0401 22.5767 20.0859 22.5665 20.1242 22.5419C20.1625 22.5172 20.1907 22.4797 20.2038 22.4361L20.2241 22.3739C20.2329 22.3415 20.233 22.3074 20.2246 22.2749C20.2161 22.2424 20.1993 22.2127 20.1759 22.1887C19.7813 21.7598 19.7013 22.4424 19.5643 22.6315L19.9196 22.7279L19.8536 21.7636C19.8396 21.5581 19.5351 21.4946 19.4793 21.7129C19.372 22.142 19.2233 22.5597 19.0352 22.9601L19.3905 23.0566C19.3864 22.6281 19.3439 22.2009 19.2636 21.7801C19.2306 21.605 19.0009 21.6126 18.9159 21.7344C18.6621 22.0998 18.2231 22.8979 18.5619 23.3357C18.8576 23.7163 19.7876 23.5692 20.1848 23.5451C20.8116 23.5095 21.0387 23.1124 21.1072 22.5211C21.1398 22.238 21.124 21.9513 21.0603 21.6735C21.026 21.5238 20.6796 20.5747 20.5756 20.5937C20.8166 20.5493 20.7139 20.1814 20.474 20.2258L20.4677 20.2207Z" fill="white"/>
<path d="M19.7305 21.0768L18.6914 22.4484L19.02 22.64L19.7813 21.5387L19.4336 21.3915L19.0542 22.8392C19.044 22.8832 19.0497 22.9293 19.0701 22.9696C19.0906 23.0098 19.1246 23.0415 19.1662 23.0591C19.2077 23.0767 19.2542 23.079 19.2973 23.0657C19.3404 23.0524 19.3775 23.0243 19.4019 22.9864C19.5745 22.7004 19.7684 22.4276 19.9818 22.1706L19.6646 21.9853C19.5794 22.3131 19.4151 22.615 19.1862 22.8646L19.5047 23.0499C19.5242 22.8745 19.5708 22.7033 19.643 22.5423C19.7407 22.3228 19.4311 22.1287 19.3144 22.3495C19.207 22.5506 19.0844 22.7431 18.9477 22.9255L19.2953 22.9712L19.3727 22.6096L19.0251 22.5639L19.0809 22.8811C19.0901 22.913 19.1074 22.942 19.1311 22.9652C19.1548 22.9884 19.1842 23.0051 19.2163 23.0135C19.2484 23.022 19.2822 23.0219 19.3143 23.0134C19.3464 23.0049 19.3757 22.9881 19.3994 22.9648C19.7212 22.6318 19.9792 22.2426 20.1607 21.8166H19.8333C19.9194 21.9752 19.9798 22.1465 20.0122 22.3241C20.0579 22.5525 20.3612 22.4675 20.3853 22.2733C20.4398 21.8483 20.4677 21.4203 20.469 20.9918H20.0884V21.7899C20.0884 21.9967 20.4271 22.0576 20.4627 21.8407C20.4878 21.6482 20.5512 21.4627 20.6492 21.2951H20.3155C20.3959 21.4248 20.4397 21.5739 20.4424 21.7265C20.4424 21.7769 20.4624 21.8253 20.4981 21.861C20.5338 21.8967 20.5822 21.9168 20.6327 21.9168C20.6832 21.9168 20.7316 21.8967 20.7673 21.861C20.803 21.8253 20.823 21.7769 20.823 21.7265L20.8712 21.4727H20.5045C20.5413 21.6973 20.6809 22.9623 20.1848 22.8139C20.101 22.7936 20.0769 22.7986 20.1125 22.8278L20.2254 22.5867L20.4906 22.0246L20.1353 21.9282C20.1581 22.1896 20.1822 22.5626 20.0249 22.7859C19.898 22.9674 19.5072 23.0397 19.308 22.9331C19.1765 22.8394 19.0641 22.7214 18.9769 22.5855L18.7167 22.8392C18.9274 22.9928 19.2687 23.3696 19.5402 23.3912C19.747 23.4077 19.9209 23.2364 20.0566 23.0993C20.2649 22.8841 20.4273 22.6289 20.5339 22.3491C20.6406 22.0692 20.6893 21.7706 20.6771 21.4714C20.6771 21.421 20.657 21.3725 20.6213 21.3368C20.5857 21.3012 20.5372 21.2811 20.4868 21.2811C20.4363 21.2811 20.3879 21.3012 20.3522 21.3368C20.3165 21.3725 20.2964 21.421 20.2964 21.4714V21.9054C20.2964 21.9558 20.3165 22.0043 20.3522 22.0399C20.3879 22.0756 20.4363 22.0957 20.4868 22.0957C20.5372 22.0957 20.5857 22.0756 20.6213 22.0399C20.657 22.0043 20.6771 21.9558 20.6771 21.9054V20.8408C20.6771 20.7903 20.657 20.7419 20.6213 20.7062C20.5857 20.6705 20.5372 20.6505 20.4868 20.6505C20.4363 20.6505 20.3879 20.6705 20.3522 20.7062C20.3165 20.7419 20.2964 20.7903 20.2964 20.8408C20.2957 21.096 20.2737 21.3506 20.2305 21.6021L20.6048 21.6529C20.575 21.3497 20.561 21.0452 20.5629 20.7406C20.5623 20.695 20.5454 20.6511 20.5151 20.6169C20.4849 20.5828 20.4434 20.5606 20.3982 20.5545C20.3531 20.5483 20.3072 20.5586 20.2689 20.5834C20.2307 20.6083 20.2026 20.646 20.1899 20.6898C20.1328 20.9322 20.063 21.1707 19.9957 21.408L20.3434 21.3623L20.3167 21.2608C20.299 21.0185 19.9183 21.0172 19.9361 21.2608C19.9403 21.3635 19.9671 21.4641 20.0148 21.5552C20.0883 21.71 20.318 21.6554 20.3624 21.5095C20.4347 21.271 20.4995 21.0324 20.5566 20.7913L20.1822 20.7406C20.1803 21.0452 20.1943 21.3497 20.2241 21.6529C20.2431 21.8483 20.5578 21.932 20.5972 21.7036C20.6478 21.417 20.6746 21.1268 20.6771 20.8357H20.2964V21.9003H20.6771V21.4664H20.2964C20.3188 21.945 20.1525 22.4133 19.8333 22.7707C19.7839 22.8269 19.7304 22.8795 19.6734 22.9281C19.5834 23.0143 19.5009 23.0016 19.4286 22.8887C19.2484 22.8139 19.0619 22.621 18.9045 22.5081C18.7472 22.3951 18.5315 22.6185 18.6431 22.7682C18.935 23.1564 19.3702 23.5891 19.912 23.4026C20.4817 23.2009 20.5591 22.4294 20.5159 21.9219C20.502 21.7531 20.2495 21.6389 20.1619 21.8267C20.0351 22.0944 19.9082 22.3609 19.7813 22.6299C19.7155 22.7301 19.6763 22.8453 19.6671 22.9648C19.709 23.2503 20.0554 23.2034 20.2685 23.1869C21.0945 23.1247 20.9638 21.9536 20.8687 21.3648C20.837 21.1694 20.5527 21.1999 20.502 21.3648C20.4617 21.4807 20.4407 21.6025 20.4398 21.7252H20.8205C20.8067 21.507 20.7456 21.2944 20.6416 21.1022C20.6245 21.0738 20.6005 21.0503 20.5717 21.034C20.5429 21.0177 20.5103 21.0091 20.4773 21.0091C20.4442 21.0091 20.4116 21.0177 20.3828 21.034C20.354 21.0503 20.33 21.0738 20.3129 21.1022C20.1995 21.2981 20.1229 21.5131 20.0871 21.7366L20.4677 21.7874V20.9893C20.4677 20.9388 20.4477 20.8904 20.412 20.8547C20.3763 20.819 20.3279 20.7989 20.2774 20.7989C20.2269 20.7989 20.1785 20.819 20.1428 20.8547C20.1071 20.8904 20.0871 20.9388 20.0871 20.9893C20.0858 21.4178 20.0578 21.8458 20.0033 22.2708L20.3776 22.22C20.3346 22.0126 20.2615 21.8126 20.1607 21.6262C20.1437 21.5978 20.1196 21.5744 20.0908 21.558C20.062 21.5417 20.0295 21.5332 19.9964 21.5332C19.9633 21.5332 19.9307 21.5417 19.9019 21.558C19.8731 21.5744 19.8491 21.5978 19.832 21.6262C19.6666 22.0236 19.4286 22.3867 19.1304 22.6971L19.4489 22.7809L19.393 22.4637C19.3638 22.2949 19.1253 22.2898 19.0454 22.418C18.9823 22.5134 18.9395 22.6207 18.9197 22.7334C18.8998 22.846 18.9033 22.9615 18.9299 23.0727C18.9616 23.2529 19.19 23.2338 19.2776 23.1184C19.4143 22.9364 19.5369 22.7443 19.6443 22.5436L19.3156 22.3507C19.2279 22.5403 19.1681 22.7416 19.138 22.9484C19.1152 23.1158 19.3144 23.2909 19.4565 23.1336C19.7292 22.8351 19.9267 22.4758 20.0325 22.0855C20.0795 21.913 19.8409 21.7493 19.714 21.9003C19.4806 22.18 19.2685 22.4769 19.0796 22.7885L19.4273 22.9357L19.8143 21.493C19.8245 21.449 19.8189 21.4029 19.7984 21.3627C19.7779 21.3225 19.7439 21.2908 19.7024 21.2732C19.6608 21.2556 19.6144 21.2532 19.5712 21.2665C19.5281 21.2798 19.4911 21.3079 19.4666 21.3458L18.7053 22.4484C18.5632 22.6527 18.8893 22.8291 19.0339 22.64L20.0693 21.2697C20.2165 21.0743 19.8866 20.889 19.7407 21.0768H19.7305Z" fill="white"/>
<path d="M35.9186 25.6566C37.4412 24.7253 38.6516 23.3359 39.9966 22.1737C41.4558 20.9137 42.9872 19.74 44.5644 18.6285C47.6274 16.4715 50.8439 14.5416 54.0578 12.6168C54.0995 12.5904 54.1293 12.549 54.141 12.5011C54.1527 12.4532 54.1453 12.4027 54.1205 12.3601C54.0957 12.3175 54.0553 12.2862 54.0079 12.2728C53.9605 12.2594 53.9097 12.2649 53.8662 12.2882C50.6523 14.213 47.4345 16.1391 44.3715 18.2999C42.9263 19.315 41.5154 20.391 40.1628 21.5329C38.691 22.7764 37.3803 24.3243 35.7219 25.328C35.5125 25.4549 35.7041 25.7848 35.9135 25.6566H35.9186Z" fill="white"/>
<path d="M58.9716 6.70618C57.3221 6.87366 55.5458 7.29365 54.5307 8.73631C53.6539 9.97723 53.673 12.1419 54.4964 13.4158C55.4316 14.8635 57.3424 14.9155 58.827 14.4473C60.3115 13.9791 61.8481 13.1582 61.8341 11.3844C61.8265 10.4327 61.4827 9.44178 61.1033 8.57897C60.7759 7.83417 60.1961 7.18326 59.318 7.26573C59.0757 7.28857 59.0731 7.66922 59.318 7.64638C60.4942 7.53726 60.8723 8.93425 61.1515 9.81609C61.4053 10.6396 61.64 11.614 61.2416 12.4324C60.8432 13.2508 59.8827 13.6683 59.0617 13.9677C58.1735 14.29 57.1978 14.4867 56.2703 14.2215C54.433 13.7076 53.9255 11.3793 54.4546 9.72727C55.0636 7.82402 57.2206 7.26446 58.978 7.08683C59.2191 7.06272 59.2216 6.68207 58.978 6.70618H58.9716Z" fill="white"/>
<path d="M61.5092 21.4249C59.8597 21.5924 58.0834 22.0124 57.0683 23.4551C56.1915 24.696 56.2106 26.8606 57.034 28.1345C57.9692 29.5823 59.88 29.6343 61.3646 29.1661C62.8491 28.6979 64.3857 27.877 64.3717 26.1031C64.3641 25.1515 64.0203 24.1605 63.6409 23.2977C63.3135 22.5529 62.7337 21.902 61.8556 21.9845C61.6133 22.0073 61.6107 22.388 61.8556 22.3651C63.0318 22.256 63.4099 23.653 63.6891 24.5348C63.9429 25.3583 64.1776 26.3328 63.7792 27.1512C63.3808 27.9696 62.4203 28.387 61.5993 28.6865C60.7111 29.0088 59.7354 29.2054 58.8079 28.9402C56.9706 28.4264 56.4631 26.098 56.9922 24.446C57.6012 22.5428 59.7582 21.9832 61.5156 21.8056C61.7567 21.7815 61.7592 21.4008 61.5156 21.4249H61.5092Z" fill="white"/>
<path d="M56.4835 10.4118L57.6851 11.7822C57.7088 11.8051 57.7382 11.8215 57.7702 11.8298C57.8022 11.8381 57.8358 11.8379 57.8677 11.8294C57.8996 11.8208 57.9288 11.8041 57.9524 11.781C57.976 11.7578 57.9931 11.7289 58.0023 11.6972C58.256 11.0298 58.2078 10.3382 58.2674 9.63658C58.3332 8.91136 58.5153 8.20145 58.8067 7.53411C59.3921 6.18056 60.3846 5.043 61.6464 4.27955C61.8557 4.15267 61.6641 3.82277 61.4548 3.95092C60.2107 4.70006 59.2127 5.79644 58.5834 7.10525C58.2754 7.74213 58.0616 8.42045 57.949 9.11889C57.8221 9.94236 57.9376 10.8052 57.633 11.5957L57.9515 11.5106L56.7563 10.1428C56.5939 9.95886 56.3261 10.2291 56.4873 10.4118H56.4835Z" fill="white"/>
<path d="M36.5313 27.1382C43.076 26.9386 49.6223 26.8963 56.1703 27.0113C56.2208 27.0113 56.2692 26.9913 56.3049 26.9556C56.3406 26.9199 56.3607 26.8715 56.3607 26.821C56.3607 26.7705 56.3406 26.7221 56.3049 26.6864C56.2692 26.6507 56.2208 26.6307 56.1703 26.6307C49.624 26.5139 43.0777 26.5562 36.5313 26.7576C36.2864 26.7652 36.2852 27.1458 36.5313 27.1382Z" fill="white"/>
<path d="M57.5379 23.3866C59.7752 24.2647 61.9272 25.3461 63.9671 26.6171C64.1752 26.744 64.3667 26.4179 64.1587 26.2885C62.092 25.0017 59.9114 23.9076 57.6445 23.0199C57.4173 22.9299 57.3184 23.2978 57.5442 23.3866H57.5379Z" fill="white"/>
<path d="M61.601 21.6625C59.3322 24.3073 58.018 27.6377 57.8693 31.1191C57.8592 31.364 58.2398 31.364 58.25 31.1191C58.3941 27.7377 59.6688 24.5024 61.87 21.9315C62.0286 21.7462 61.7609 21.4759 61.601 21.6625Z" fill="white"/>
<path d="M10.8536 25.7574L25.0354 25.5721L26.6658 25.5505C26.9589 25.5505 27.252 25.5404 27.5451 25.5391C27.9575 25.5391 28.2354 25.8817 28.2278 26.3004C28.2087 27.1886 27.6505 27.1569 26.9196 27.1886L25.1572 27.2685L17.9807 27.5845C16.6953 27.6416 15.4087 27.7114 14.1234 27.7558C12.9637 27.7913 10.7584 27.4132 11.2736 25.7256C11.3446 25.4909 10.978 25.3907 10.9056 25.6241C10.6519 26.454 11.101 27.2965 11.8243 27.7317C12.8508 28.3483 14.2033 28.139 15.3364 28.0882L24.1472 27.6885L26.2864 27.5934C26.8346 27.568 27.5972 27.6796 28.1009 27.4246C28.6922 27.1264 28.7962 25.9426 28.4232 25.444C28.2316 25.1902 27.9626 25.1674 27.6619 25.1559C26.8727 25.1255 26.0695 25.1775 25.279 25.1877L20.8863 25.246L10.8485 25.3729C10.7981 25.3729 10.7496 25.393 10.7139 25.4286C10.6783 25.4643 10.6582 25.5127 10.6582 25.5632C10.6582 25.6137 10.6783 25.6621 10.7139 25.6978C10.7496 25.7335 10.7981 25.7536 10.8485 25.7536L10.8536 25.7574Z" fill="white"/>
<path d="M68.1516 72.387C67.8319 72.5874 67.4664 72.7004 67.1366 72.8767C66.8067 73.0531 66.4856 73.3183 66.3917 73.6837C66.3567 73.7971 66.3625 73.9193 66.4082 74.0288C66.4903 74.1612 66.6159 74.2608 66.7635 74.3105C67.4337 74.6081 68.1576 74.7659 68.8908 74.7742C69.6241 74.7825 70.3513 74.6411 71.0281 74.3587C71.2662 74.2443 71.5121 74.1467 71.764 74.0669C72.0743 74.0036 72.3901 73.9713 72.7067 73.9705C73.0396 73.951 73.3707 73.9086 73.6977 73.8436C73.8621 73.8253 74.0179 73.7606 74.1469 73.6571C74.2646 73.5214 74.3353 73.3514 74.3486 73.1724C74.4988 72.1838 74.2724 71.175 73.7142 70.3454C73.6439 70.2291 73.5496 70.1292 73.4376 70.0523C73.301 69.9817 73.1508 69.9415 72.9973 69.9343C72.3629 69.8569 71.698 69.7148 71.0573 69.6996C70.5979 69.6894 70.367 69.9076 70.0422 70.2236C69.371 70.8948 68.9789 71.8705 68.1516 72.387Z" fill="#1A1A1A"/>
<path d="M77.5015 72.2931C77.5015 72.9148 77.5764 73.5733 77.9532 74.0694C78.1255 74.284 78.3343 74.4665 78.5699 74.6087C79.3667 75.1162 80.4224 75.3028 81.2623 74.8726C81.398 74.8117 81.514 74.7142 81.5973 74.5909C81.7242 74.3702 81.6569 74.0948 81.5859 73.8512L80.3703 69.6387C79.5849 69.7592 78.4303 69.8442 77.7324 70.2426C77.2262 70.5307 77.5015 71.7373 77.5015 72.2931Z" fill="#1A1A1A"/>
<path d="M67.4383 46.3552C67.3647 46.5874 67.0983 46.6952 66.9524 46.8906C66.7811 47.1203 66.7988 47.4388 66.861 47.7179C66.9378 48.1295 67.1311 48.5104 67.418 48.8154C67.5636 48.9665 67.7433 49.0806 67.9419 49.1481C68.1406 49.2157 68.3525 49.2347 68.56 49.2037C68.7649 49.1659 68.9517 49.0618 69.0917 48.9076C69.2318 48.7533 69.3173 48.5574 69.3352 48.3498C69.3279 48.1611 69.2875 47.9751 69.216 47.8004L68.3506 45.2982C68.35 45.2804 68.3443 45.2632 68.3343 45.2485C68.3243 45.2338 68.3104 45.2222 68.2941 45.215C68.2778 45.2079 68.2598 45.2054 68.2422 45.208C68.2246 45.2106 68.2081 45.2182 68.1946 45.2297C67.9903 45.3261 67.5804 45.4277 67.4612 45.6395C67.3419 45.8514 67.5246 46.1255 67.4383 46.3552Z" fill="#FBB3B2"/>
<path d="M67.0337 46.2286C67.3496 46.1792 67.6262 45.9939 67.9219 45.8721C68.2175 45.7503 68.588 45.7033 68.8367 45.9063C68.9078 45.9647 68.9763 46.0447 69.0689 46.0434C68.9429 45.4229 68.7524 44.8174 68.5005 44.2366C68.4916 44.2087 68.4743 44.1843 68.451 44.1668C68.4164 44.1527 68.3777 44.1527 68.3431 44.1668L67.4892 44.3901C67.1733 44.4726 67.1365 44.4472 67.1606 44.7581C67.1669 44.8964 67.238 46.2286 67.0337 46.2286Z" fill="#1A1A1A"/>
<path d="M66.9401 28.1596C66.8132 28.355 66.8132 28.5986 66.8132 28.8282C66.8132 29.9512 66.8246 31.0804 66.9908 32.1919C67.0301 32.4584 67.0796 32.7248 67.105 32.9938C67.1338 33.3683 67.1397 33.7441 67.1228 34.1193L66.9959 39.0043C66.9807 39.6019 66.9502 40.244 66.581 40.7134C66.469 40.8708 66.4164 41.0628 66.4325 41.2552C66.529 42.4809 66.732 43.6965 66.9337 44.9082C67.2586 44.7617 67.6135 44.6941 67.9694 44.7111C68.3253 44.7281 68.6722 44.8291 68.9816 45.0059C69.6218 42.993 69.9759 40.9001 70.0335 38.7886C70.0627 37.7494 70.0183 36.7039 70.1781 35.6774C70.4459 33.9493 70.3367 32.1767 70.1401 30.4384C70.0779 29.8877 69.9459 29.3206 69.5932 28.8942C69.2593 28.5212 68.8146 28.265 68.3244 28.1634C67.8549 28.0403 67.4349 28.1672 66.9401 28.1596Z" fill="#1A1A1A"/>
<path opacity="0.1" d="M66.9401 28.1596C66.8132 28.355 66.8132 28.5986 66.8132 28.8282C66.8132 29.9512 66.8246 31.0804 66.9908 32.1919C67.0301 32.4584 67.0796 32.7248 67.105 32.9938C67.1338 33.3683 67.1397 33.7441 67.1228 34.1193L66.9959 39.0043C66.9807 39.6019 66.9502 40.244 66.581 40.7134C66.469 40.8708 66.4164 41.0628 66.4325 41.2552C66.529 42.4809 66.732 43.6965 66.9337 44.9082C67.2586 44.7617 67.6135 44.6941 67.9694 44.7111C68.3253 44.7281 68.6722 44.8291 68.9816 45.0059C69.6218 42.993 69.9759 40.9001 70.0335 38.7886C70.0627 37.7494 70.0183 36.7039 70.1781 35.6774C70.4459 33.9493 70.3367 32.1767 70.1401 30.4384C70.0779 29.8877 69.9459 29.3206 69.5932 28.8942C69.2593 28.5212 68.8146 28.265 68.3244 28.1634C67.8549 28.0403 67.4349 28.1672 66.9401 28.1596Z" fill="black"/>
<path d="M68.4905 42.3261C67.6396 46.687 68.1042 51.2025 69.8254 55.2987C69.9741 55.6019 70.0783 55.925 70.1349 56.258C70.2047 56.8797 69.918 57.4773 69.7543 58.0787C69.3736 59.4465 69.5932 60.9032 69.8368 62.3027C69.9383 62.8864 70.0427 63.4696 70.1502 64.0524C70.2555 64.6208 70.357 65.2388 70.0931 65.7539C70.3202 66.7005 70.4547 67.6381 70.6818 68.5847C70.7059 68.6596 70.7133 68.7388 70.7034 68.8169C70.6576 68.9407 70.577 69.0487 70.4712 69.1277C70.3019 69.2994 70.1802 69.5121 70.1182 69.7451C70.0561 69.978 70.0558 70.2231 70.1172 70.4562C70.697 70.04 71.5053 70.186 72.1676 70.4562C72.83 70.7265 73.4821 71.0906 74.1978 71.0906C74.0937 70.2507 73.9935 69.3688 74.3031 68.5809C74.4832 68.1241 74.8005 67.6927 74.7916 67.2042C74.7827 66.7664 74.515 66.3756 74.4503 65.943C74.4262 65.6738 74.4364 65.4026 74.4807 65.136C74.6507 63.5829 74.4579 62.0147 74.265 60.4641C74.2432 60.1584 74.1712 59.8583 74.0518 59.576C73.9618 59.3932 73.8273 59.2181 73.8298 59.0139C73.8298 58.7766 74.0214 58.5837 74.0924 58.3579C74.2193 57.9417 73.9859 57.3758 74.3373 57.1182C75.2636 56.4381 74.9083 54.814 74.888 53.6657C74.8719 52.6752 74.8296 51.6855 74.7611 50.6966C75.3443 52.3364 75.5827 54.079 75.4615 55.8151C75.4209 56.3836 75.3461 56.9812 75.5681 57.5065C75.7381 57.91 76.0756 58.2424 76.167 58.67C76.2241 58.9339 76.1835 59.2067 76.1962 59.4757C76.2089 59.7447 76.3002 60.0378 76.5324 60.1736C76.5502 61.3967 76.6593 62.7049 76.6783 63.9281C76.666 64.5533 76.717 65.1783 76.8306 65.7932C76.8875 65.9889 76.9191 66.191 76.9245 66.3947C76.8959 66.6501 76.8283 66.8995 76.724 67.1344C76.5029 67.7892 76.4451 68.4881 76.5556 69.1703C76.6662 69.8525 76.9418 70.4974 77.3584 71.0488C77.6579 70.5171 78.2821 70.2354 78.8912 70.191C79.5002 70.1466 80.1017 70.3002 80.6917 70.455C80.6015 69.7136 80.749 68.9627 81.1129 68.3106C81.2105 68.1637 81.2853 68.0028 81.335 67.8335C81.4035 67.5113 81.2436 67.1902 81.1573 66.8718C81.0165 66.3642 81.066 65.8174 81.099 65.287C81.2097 63.5107 81.131 61.7277 80.8642 59.968C80.823 59.6214 80.7417 59.2808 80.6219 58.953C80.5762 58.8362 80.5204 58.7246 80.4823 58.6066C80.4224 58.3949 80.3883 58.1768 80.3808 57.9569L80.2349 55.9268C80.1321 54.5044 80.599 53.0998 80.9251 51.7117C81.071 51.09 81.2297 50.4695 81.3274 49.8376C81.4606 48.9774 81.4821 48.0981 81.6775 47.2492C81.8526 46.4879 82.1686 45.7456 82.2346 44.9653C82.3361 43.7561 81.8336 42.5875 81.3464 41.4786C81.1434 41.0218 80.3757 41.0675 79.8821 40.9862C76.3814 40.4115 72.6942 40.4077 69.3927 41.7031C69.0513 41.8446 68.7438 42.0569 68.4905 42.3261Z" fill="#1A1A1A"/>
<path d="M71.014 19.8066L71.4022 21.3165C71.5078 21.6628 71.5663 22.0217 71.5761 22.3836C71.5801 22.5156 71.5508 22.6465 71.4911 22.7642C71.4272 22.8609 71.3453 22.9445 71.25 23.0104C70.9848 23.2121 70.8008 23.6828 70.4976 23.8224C70.6536 24.0939 70.8693 23.9176 71.151 24.0533C71.6471 24.2944 72.1014 24.6408 72.6394 24.7601C73.1469 24.8717 73.6798 24.7664 74.1835 24.6332C74.8979 24.4391 75.6084 24.1713 76.1832 23.7031C76.758 23.2349 77.0854 22.8213 77.0828 22.0816C76.4484 22.1564 75.8838 21.5157 75.6034 20.9396C75.5061 20.7207 75.4346 20.4912 75.3902 20.2557L75.0501 18.7598C74.6796 18.841 74.3777 19.1062 74.0237 19.2445C73.6697 19.3828 73.2509 19.3955 72.8576 19.4132C72.1594 19.445 71.465 19.5349 70.7818 19.6822C70.6879 19.7012 70.5699 19.7609 70.5927 19.8522" fill="#FBB3B2"/>
<path opacity="0.1" d="M71.014 19.8066L71.4022 21.3165C71.5078 21.6628 71.5663 22.0217 71.5761 22.3836C71.5801 22.5156 71.5508 22.6465 71.4911 22.7642C71.4272 22.8609 71.3453 22.9445 71.25 23.0104C70.9848 23.2121 70.8008 23.6828 70.4976 23.8224C70.6536 24.0939 70.8693 23.9176 71.151 24.0533C71.6471 24.2944 72.1014 24.6408 72.6394 24.7601C73.1469 24.8717 73.6798 24.7664 74.1835 24.6332C74.8979 24.4391 75.6084 24.1713 76.1832 23.7031C76.758 23.2349 77.0854 22.8213 77.0828 22.0816C76.4484 22.1564 75.8838 21.5157 75.6034 20.9396C75.5061 20.7207 75.4346 20.4912 75.3902 20.2557L75.0501 18.7598C74.6796 18.841 74.3777 19.1062 74.0237 19.2445C73.6697 19.3828 73.2509 19.3955 72.8576 19.4132C72.1594 19.445 71.465 19.5349 70.7818 19.6822C70.6879 19.7012 70.5699 19.7609 70.5927 19.8522" fill="black"/>
<path d="M72.6812 20.6397C74.5368 20.6397 76.041 19.1354 76.041 17.2798C76.041 15.4242 74.5368 13.9199 72.6812 13.9199C70.8256 13.9199 69.3213 15.4242 69.3213 17.2798C69.3213 19.1354 70.8256 20.6397 72.6812 20.6397Z" fill="#FBB3B2"/>
<path d="M73.6063 22.817C73.7859 22.429 74.0453 22.0831 74.3676 21.802C74.8408 21.3871 75.4879 21.0508 75.5996 20.4316L76.6248 21.6256C76.6805 21.681 76.7238 21.7476 76.7517 21.821C76.7646 21.8899 76.7627 21.9607 76.7461 22.0287C76.7295 22.0968 76.6985 22.1605 76.6553 22.2156C76.4015 22.6204 76.0018 22.9097 75.6237 23.2028C74.7571 23.8893 73.9273 24.6211 73.1381 25.3953C73.1033 25.4357 73.0567 25.4641 73.0048 25.4765C72.9558 25.4779 72.9075 25.4641 72.8665 25.4372C72.1855 25.0796 71.5829 24.5896 71.094 23.9958C71.0572 23.9514 71.0115 23.9006 70.9519 23.9044C70.9159 23.911 70.8828 23.9283 70.8567 23.9539C70.5154 24.2331 70.1423 24.5668 69.7046 24.5236C70.2718 24.1163 70.5928 23.4362 70.712 22.7473C70.7356 22.5115 70.7841 22.2788 70.8567 22.0532C70.8943 21.9403 70.9591 21.8385 71.0454 21.7566C71.1317 21.6747 71.2369 21.6154 71.3515 21.5837C71.0749 22.0063 71.264 22.6052 71.6358 22.9465C71.997 23.2531 72.43 23.463 72.8944 23.5568C73.3258 23.638 73.4527 23.1495 73.6063 22.817Z" fill="#1A1A1A"/>
<path d="M69.2353 42.6728C69.7136 42.7908 70.1666 42.9913 70.631 43.1397C71.4774 43.4048 72.3681 43.4984 73.2511 43.415C73.5229 43.4091 73.7872 43.3249 74.0124 43.1727C74.0721 43.1245 74.1266 43.0674 74.1901 43.023C74.2962 42.9593 74.4112 42.9118 74.5314 42.8821C75.6949 42.518 76.6694 41.7326 77.6147 40.9637C77.6451 40.9383 77.6794 40.9066 77.6768 40.866C77.6725 40.8383 77.6591 40.8129 77.6388 40.7936L77.1414 40.2227C75.837 40.4447 74.5009 40.361 73.1775 40.328C72.9059 40.3159 72.6336 40.3231 72.363 40.3495C72.1016 40.38 71.844 40.446 71.5864 40.5018C70.6082 40.715 69.6083 40.7962 68.6174 40.9357C68.548 40.9409 68.4808 40.9617 68.4207 40.9966C68.3789 41.029 68.3432 41.0685 68.3154 41.1134L67.9677 41.6019C67.8328 41.7662 67.7334 41.9567 67.6759 42.1614C67.5947 42.5421 67.7647 42.669 68.0883 42.6195C68.4705 42.5635 68.8599 42.5816 69.2353 42.6728Z" fill="#1A1A1A"/>
<path d="M73.124 24.8143C72.7358 24.4166 72.2958 24.073 71.8158 23.7929C71.6219 23.6697 71.4067 23.5837 71.1814 23.5391C71.068 23.5167 70.9511 23.5195 70.8388 23.5471C70.7266 23.5747 70.6218 23.6265 70.5317 23.699C70.4188 23.7992 70.3478 23.9388 70.2386 24.0441C70.1013 24.1595 69.9439 24.2485 69.7742 24.3068C69.1966 24.5536 68.6492 24.8656 68.1425 25.2368C67.8663 25.43 67.6175 25.6596 67.4028 25.9195C66.828 26.6554 66.7417 27.6565 66.7569 28.5904C66.7684 29.24 67.3914 29.7222 67.8202 30.2081C68.2225 30.6863 68.5865 31.1954 68.9089 31.7307C69.1398 32.0962 69.3809 32.492 69.3517 32.9272C69.3276 33.2838 69.1195 33.6188 69.1525 33.974C69.1639 34.1009 69.2045 34.2176 69.216 34.3407C69.2388 34.5945 69.1386 34.8483 69.1132 35.102C69.0789 35.4611 69.1957 35.8176 69.202 36.1793C69.1973 36.4268 69.1659 36.6731 69.1081 36.9139C68.8645 38.0736 68.5587 39.2397 68.6209 40.4235L67.9179 40.5504C67.9845 40.6157 68.0348 40.6957 68.0647 40.784C68.0946 40.8723 68.1033 40.9664 68.0901 41.0587C68.0769 41.151 68.0421 41.2389 67.9886 41.3152C67.9351 41.3916 67.8644 41.4543 67.7822 41.4982C68.8797 41.8649 70.0661 41.6797 71.2296 41.6784C72.1926 41.6784 73.1519 41.8053 74.1137 41.7875C75.0754 41.7698 76.0677 41.5959 76.8607 41.0516C77.0764 40.9044 77.2743 40.7318 77.5014 40.6037C77.8057 40.446 78.1335 40.3389 78.4721 40.2865C79.0993 40.1669 79.7369 40.1099 80.3754 40.1165C80.6875 40.1165 81.0275 40.1291 81.2762 39.9414C81.5503 39.7333 81.6201 39.3564 81.6569 39.0151C81.6937 38.6548 81.7165 38.2931 81.7229 37.9315C81.7335 37.6499 81.7186 37.3679 81.6785 37.089C81.6404 36.8851 81.5908 36.6834 81.53 36.4851L81.0516 34.8C80.8537 34.1047 81.129 33.3422 81.1874 32.6215C81.2014 32.4514 81.2039 32.2535 81.0732 32.1444C81.0263 32.105 80.9616 32.0784 80.9463 32.0175C80.9395 31.9886 80.9387 31.9586 80.9439 31.9293C80.9492 31.9001 80.9603 31.8722 80.9768 31.8475C81.2306 31.3399 81.6112 30.892 81.9589 30.434C82.5428 29.6305 83.0849 28.7975 83.583 27.9382C83.427 26.14 82.6698 24.4469 81.4336 23.1318C81.1921 22.8408 80.8833 22.613 80.534 22.4682C80.3018 22.3973 80.061 22.3585 79.8183 22.3528C78.8236 22.2855 77.7882 22.2259 76.9216 21.726C76.8594 21.6829 76.789 21.6531 76.7148 21.6384C76.5232 21.6168 76.3836 21.8059 76.2593 21.9556C75.9395 22.3363 75.4688 22.5545 75.0551 22.8349C74.2837 23.359 73.681 24.0797 73.124 24.8143Z" fill="#1A1A1A"/>
<path d="M83.6697 28.4582C83.8676 29.085 83.8486 29.7549 83.9133 30.4084C83.9516 30.8027 84.0207 31.1934 84.1201 31.577C84.1654 31.7878 84.247 31.9891 84.3612 32.1721C84.4754 32.3396 84.639 32.4753 84.7114 32.6644C84.7509 32.7925 84.7685 32.9263 84.7634 33.0603L84.7786 33.9358C84.8112 34.3997 84.7405 34.8651 84.5718 35.2985L84.0249 36.9619C83.7293 37.8628 83.426 38.7776 82.8931 39.5618C82.818 39.6945 82.7043 39.8012 82.567 39.8676C82.4596 39.896 82.3494 39.913 82.2384 39.9183C82.045 39.9528 81.8696 40.0537 81.7425 40.2035C81.6153 40.3533 81.5444 40.5428 81.5418 40.7393C81.4148 40.5537 81.2564 40.3918 81.0736 40.2609L79.9608 39.3727C79.5802 39.0631 79.183 38.7484 78.7212 38.5695C79.3424 38.3755 79.8939 38.0054 80.3088 37.504C80.7236 37.0027 80.9841 36.3916 81.0584 35.7451C81.058 35.5526 81.1014 35.3626 81.1853 35.1894C81.2779 35.0396 81.4492 34.9254 81.4619 34.7491C81.4771 34.527 81.2259 34.3595 81.2259 34.1375C81.2259 33.9903 81.335 33.8685 81.3832 33.7302C81.4283 33.5593 81.4283 33.3796 81.3832 33.2087L81.2297 32.3561C81.2206 32.2706 81.1948 32.1878 81.1536 32.1124C81.0961 32.0402 81.0324 31.9731 80.9632 31.912C80.6993 31.6163 80.816 31.1507 80.9632 30.7865C81.3012 29.9782 81.7367 29.2142 82.26 28.5115C82.4462 28.2755 82.6187 28.0289 82.7764 27.773C82.9109 27.5396 82.9413 27.216 83.0834 27.0117C83.2662 27.4913 83.5136 27.9646 83.6697 28.4582Z" fill="#1A1A1A"/>
<path d="M78.6818 38.6202C78.6252 38.6622 78.5763 38.7137 78.5372 38.7724C78.3877 38.9601 78.1886 39.1021 77.9624 39.1823C78.0893 39.2736 78.2047 39.3637 78.324 39.4563C79.2065 40.1379 80.0146 40.9106 80.7348 41.7618C80.8147 41.4763 81.2931 41.4966 81.4098 41.2238C81.4373 41.1457 81.446 41.0623 81.4352 40.9802C81.411 40.5528 81.3498 40.1283 81.2525 39.7114C81.2141 39.4967 81.1273 39.2937 80.9987 39.1176C80.8211 38.9031 80.5445 38.8003 80.2806 38.7115C79.8809 38.572 79.0879 38.3753 78.6818 38.6202Z" fill="#1A1A1A"/>
<path d="M77.0957 39.6187C76.715 39.9004 76.3813 40.2531 75.9537 40.446C75.6517 40.583 75.3079 40.6427 75.0439 40.8469C75.1873 41.1629 75.5604 41.3266 75.9068 41.3139C76.2535 41.2798 76.5858 41.158 76.8723 40.9599C77.0995 40.8203 77.3659 40.6579 77.6133 40.7556C77.6514 40.9485 77.4865 41.1299 77.4865 41.3253C77.4865 41.5207 77.6489 41.6628 77.8087 41.7656C78.57 42.2566 79.5496 42.216 80.4568 42.1589C80.5088 42.1609 80.5601 42.1457 80.6027 42.1158C80.6224 42.0928 80.6373 42.0662 80.6467 42.0375C80.656 42.0087 80.6596 41.9784 80.6573 41.9483C80.6687 41.7478 80.6738 41.5486 80.675 41.3481C80.7007 41.1865 80.6797 41.0209 80.6145 40.8708C80.5493 40.7206 80.4427 40.5922 80.3071 40.5006C79.8148 40.0774 79.2837 39.7014 78.721 39.3776C78.1627 39.0541 77.5968 39.2457 77.0957 39.6187Z" fill="#FBB3B2"/>
<path d="M73.8613 15.8739C73.298 15.9412 72.8882 16.3814 72.9453 16.8598C73.0023 17.3381 73.5048 17.668 74.0682 17.5995C74.6315 17.531 75.0414 17.092 74.9843 16.6149C74.9272 16.1378 74.4247 15.8067 73.8613 15.8739ZM74.0529 17.4676C73.5759 17.5247 73.1508 17.2443 73.1013 16.8408C73.0518 16.4373 73.4008 16.0642 73.8766 16.0071C74.3524 15.95 74.7787 16.2305 74.8282 16.6339C74.8777 17.0374 74.5288 17.4105 74.0529 17.4676Z" fill="#1A1A1A"/>
<path d="M71.1157 16.204C70.5524 16.2713 70.1425 16.7116 70.1996 17.1887C70.2567 17.6657 70.7592 17.9969 71.3226 17.9297C71.8859 17.8624 72.2958 17.4221 72.2387 16.9438C72.1816 16.4654 71.6791 16.1368 71.1157 16.204ZM71.3073 17.7964C70.8303 17.8535 70.4052 17.5731 70.357 17.1709C70.3088 16.7687 70.6552 16.3944 71.1322 16.336C71.6093 16.2776 72.0344 16.5593 72.0826 16.9628C72.1308 17.3663 71.7832 17.7393 71.3073 17.7964Z" fill="#1A1A1A"/>
<path d="M69.0766 16.4492L70.3011 16.7106L70.1805 17.0329L69.0259 16.6941L69.0766 16.4492Z" fill="#1A1A1A"/>
<path d="M75.9017 15.6289L74.7725 16.1732L74.9666 16.4575L76.0083 15.8548L75.9017 15.6289Z" fill="#1A1A1A"/>
<path d="M72.1255 16.6301L72.9845 16.5273L72.9401 16.7405L72.2029 16.79L72.1255 16.6301Z" fill="#1A1A1A"/>
<path d="M70.4594 16.3413C70.5403 16.1675 70.5835 15.9785 70.5863 15.7868C70.5893 15.6721 70.609 15.5584 70.6447 15.4493C70.7071 15.3108 70.802 15.1893 70.9213 15.0953C71.3172 14.7603 71.8843 14.5878 72.4439 14.5637C73.054 14.5356 73.661 14.6668 74.205 14.9443C74.3712 15.0222 74.5201 15.1326 74.6428 15.2691C74.8204 15.4861 74.8585 15.7665 75.0374 15.981C75.1595 16.1111 75.3131 16.2075 75.4834 16.2608C75.6536 16.3142 75.8348 16.3227 76.0093 16.2855C76.0715 16.0647 75.9903 15.8312 76.022 15.6054C76.072 15.4119 76.1395 15.2233 76.2238 15.042C76.4204 14.4622 76.1337 13.7897 75.5424 13.4433C75.3356 13.3164 75.0907 13.2339 74.9359 13.0626C74.7811 12.8913 74.7443 12.7137 74.6377 12.5424C74.3548 12.0894 73.6226 11.8775 73.0656 12.0869C72.8905 12.1529 72.7357 12.2531 72.5581 12.3242C72.2282 12.4599 71.8526 12.4841 71.4897 12.5297C71.132 12.5628 70.7822 12.6545 70.4544 12.8013C70.141 12.9561 69.8783 13.2048 69.806 13.5017C69.7717 13.6387 69.7793 13.7808 69.7451 13.9166C69.57 14.6055 68.4395 14.9405 68.376 15.6435C68.3532 15.8972 68.4915 16.1408 68.664 16.3477C68.7833 16.4885 69.0688 16.8653 69.2705 16.9199C69.4723 16.9745 69.6258 16.7829 69.8187 16.7169C70.1232 16.6217 70.3072 16.6014 70.4594 16.3413Z" fill="#CBCEDA"/>
<path d="M89.8833 65.9492C89.8833 70.7327 92.8846 74.6045 96.5933 74.6045L89.8833 65.9492Z" fill="#1A1A1A"/>
<path d="M96.0859 74.4204C96.0859 69.5823 99.4357 65.668 103.575 65.668L96.0859 74.4204Z" fill="white"/>
<path d="M92.3154 66.3828C92.3154 70.9275 94.2293 74.6049 96.5936 74.6049L92.3154 66.3828Z" fill="white"/>
<path d="M20.936 68.0879C20.936 71.4884 23.0669 74.2349 25.701 74.2349L20.936 68.0879Z" fill="#1A1A1A"/>
<path d="M22.6621 68.3965C22.6621 71.6264 24.022 74.2358 25.7007 74.2358L22.6621 68.3965Z" fill="white"/>
<path d="M25.7007 74.2353C25.7007 70.6811 27.9269 67.8047 30.6773 67.8047L25.7007 74.2353Z" fill="#1A1A1A"/>
<path d="M105.249 74.2363H13.9556V74.6048H105.249V74.2363Z" fill="#1A1A1A"/>
<rect x="6.09033" y="10.1504" width="54.5599" height="1.01507" fill="#1A1A1A"/>
<rect x="6.21729" y="13.7031" width="30.0714" height="1.01507" fill="#1A1A1A"/>
<rect x="6.34424" y="17.2559" width="54.5599" height="1.01507" fill="#1A1A1A"/>
<rect x="6.47119" y="20.8086" width="41.1103" height="1.01507" fill="#1A1A1A"/>
<rect x="6.59814" y="24.3613" width="57.6051" height="1.01507" fill="#1A1A1A"/>
<rect x="6.72461" y="27.9141" width="54.5599" height="1.01507" fill="#1A1A1A"/>
<rect x="6.85156" y="31.4668" width="46.4394" height="1.01507" fill="#1A1A1A"/>
<rect x="6.85156" y="35.5273" width="46.4394" height="1.01507" fill="#1A1A1A"/>
</g>
<defs>
<clipPath id="clip0_155_4527">
<rect width="105.249" height="75.1121" fill="white"/>
</clipPath>
</defs>
</svg>
