<svg width="100" height="80" viewBox="0 0 100 80" fill="none" xmlns="http://www.w3.org/2000/svg">
<g clip-path="url(#clip0_155_4188)">
<path d="M17.7724 54.5898C17.8497 54.7236 17.9525 54.8408 18.075 54.9347C18.1974 55.0287 18.3372 55.0975 18.4862 55.1372C18.6352 55.177 18.7906 55.1869 18.9434 55.1664C19.0963 55.1459 19.2436 55.0953 19.3769 55.0177C19.5103 54.9401 19.6271 54.8368 19.7206 54.7139C19.8141 54.591 19.8825 54.4508 19.9219 54.3013C19.9614 54.1518 19.971 53.996 19.9503 53.8428C19.9296 53.6896 19.879 53.542 19.8014 53.4085C19.7686 53.3533 19.7317 53.3008 19.6909 53.2513L20.6778 46.1994L20.7073 45.9882L20.9078 44.5492L20.9373 44.3418L20.8281 44.3469L18.9161 44.4346L18.4034 44.4577L18.3391 45.7705L17.9755 53.1508C17.7855 53.333 17.6621 53.574 17.6253 53.835C17.5885 54.096 17.6403 54.3619 17.7724 54.5898Z" fill="#FFB8B8"/>
<path d="M20.7013 46.0535L18.2735 45.8302C18.1475 45.8182 18.0314 45.7569 17.9504 45.6594C17.8695 45.562 17.8302 45.4364 17.8412 45.3101L18.2915 40.2483C18.3133 40.0025 18.3841 39.7635 18.4997 39.5456C18.6153 39.3277 18.7733 39.1352 18.9644 38.9795C19.1554 38.8239 19.3757 38.7083 19.6122 38.6395C19.8486 38.5707 20.0964 38.5502 20.3409 38.5791C20.5854 38.6081 20.8216 38.6859 21.0356 38.808C21.2495 38.93 21.4369 39.0939 21.5866 39.2899C21.7363 39.4858 21.8453 39.7099 21.907 39.9488C21.9688 40.1877 21.9822 40.4367 21.9463 40.6809L21.2183 45.6457C21.2016 45.7595 21.1447 45.8635 21.0579 45.9387C20.9711 46.0139 20.8603 46.0553 20.7456 46.0555C20.731 46.0555 20.7162 46.0549 20.7013 46.0535Z" fill="white"/>
<path d="M18.8613 41.9628C18.6158 41.2654 18.6044 40.5067 18.8289 39.8023C19.0534 39.0979 19.5016 38.4863 20.105 38.061C21.0205 37.433 22.2734 37.2075 23.6226 38.8178C26.321 42.0384 27.0277 45.5811 27.0277 45.5811L21.5024 46.4829C21.5024 46.4829 19.6231 44.1802 18.8613 41.9628Z" fill="white"/>
<g opacity="0.2">
<path d="M22.3389 38.0449C21.9308 39.1723 21.5141 40.3449 21.4871 41.6035C21.4602 42.5653 21.6815 43.5178 22.1295 44.3687C22.5625 45.1554 23.1948 45.7307 23.8909 45.9712C24.0216 46.0267 24.1656 46.043 24.3054 46.018C24.383 45.9961 24.4536 45.9542 24.51 45.8965C24.5665 45.8387 24.6069 45.7672 24.6272 45.6889C24.6902 45.4669 24.6145 45.2205 24.54 45.0052C23.714 42.6169 23.3136 40.542 22.4876 38.1537L22.3389 38.0449Z" fill="black"/>
</g>
<path d="M27.7976 78.2424L29.373 78.2422L30.1224 72.1504L27.7974 72.1505L27.7976 78.2424Z" fill="#FFB8B8"/>
<path d="M32.4111 79.707L27.4601 79.7073L27.46 77.7895L30.4981 77.7893C30.7493 77.7893 30.9981 77.8389 31.2302 77.9353C31.4623 78.0316 31.6732 78.1729 31.8508 78.351C32.0284 78.529 32.1693 78.7405 32.2655 78.9731C32.3616 79.2058 32.4111 79.4552 32.4111 79.707Z" fill="#1A1A1A"/>
<path d="M14.8462 76.864L16.342 77.3598L18.9608 71.8115L16.7531 71.0801L14.8462 76.864Z" fill="#FFB8B8"/>
<path d="M18.7676 79.709L14.0667 78.1512L14.667 76.3303L17.5516 77.2862C18.0334 77.4458 18.4321 77.7908 18.6601 78.2451C18.8881 78.6995 18.9268 79.2261 18.7676 79.709Z" fill="#1A1A1A"/>
<path d="M22.3298 36.4648C24.0728 36.4648 25.4858 35.0482 25.4858 33.3008C25.4858 31.5533 24.0728 30.1367 22.3298 30.1367C20.5868 30.1367 19.1738 31.5533 19.1738 33.3008C19.1738 35.0482 20.5868 36.4648 22.3298 36.4648Z" fill="#FFB8B8"/>
<path d="M25.0931 76.5448L23.6301 66.8644C23.6145 66.761 23.5636 66.6664 23.486 66.5965C23.4085 66.5267 23.3092 66.486 23.2051 66.4814C23.1009 66.4768 22.9984 66.5087 22.9151 66.5715C22.8318 66.6343 22.7729 66.7242 22.7483 66.8257L20.5205 76.0512C20.4854 76.1925 20.3989 76.3156 20.2779 76.3962C20.157 76.4769 20.0103 76.5093 19.8667 76.4872L13.7214 75.497C13.6399 75.4839 13.5622 75.4534 13.4934 75.4077C13.4246 75.3619 13.3664 75.3019 13.3227 75.2318C13.279 75.1616 13.2507 75.0828 13.2399 75.0008C13.229 74.9188 13.2358 74.8354 13.2598 74.7562L21.2729 48.2705C21.2957 48.1951 21.2984 48.1151 21.2807 48.0384L21.0139 46.8793C20.9846 46.7537 20.9981 46.6218 21.0523 46.5047C21.1065 46.3876 21.1982 46.2921 21.3129 46.2334C22.404 45.6752 25.1671 44.5148 27.2534 45.786C27.3211 45.8273 27.3797 45.8821 27.4257 45.9469C27.4716 46.0118 27.5039 46.0853 27.5206 46.163L33.7804 75.6594C33.7974 75.7396 33.7973 75.8225 33.78 75.9027C33.7627 75.9828 33.7286 76.0584 33.6801 76.1244C33.6315 76.1903 33.5695 76.2452 33.4982 76.2854C33.4269 76.3256 33.3479 76.3502 33.2664 76.3575L25.7164 77.0353C25.699 77.0368 25.6817 77.0376 25.6646 77.0376C25.5263 77.0373 25.3927 76.9875 25.2879 76.8971C25.1831 76.8068 25.114 76.6818 25.0931 76.5448Z" fill="#1A1A1A"/>
<path d="M30.0886 52.446C30.1637 52.2925 30.2043 52.1244 30.2075 51.9534C30.2107 51.7825 30.1765 51.6129 30.1073 51.4567C30.0381 51.3004 29.9356 51.1613 29.8069 51.0491C29.6783 50.9369 29.5267 50.8543 29.3627 50.8071L25.4188 42.7266L23.3843 44.2455L27.886 51.6867C27.8253 51.9681 27.8696 52.2619 28.0106 52.5127C28.1516 52.7634 28.3794 52.9536 28.6509 53.0472C28.9224 53.1408 29.2187 53.1313 29.4837 53.0205C29.7487 52.9097 29.9639 52.7053 30.0886 52.446Z" fill="#FFB8B8"/>
<path d="M23.1368 44.7497L20.6826 40.3041C20.5341 40.0369 20.4545 39.7367 20.4508 39.4309C20.4472 39.125 20.5196 38.8231 20.6617 38.5524C20.7779 38.3244 20.9422 38.1246 21.1432 37.9669C21.4024 37.7598 21.7125 37.6267 22.0408 37.5816C22.3692 37.5364 22.7036 37.5809 23.0088 37.7103C23.4333 37.8954 23.7756 38.2299 23.9709 38.6506L26.1222 43.1326C26.1753 43.2431 26.184 43.3699 26.1467 43.4868C26.1094 43.6036 26.0288 43.7017 25.9215 43.7608L23.7858 44.9377C23.6748 44.9988 23.5442 45.0132 23.4226 44.978C23.301 44.9427 23.1982 44.8606 23.1368 44.7497Z" fill="white"/>
<path d="M20.7626 30.5388C21.0247 30.4471 21.2689 30.3102 21.4841 30.1344C21.5907 30.0451 21.6727 29.9298 21.7221 29.7996C21.7714 29.6695 21.7866 29.5287 21.766 29.391C21.6818 29.0131 21.2407 28.8067 20.8568 28.8493C20.4729 28.8918 20.1365 29.116 19.8171 29.3337C19.5358 29.5254 19.2456 29.7263 19.0703 30.0186C18.8949 30.3108 18.8682 30.7223 19.1014 30.9706C19.3302 31.2143 19.7313 31.218 20.0309 31.0704C20.3305 30.9227 20.5523 30.6569 20.7647 30.3987L20.7626 30.5388Z" fill="#1A1A1A"/>
<path d="M19.8999 29.4381C20.0644 28.5617 19.2023 27.7284 18.3132 27.7039C17.4242 27.6793 16.613 28.274 16.1152 29.013C15.0634 30.5742 15.1811 32.6312 15.495 34.4888C15.8089 36.3463 16.2768 38.2632 15.7957 40.0844C15.5224 41.0661 14.9897 41.9555 14.2538 42.6588C13.518 43.3621 12.6064 43.853 11.6152 44.0798C12.4909 44.7215 13.7413 44.5093 14.6966 43.9941C16.818 42.85 18.0783 40.2869 17.6915 37.9032C17.5007 36.7275 16.9592 35.6425 16.5961 34.5084C16.233 33.3742 16.0605 32.091 16.5915 31.0254C17.1225 29.9599 18.5739 29.3104 19.5614 29.9728L19.8999 29.4381Z" fill="#1A1A1A"/>
<path d="M22.2552 34.5686C22.0808 34.056 21.9336 33.4001 22.509 33.1043C22.6332 33.0439 22.7683 33.009 22.9062 33.0017C23.0441 32.9944 23.1821 33.0148 23.312 33.0617C23.8531 33.2448 24.4517 33.3989 25.0309 33.3091C25.2469 33.2817 25.4551 33.2111 25.6433 33.1015C25.8315 32.9918 25.9958 32.8454 26.1265 32.6709C26.5409 32.0701 26.3602 31.197 25.8671 30.6592C25.5635 30.3396 25.1725 30.1169 24.7431 30.0191C24.3138 29.9213 23.8652 29.9528 23.4536 30.1097C22.7719 29.6201 21.83 29.5774 21.0525 29.8925C20.2751 30.2075 19.6557 30.843 19.2392 31.5727C18.8654 32.1976 18.6741 32.9151 18.6871 33.6436C18.7134 34.1541 18.862 34.6506 19.1203 35.0913C19.3785 35.532 19.7389 35.9038 20.1709 36.1752C20.3383 36.2854 20.5316 36.3495 20.7315 36.3612C20.9313 36.3729 21.1308 36.3318 21.3098 36.2419C21.3098 36.2419 21.8132 35.9583 22.0398 35.5373C22.2139 35.214 22.3483 34.8425 22.2552 34.5686Z" fill="#1A1A1A"/>
<path d="M49.0855 79.9998H0.128496C0.0944167 79.9998 0.0617332 79.9863 0.0376355 79.9621C0.0135378 79.9379 0 79.9052 0 79.871C0 79.8368 0.0135378 79.8041 0.0376355 79.7799C0.0617332 79.7558 0.0944167 79.7422 0.128496 79.7422H49.0855C49.1195 79.7422 49.1522 79.7558 49.1763 79.7799C49.2004 79.8041 49.214 79.8368 49.214 79.871C49.214 79.9052 49.2004 79.9379 49.1763 79.9621C49.1522 79.9863 49.1195 79.9998 49.0855 79.9998Z" fill="#1A1A1A"/>
<path d="M78.4059 49.5148H62.8395C62.4158 49.5143 62.0095 49.3454 61.7099 49.045C61.4103 48.7446 61.2417 48.3373 61.2412 47.9124V22.8114C61.2417 22.3865 61.4103 21.9792 61.7099 21.6788C62.0095 21.3784 62.4158 21.2095 62.8395 21.209H78.4059V49.5148ZM62.8395 21.4666C62.4839 21.467 62.143 21.6088 61.8915 21.8609C61.6401 22.113 61.4986 22.4548 61.4982 22.8114V47.9124C61.4986 48.269 61.6401 48.6108 61.8915 48.8629C62.143 49.115 62.4839 49.2568 62.8395 49.2572H78.1489V21.4666H62.8395Z" fill="#1A1A1A"/>
<path d="M78.0034 21.209H93.5698C93.9935 21.2095 94.3998 21.3784 94.6994 21.6788C94.9991 21.9792 95.1676 22.3865 95.1681 22.8114V47.9124C95.1676 48.3373 94.9991 48.7446 94.6994 49.045C94.3998 49.3454 93.9935 49.5143 93.5698 49.5148H78.0034V21.209Z" fill="#1A1A1A"/>
<path d="M66.81 14.709H66.6343V22.8999H66.81V14.709Z" fill="#1A1A1A"/>
<path d="M66.7745 14.8847C66.4097 14.8847 66.053 14.7762 65.7496 14.5729C65.4462 14.3697 65.2098 14.0809 65.0701 13.7429C64.9305 13.4049 64.894 13.033 64.9651 12.6743C65.0363 12.3155 65.212 11.9859 65.47 11.7273C65.728 11.4686 66.0568 11.2925 66.4146 11.2211C66.7725 11.1497 67.1434 11.1863 67.4805 11.3263C67.8176 11.4663 68.1057 11.7034 68.3085 12.0075C68.5112 12.3117 68.6194 12.6693 68.6194 13.0351C68.6194 13.5256 68.425 13.9961 68.079 14.3429C67.733 14.6898 67.2638 14.8847 66.7745 14.8847ZM66.7745 11.3617C66.4444 11.3617 66.1217 11.4598 65.8472 11.6437C65.5727 11.8276 65.3588 12.0889 65.2324 12.3947C65.1061 12.7005 65.0731 13.037 65.1375 13.3616C65.2019 13.6862 65.3608 13.9843 65.5943 14.2184C65.8277 14.4524 66.1251 14.6118 66.4489 14.6764C66.7727 14.7409 67.1083 14.7078 67.4133 14.5811C67.7183 14.4545 67.979 14.24 68.1624 13.9648C68.3458 13.6896 68.4437 13.3661 68.4437 13.0351C68.4437 12.5913 68.2678 12.1657 67.9548 11.8518C67.6418 11.538 67.2172 11.3617 66.7745 11.3617Z" fill="#1A1A1A"/>
<path d="M84.7865 3.69922H84.6108V22.6351H84.7865V3.69922Z" fill="#1A1A1A"/>
<path d="M84.7511 3.6991C84.3862 3.6991 84.0295 3.59063 83.7262 3.3874C83.4228 3.18417 83.1863 2.89531 83.0467 2.55735C82.9071 2.21938 82.8705 1.8475 82.9417 1.48872C83.0129 1.12994 83.1886 0.800387 83.4466 0.541722C83.7046 0.283058 84.0333 0.106905 84.3912 0.0355395C84.749 -0.0358258 85.12 0.000801148 85.4571 0.140789C85.7942 0.280777 86.0823 0.51784 86.285 0.821997C86.4877 1.12615 86.5959 1.48375 86.5959 1.84955C86.5959 2.34009 86.4016 2.81052 86.0556 3.15738C85.7096 3.50424 85.2404 3.6991 84.7511 3.6991ZM84.7511 0.17615C84.421 0.17615 84.0983 0.274292 83.8238 0.458168C83.5493 0.642044 83.3353 0.903395 83.209 1.20917C83.0827 1.51494 83.0496 1.85141 83.114 2.17602C83.1784 2.50063 83.3374 2.7988 83.5708 3.03283C83.8043 3.26686 84.1017 3.42624 84.4255 3.4908C84.7492 3.55537 85.0848 3.52223 85.3898 3.39558C85.6948 3.26892 85.9555 3.05444 86.1389 2.77925C86.3223 2.50406 86.4202 2.18052 86.4202 1.84955C86.4202 1.40574 86.2444 0.980103 85.9313 0.666279C85.6183 0.352456 85.1938 0.176151 84.7511 0.17615Z" fill="#1A1A1A"/>
<path d="M78.2134 41.36C76.6615 41.36 75.1731 40.742 74.0757 39.6418C72.9783 38.5416 72.3618 37.0494 72.3618 35.4935C72.3618 33.9376 72.9783 32.4454 74.0757 31.3452C75.1731 30.245 76.6615 29.627 78.2134 29.627V41.36Z" fill="white"/>
<path d="M78.2134 29.627C79.7653 29.627 81.2537 30.245 82.3511 31.3452C83.4485 32.4454 84.065 33.9376 84.065 35.4935C84.065 37.0494 83.4485 38.5416 82.3511 39.6418C81.2537 40.742 79.7653 41.36 78.2134 41.36V29.627Z" fill="#E6E6E6"/>
<path d="M98.5066 52.8172H58.096C57.7 52.8168 57.3204 52.6589 57.0404 52.3782C56.7605 52.0975 56.603 51.7169 56.6025 51.32V19.3137C56.603 18.9167 56.7605 18.5361 57.0404 18.2554C57.3204 17.9747 57.7 17.8169 58.096 17.8164H98.5066C98.9026 17.8169 99.2822 17.9747 99.5622 18.2554C99.8421 18.5361 99.9996 18.9167 100 19.3137V51.32C99.9996 51.7169 99.8421 52.0975 99.5622 52.3782C99.2822 52.6589 98.9026 52.8168 98.5066 52.8172ZM58.096 17.9926C57.7466 17.993 57.4117 18.1323 57.1646 18.3799C56.9176 18.6276 56.7786 18.9634 56.7782 19.3137V51.32C56.7786 51.6702 56.9176 52.006 57.1646 52.2537C57.4117 52.5014 57.7466 52.6407 58.096 52.6411H98.5066C98.856 52.6407 99.1909 52.5014 99.438 52.2537C99.685 52.006 99.824 51.6702 99.8244 51.32V19.3137C99.824 18.9634 99.685 18.6276 99.438 18.3799C99.1909 18.1323 98.856 17.993 98.5066 17.9926H58.096Z" fill="#1A1A1A"/>
<path d="M75.6762 9.5332H75.5005V32.0459H75.6762V9.5332Z" fill="#1A1A1A"/>
<path d="M75.6407 9.6034C75.2759 9.6034 74.9192 9.49493 74.6158 9.2917C74.3124 9.08847 74.076 8.7996 73.9363 8.46164C73.7967 8.12368 73.7602 7.7518 73.8313 7.39302C73.9025 7.03424 74.0782 6.70468 74.3362 6.44602C74.5942 6.18735 74.923 6.0112 75.2808 5.93984C75.6387 5.86847 76.0096 5.9051 76.3467 6.04509C76.6838 6.18508 76.972 6.42214 77.1747 6.7263C77.3774 7.03045 77.4856 7.38804 77.4856 7.75385C77.4856 8.24438 77.2912 8.71482 76.9452 9.06168C76.5993 9.40854 76.13 9.6034 75.6407 9.6034ZM75.6407 6.08045C75.3106 6.08045 74.9879 6.17859 74.7134 6.36247C74.4389 6.54634 74.225 6.80769 74.0987 7.11347C73.9723 7.41924 73.9393 7.75571 74.0037 8.08032C74.0681 8.40492 74.227 8.7031 74.4605 8.93713C74.6939 9.17116 74.9913 9.33053 75.3151 9.3951C75.6389 9.45967 75.9745 9.42653 76.2795 9.29988C76.5845 9.17322 76.8452 8.95874 77.0286 8.68355C77.212 8.40836 77.3099 8.08482 77.3099 7.75385C77.3099 7.31004 77.134 6.8844 76.821 6.57058C76.508 6.25675 76.0834 6.08045 75.6407 6.08045Z" fill="#1A1A1A"/>
<path d="M64.1838 48.0513C64.8225 48.0513 65.3403 47.5322 65.3403 46.8918C65.3403 46.2515 64.8225 45.7324 64.1838 45.7324C63.5451 45.7324 63.0273 46.2515 63.0273 46.8918C63.0273 47.5322 63.5451 48.0513 64.1838 48.0513Z" fill="#1A1A1A"/>
<path d="M92.5813 48.0513C93.22 48.0513 93.7377 47.5322 93.7377 46.8918C93.7377 46.2515 93.22 45.7324 92.5813 45.7324C91.9426 45.7324 91.4248 46.2515 91.4248 46.8918C91.4248 47.5322 91.9426 48.0513 92.5813 48.0513Z" fill="#E6E6E6"/>
<path d="M64.1838 24.9927C64.8225 24.9927 65.3403 24.4736 65.3403 23.8332C65.3403 23.1929 64.8225 22.6738 64.1838 22.6738C63.5451 22.6738 63.0273 23.1929 63.0273 23.8332C63.0273 24.4736 63.5451 24.9927 64.1838 24.9927Z" fill="#1A1A1A"/>
<path d="M92.5813 24.9927C93.22 24.9927 93.7377 24.4736 93.7377 23.8332C93.7377 23.1929 93.22 22.6738 92.5813 22.6738C91.9426 22.6738 91.4248 23.1929 91.4248 23.8332C91.4248 24.4736 91.9426 24.9927 92.5813 24.9927Z" fill="#E6E6E6"/>
<path d="M66.2477 15.4136C67.2181 15.4136 68.0047 14.6249 68.0047 13.6521C68.0047 12.6793 67.2181 11.8906 66.2477 11.8906C65.2774 11.8906 64.4907 12.6793 64.4907 13.6521C64.4907 14.6249 65.2774 15.4136 66.2477 15.4136Z" fill="#F2F2F2"/>
<path d="M84.2238 4.22803C85.1941 4.22803 85.9808 3.43939 85.9808 2.46656C85.9808 1.49372 85.1941 0.705078 84.2238 0.705078C83.2534 0.705078 82.4668 1.49372 82.4668 2.46656C82.4668 3.43939 83.2534 4.22803 84.2238 4.22803Z" fill="#1A1A1A"/>
<path d="M75.1139 10.1304C76.0843 10.1304 76.8709 9.34174 76.8709 8.3689C76.8709 7.39606 76.0843 6.60742 75.1139 6.60742C74.1436 6.60742 73.3569 7.39606 73.3569 8.3689C73.3569 9.34174 74.1436 10.1304 75.1139 10.1304Z" fill="white"/>
</g>
<defs>
<clipPath id="clip0_155_4188">
<rect width="100" height="80" fill="white"/>
</clipPath>
</defs>
</svg>
