<svg width="108" height="68" viewBox="0 0 108 68" fill="none" xmlns="http://www.w3.org/2000/svg">
<g clip-path="url(#clip0_155_4528)">
<path d="M81.5747 54.1506C81.279 52.2127 81.2009 50.2493 81.3417 48.2949L81.5747 45.0605C80.291 47.5457 80.5811 50.8167 81.5747 54.1506Z" fill="#CACACA"/>
<path d="M82.5756 54.692C82.4333 53.5356 82.3958 52.3693 82.4635 51.2065L82.5756 49.2812C81.958 50.7605 82.0976 52.7075 82.5756 54.692Z" fill="#CACACA"/>
<path d="M87.0253 57.0727V58.1548C87.0249 58.2408 86.9896 58.3231 86.9271 58.3839C86.8646 58.4447 86.78 58.479 86.6917 58.4795H86.1356C86.121 58.4794 86.1065 58.4822 86.093 58.4876C86.0794 58.493 86.0672 58.501 86.0568 58.5111C86.0465 58.5211 86.0383 58.5331 86.0327 58.5462C86.0272 58.5594 86.0243 58.5735 86.0244 58.5877V67.4613C86.0239 67.5472 85.9886 67.6296 85.9261 67.6903C85.8637 67.7511 85.7791 67.7855 85.6907 67.7859H78.9063C78.8178 67.7859 78.733 67.7516 78.6705 67.6908C78.6079 67.6299 78.5727 67.5474 78.5726 67.4613V58.5877C78.5726 58.559 78.5608 58.5315 78.54 58.5113C78.5191 58.491 78.4909 58.4796 78.4614 58.4795H77.7941C77.7056 58.4794 77.6208 58.4452 77.5583 58.3843C77.4957 58.3234 77.4605 58.2409 77.4604 58.1548V57.0727C77.4604 57.03 77.469 56.9878 77.4857 56.9484C77.5025 56.909 77.527 56.8732 77.558 56.843C77.589 56.8128 77.6258 56.7889 77.6664 56.7726C77.7069 56.7563 77.7503 56.748 77.7941 56.748H86.6917C86.7801 56.7483 86.8648 56.7826 86.9273 56.8434C86.9898 56.9042 87.0251 56.9867 87.0253 57.0727Z" fill="#F2F2F2"/>
<path d="M86.0342 58.707H78.5825V59.0317H86.0342V58.707Z" fill="#E6E6E6"/>
<path d="M86.0244 63.4842C83.5308 64.4882 81.0101 64.4993 78.4614 63.4842V61.1971C80.9151 60.3953 83.5707 60.3953 86.0244 61.1971V63.4842Z" fill="#E6E6E6"/>
<path d="M50.2134 27.0958C52.4491 27.0958 54.2614 25.3325 54.2614 23.1573C54.2614 20.9821 52.4491 19.2188 50.2134 19.2188C47.9778 19.2188 46.1655 20.9821 46.1655 23.1573C46.1655 25.3325 47.9778 27.0958 50.2134 27.0958Z" fill="#1A1A1A"/>
<path d="M51.3415 19.3265C52.042 19.3266 52.7305 19.5036 53.3397 19.8401C53.949 20.1766 54.458 20.6612 54.8171 21.2465C55.1762 21.8318 55.373 22.4977 55.3884 23.1791C55.4038 23.8606 55.2372 24.5342 54.9049 25.1343C55.2558 24.7071 55.5114 24.2134 55.6554 23.6847C55.7995 23.1561 55.8287 22.604 55.7413 22.0637C55.6539 21.5235 55.4518 21.0068 55.1479 20.5468C54.844 20.0867 54.4449 19.6933 53.976 19.3916C53.5072 19.0899 52.9789 18.8865 52.4248 18.7945C51.8707 18.7024 51.303 18.7237 50.7578 18.8569C50.2126 18.9901 49.702 19.2324 49.2583 19.5682C48.8147 19.9041 48.4479 20.3262 48.1812 20.8076C48.5595 20.3454 49.0402 19.9722 49.5874 19.7157C50.1346 19.4593 50.7341 19.3263 51.3415 19.3265Z" fill="#1A1A1A"/>
<path d="M42.6496 23.1487C49.2166 23.1487 54.5403 17.9689 54.5403 11.5792C54.5403 5.1896 49.2166 0.00976562 42.6496 0.00976562C36.0825 0.00976562 30.7588 5.1896 30.7588 11.5792C30.7588 17.9689 36.0825 23.1487 42.6496 23.1487Z" fill="#1A1A1A"/>
<path d="M33.317 4.40053C35.3659 2.15855 38.2298 0.77879 41.3045 0.552457C44.3791 0.326124 47.4238 1.27092 49.7961 3.18745C49.6988 3.09752 49.6026 3.00686 49.5016 2.91947C47.1444 0.882358 44.0522 -0.160536 40.905 0.0200928C37.7577 0.200721 34.813 1.59008 32.7183 3.8827C30.6236 6.17531 29.5504 9.18348 29.7347 12.2458C29.919 15.3081 31.3457 18.1738 33.7011 20.2129C33.8021 20.3003 33.9059 20.3827 34.0091 20.4661C31.775 18.3983 30.454 15.5669 30.3249 12.5694C30.1958 9.57198 31.2686 6.64294 33.317 4.40053Z" fill="#1A1A1A"/>
<path d="M42.5486 23.0495C46.7782 23.0495 50.2071 19.7134 50.2071 15.598C50.2071 11.4826 46.7782 8.14648 42.5486 8.14648C38.3189 8.14648 34.8901 11.4826 34.8901 15.598C34.8901 19.7134 38.3189 23.0495 42.5486 23.0495Z" fill="#FFB8B8"/>
<path d="M46.4607 25.0723L38.2651 25.4307C38.2651 25.4307 38.9492 29.5546 34.5153 29.9468C30.0815 30.339 26.0507 29.1624 24.4384 32.1038C22.8261 35.0452 23.521 45.5187 23.521 45.5187C23.521 45.5187 26.5441 56.1078 28.9626 57.6765C31.381 59.2453 52.5425 57.0882 52.5425 57.0882L61.3988 46.2079L61.0988 37.817C60.9422 33.4353 56.8306 30.1455 52.4022 30.9564C52.3152 30.9723 52.2276 30.9895 52.1395 31.0079C52.1395 31.0079 51.1666 30.3004 48.4973 29.0018C46.865 28.2077 46.4607 25.0723 46.4607 25.0723Z" fill="#CACACA"/>
<path d="M28.6709 29.7514C28.6709 29.7514 30.6188 33.1903 29.8126 38.0926C29.0065 42.9949 32.3889 53.3632 32.3889 53.3632L34.8074 52.7749C34.8074 52.7749 33.1951 42.5781 33.5982 40.225C34.0012 37.8719 34.1124 30.928 32.0971 29.7514C30.0817 28.5749 28.6709 29.7514 28.6709 29.7514Z" fill="#1A1A1A"/>
<path d="M51.998 31.5541L52.8452 53.2648L54.4575 54.2452C54.4575 54.2452 56.7752 30.4199 55.5659 30.4199H53.1055C52.9599 30.4199 52.8157 30.4478 52.6811 30.5021C52.5466 30.5563 52.4243 30.6357 52.3214 30.7359C52.2184 30.8361 52.1367 30.9551 52.081 31.086C52.0253 31.2169 51.9966 31.3572 51.9966 31.4989C51.9966 31.5173 51.9971 31.5357 51.998 31.5541Z" fill="#1A1A1A"/>
<path d="M33.4974 52.873C34.054 52.873 34.5051 52.4341 34.5051 51.8926C34.5051 51.3511 34.054 50.9121 33.4974 50.9121C32.9409 50.9121 32.4897 51.3511 32.4897 51.8926C32.4897 52.4341 32.9409 52.873 33.4974 52.873Z" fill="white"/>
<path d="M53.6512 53.8535C54.2078 53.8535 54.6589 53.4145 54.6589 52.873C54.6589 52.3315 54.2078 51.8926 53.6512 51.8926C53.0947 51.8926 52.6436 52.3315 52.6436 52.873C52.6436 53.4145 53.0947 53.8535 53.6512 53.8535Z" fill="white"/>
<path d="M35.9985 6.2832V13.7347H37.7722L40.0294 11.3816L39.7271 13.7347H47.5668L47.0831 11.3816L48.0505 13.7347H49.3001V6.2832H35.9985Z" fill="#1A1A1A"/>
<path d="M34.7897 15.1082C35.1236 15.1082 35.3943 14.6253 35.3943 14.0297C35.3943 13.434 35.1236 12.9512 34.7897 12.9512C34.4558 12.9512 34.1851 13.434 34.1851 14.0297C34.1851 14.6253 34.4558 15.1082 34.7897 15.1082Z" fill="#FFB8B8"/>
<path d="M50.3077 15.1082C50.6417 15.1082 50.9124 14.6253 50.9124 14.0297C50.9124 13.434 50.6417 12.9512 50.3077 12.9512C49.9738 12.9512 49.7031 13.434 49.7031 14.0297C49.7031 14.6253 49.9738 15.1082 50.3077 15.1082Z" fill="#FFB8B8"/>
<path d="M67.0822 65.8436V66.5005C67.0825 66.6807 67.0482 66.8595 66.981 67.0275C66.9511 67.1023 66.915 67.1747 66.8731 67.2439C66.7405 67.4604 66.5524 67.6396 66.3272 67.7641C66.102 67.8885 65.8475 67.9539 65.5885 67.9538H15.9234C15.6644 67.9539 15.4098 67.8885 15.1846 67.7641C14.9594 67.6396 14.7713 67.4604 14.6388 67.2439C14.5969 67.1747 14.5608 67.1023 14.5309 67.0275C14.4636 66.8595 14.4293 66.6807 14.4297 66.5005V65.8436C14.4296 65.6528 14.4682 65.4639 14.5432 65.2876C14.6182 65.1113 14.7282 64.9511 14.8668 64.8161C15.0054 64.6812 15.17 64.5741 15.3511 64.501C15.5323 64.428 15.7265 64.3903 15.9226 64.3903H18.7862V64.084C18.7861 64.0761 18.7877 64.0682 18.7909 64.0609C18.794 64.0535 18.7985 64.0469 18.8043 64.0412C18.8101 64.0356 18.8169 64.0311 18.8245 64.0281C18.832 64.025 18.8401 64.0235 18.8482 64.0234H20.3421C20.3586 64.0234 20.3744 64.0298 20.3861 64.0411C20.3978 64.0524 20.4044 64.0678 20.4044 64.0838V64.3903H21.3375V64.084C21.3375 64.0761 21.3391 64.0682 21.3422 64.0609C21.3453 64.0535 21.3499 64.0469 21.3557 64.0412C21.3614 64.0356 21.3683 64.0311 21.3758 64.0281C21.3834 64.025 21.3915 64.0235 21.3996 64.0234H22.8935C22.91 64.0234 22.9258 64.0298 22.9375 64.0411C22.9492 64.0524 22.9558 64.0678 22.9558 64.0838V64.3903H23.89V64.084C23.89 64.0761 23.8916 64.0682 23.8947 64.0609C23.8978 64.0535 23.9024 64.0469 23.9082 64.0412C23.9139 64.0356 23.9208 64.0311 23.9283 64.0281C23.9359 64.025 23.9439 64.0235 23.9521 64.0234H25.446C25.4625 64.0234 25.4783 64.0298 25.49 64.0411C25.5017 64.0524 25.5082 64.0678 25.5083 64.0838V64.3903H26.4414V64.084C26.4414 64.0761 26.443 64.0682 26.4461 64.0609C26.4492 64.0535 26.4538 64.0469 26.4595 64.0412C26.4653 64.0356 26.4722 64.0311 26.4797 64.0281C26.4872 64.025 26.4953 64.0235 26.5035 64.0234H27.9974C28.0139 64.0234 28.0297 64.0298 28.0414 64.0411C28.053 64.0524 28.0596 64.0678 28.0596 64.0838V64.3903H28.9928V64.084C28.9928 64.0761 28.9944 64.0682 28.9975 64.0609C29.0006 64.0535 29.0052 64.0469 29.0109 64.0412C29.0167 64.0356 29.0235 64.0311 29.0311 64.0281C29.0386 64.025 29.0467 64.0235 29.0549 64.0234H30.5487C30.5652 64.0234 30.5811 64.0298 30.5927 64.0411C30.6044 64.0524 30.611 64.0678 30.611 64.0838V64.3903H31.5453V64.0841C31.5453 64.0761 31.5469 64.0682 31.55 64.0609C31.5531 64.0535 31.5576 64.0469 31.5634 64.0412C31.5692 64.0356 31.576 64.0311 31.5836 64.0281C31.5911 64.025 31.5992 64.0235 31.6073 64.0235H33.1012C33.1177 64.0234 33.1335 64.0298 33.1452 64.0411C33.1569 64.0524 33.1635 64.0678 33.1635 64.0839V64.3903H34.0966V64.0841C34.0966 64.0761 34.0982 64.0682 34.1013 64.0609C34.1045 64.0535 34.109 64.0469 34.1148 64.0412C34.1206 64.0356 34.1274 64.0311 34.1349 64.0281C34.1425 64.025 34.1506 64.0235 34.1587 64.0235H45.8592C45.8674 64.0234 45.8755 64.025 45.883 64.028C45.8906 64.031 45.8975 64.0355 45.9032 64.0411C45.909 64.0467 45.9136 64.0534 45.9167 64.0607C45.9199 64.068 45.9215 64.0759 45.9215 64.0839V64.3903H46.8558V64.0841C46.8558 64.0761 46.8573 64.0682 46.8605 64.0609C46.8636 64.0535 46.8681 64.0469 46.8739 64.0412C46.8797 64.0356 46.8865 64.0311 46.8941 64.0281C46.9016 64.025 46.9097 64.0235 46.9178 64.0235H48.4117C48.4282 64.0236 48.4439 64.03 48.4556 64.0414C48.4672 64.0527 48.4739 64.068 48.474 64.0841V64.3903H49.4071V64.0841C49.4071 64.0761 49.4087 64.0682 49.4118 64.0609C49.4149 64.0535 49.4195 64.0469 49.4253 64.0412C49.431 64.0356 49.4379 64.0311 49.4454 64.0281C49.453 64.025 49.4611 64.0235 49.4692 64.0235H50.9631C50.9713 64.0234 50.9794 64.025 50.9869 64.028C50.9945 64.031 51.0013 64.0355 51.0071 64.0411C51.0129 64.0467 51.0175 64.0534 51.0206 64.0607C51.0238 64.068 51.0254 64.0759 51.0254 64.0839V64.3903H51.9585V64.0841C51.9585 64.0761 51.9601 64.0682 51.9632 64.0609C51.9663 64.0535 51.9709 64.0469 51.9767 64.0412C51.9824 64.0356 51.9893 64.0312 51.9968 64.0281C52.0043 64.025 52.0124 64.0235 52.0206 64.0235H53.5145C53.5226 64.0234 53.5307 64.025 53.5383 64.028C53.5458 64.031 53.5527 64.0355 53.5585 64.0411C53.5643 64.0467 53.5689 64.0534 53.572 64.0607C53.5751 64.068 53.5767 64.0759 53.5768 64.0839V64.3903H54.511V64.0841C54.511 64.0761 54.5126 64.0682 54.5157 64.0609C54.5188 64.0535 54.5234 64.0469 54.5291 64.0412C54.5349 64.0356 54.5418 64.0312 54.5493 64.0281C54.5568 64.025 54.5649 64.0235 54.5731 64.0235H56.067C56.0833 64.0237 56.0989 64.0301 56.1104 64.0415C56.1218 64.0528 56.1282 64.0681 56.1281 64.0841V64.3903H57.0624V64.0841C57.0624 64.0761 57.064 64.0682 57.0671 64.0609C57.0702 64.0535 57.0748 64.0469 57.0805 64.0412C57.0863 64.0356 57.0931 64.0312 57.1007 64.0281C57.1082 64.025 57.1163 64.0235 57.1245 64.0235H58.6183C58.6265 64.0234 58.6346 64.025 58.6421 64.028C58.6497 64.031 58.6566 64.0355 58.6623 64.0411C58.6681 64.0467 58.6727 64.0534 58.6759 64.0607C58.679 64.0681 58.6806 64.0759 58.6806 64.0839V64.3903H59.6138V64.0841C59.6138 64.0761 59.6153 64.0682 59.6185 64.0609C59.6216 64.0536 59.6261 64.0469 59.6319 64.0413C59.6377 64.0356 59.6445 64.0312 59.6521 64.0281C59.6596 64.025 59.6677 64.0235 59.6758 64.0235H61.1697C61.1779 64.0234 61.186 64.025 61.1935 64.028C61.2011 64.0311 61.2079 64.0355 61.2137 64.0411C61.2195 64.0467 61.2241 64.0534 61.2272 64.0607C61.2304 64.0681 61.232 64.0759 61.232 64.0839V64.3903H65.5885C65.9845 64.3902 66.3644 64.5432 66.6445 64.8156C66.9246 65.088 67.082 65.4575 67.0822 65.8428L67.0822 65.8436Z" fill="#1A1A1A"/>
<path d="M108 67.7832H0V67.9996H108V67.7832Z" fill="#1A1A1A"/>
<path d="M63.0832 38.1797H17.5896C17.4251 38.1797 17.2623 38.2112 17.1104 38.2724C16.9585 38.3337 16.8204 38.4234 16.7042 38.5365C16.5879 38.6497 16.4956 38.784 16.4327 38.9318C16.3698 39.0796 16.3374 39.238 16.3374 39.398V64.0614C16.3374 64.3845 16.4693 64.6944 16.7042 64.9229C16.939 65.1514 17.2575 65.2797 17.5896 65.2797H63.0832C63.4153 65.2797 63.7338 65.1514 63.9687 64.9229C64.2035 64.6944 64.3354 64.3845 64.3354 64.0614V39.398C64.3354 39.0749 64.2035 38.765 63.9687 38.5365C63.7338 38.308 63.4153 38.1797 63.0832 38.1797Z" fill="#1A1A1A"/>
<path d="M40.3728 49.4947C41.9084 49.4947 43.1533 48.2835 43.1533 46.7893C43.1533 45.2952 41.9084 44.084 40.3728 44.084C38.8372 44.084 37.5923 45.2952 37.5923 46.7893C37.5923 48.2835 38.8372 49.4947 40.3728 49.4947Z" fill="white"/>
<path d="M57.5854 28.9172L71.622 15.152H78.2488V14.9355H71.5291L71.4965 14.9677L57.4272 28.765L57.5854 28.9172Z" fill="#1A1A1A"/>
<path d="M102.606 9.5H86.3428V10.91H102.606V9.5Z" fill="white"/>
<path d="M84.3608 11.803H80.918V8.45312H84.3608V11.803ZM81.1404 11.5865H84.1383V8.66955H81.1404L81.1404 11.5865Z" fill="#1A1A1A"/>
<path d="M102.606 14.2012H86.3428V15.6112H102.606V14.2012Z" fill="white"/>
<path d="M84.3608 16.5021H80.918V13.1523H84.3608V16.5021ZM81.1404 16.2857H84.1383V13.3688H81.1404L81.1404 16.2857Z" fill="#1A1A1A"/>
<path d="M102.606 18.9004H86.3428V20.3104H102.606V18.9004Z" fill="white"/>
<path d="M84.3608 21.2013H80.918V17.8516H84.3608V21.2013ZM81.1404 20.9849H84.1383V18.068H81.1404L81.1404 20.9849Z" fill="#1A1A1A"/>
</g>
<defs>
<clipPath id="clip0_155_4528">
<rect width="108" height="68" fill="white"/>
</clipPath>
</defs>
</svg>
