<svg width="78" height="82" viewBox="0 0 78 82" fill="none" xmlns="http://www.w3.org/2000/svg">
<g clip-path="url(#clip0_155_4306)">
<path d="M29.8598 13.0481C31.902 13.0481 33.5575 11.4056 33.5575 9.3795C33.5575 7.35341 31.902 5.71094 29.8598 5.71094C27.8176 5.71094 26.1621 7.35341 26.1621 9.3795C26.1621 11.4056 27.8176 13.0481 29.8598 13.0481Z" fill="#884FCE"/>
<path d="M38.1354 7.64262C38.0311 7.30338 37.8291 7.0018 37.5543 6.77501C37.2794 6.54822 36.9437 6.40612 36.5885 6.36621C36.5802 6.36552 36.5719 6.36552 36.5636 6.36621C36.5536 6.36312 36.5434 6.36083 36.5331 6.35934C35.295 6.19997 33.9185 6.58742 32.992 7.43103C32.6481 7.73926 32.373 8.11556 32.1846 8.53569C32.0129 8.30295 31.7865 8.11525 31.5252 7.98884C31.2639 7.86244 30.9754 7.80113 30.6848 7.81024C30.3101 7.83482 29.952 7.97348 29.6596 8.20731C29.3672 8.44114 29.1545 8.75876 29.0507 9.11687C29.0393 9.16062 29.0424 9.20686 29.0596 9.2487C29.0769 9.29054 29.1072 9.32575 29.1462 9.34907C29.2576 9.44358 29.3901 9.51045 29.5326 9.54417C29.8387 9.60875 30.1475 9.66783 30.4563 9.72141C31.0601 9.82583 31.6672 9.91056 32.2774 9.97559C32.6804 10.0182 33.0843 10.0521 33.4892 10.0773C34.3256 10.1295 35.1663 10.1418 36.0041 10.1157C36.4196 10.102 36.8184 10.0883 37.1978 9.90689C37.4744 9.77198 37.7106 9.56788 37.8834 9.31472C38.046 9.07121 38.1528 8.7953 38.1963 8.50641C38.2399 8.21752 38.2191 7.92267 38.1354 7.64262Z" fill="#E6E6E6"/>
<path d="M30.5282 12.9873C30.5212 12.8336 30.4951 12.6813 30.4506 12.5339C30.3459 12.1947 30.1435 11.8932 29.8685 11.6665C29.5935 11.4397 29.2577 11.2976 28.9024 11.2575C28.8945 11.2568 28.8867 11.2568 28.8788 11.2575C28.8684 11.2546 28.8577 11.2523 28.847 11.2506C28.1618 11.1674 27.4664 11.2383 26.8126 11.4581C25.8072 11.792 24.925 12.4652 24.4999 13.427C24.328 13.1941 24.1014 13.0063 23.8398 12.8799C23.5782 12.7535 23.2895 12.6923 22.9987 12.7015C22.6239 12.7261 22.2659 12.8648 21.9735 13.0986C21.681 13.3324 21.4684 13.65 21.3645 14.0082C21.3538 14.0519 21.3572 14.0979 21.3744 14.1396C21.3915 14.1813 21.4215 14.2166 21.4601 14.2404C21.5717 14.3346 21.704 14.4014 21.8465 14.4355C22.1539 14.5 22.4614 14.5591 22.7716 14.6127C23.3754 14.7171 23.9819 14.8018 24.5913 14.8669C25.8292 14.9987 27.0749 15.0455 28.3193 15.007C28.7334 14.9933 29.1336 14.9795 29.5131 14.7982C29.7892 14.6632 30.025 14.4591 30.1972 14.206C30.44 13.8471 30.5563 13.4186 30.5282 12.9873Z" fill="#E6E6E6"/>
<path d="M57.9053 59.2834H54.5346V7.07724C54.3075 6.91099 54.079 6.74612 53.8477 6.58537C53.802 6.55376 53.7563 6.52216 53.7106 6.49056C51.0446 4.64049 48.1607 3.12062 45.123 1.96476L44.4694 10.9092L44.4693 10.9097H40.2636V0.465771C39.9893 0.398447 39.7152 0.335244 39.4382 0.276164V10.9097H23.5565V0C23.281 0.0508363 23.0054 0.103047 22.7312 0.159379V10.9097H18.3869L18.3868 10.9092L17.7013 1.52921C14.7451 2.54585 11.9199 3.90443 9.28413 5.57688C9.19272 5.63459 9.10133 5.69229 9.00992 5.75275C8.82574 5.87091 8.64155 5.99182 8.46013 6.1141V59.2834H3.7142C3.107 59.283 2.50898 59.4304 1.97257 59.7127C1.43616 59.995 0.977741 60.4035 0.637498 60.9025C0.297255 61.4014 0.085579 61.9756 0.0210328 62.5746C-0.0435134 63.1736 0.0410391 63.7791 0.267277 64.3382C0.335156 64.5072 0.416184 64.6707 0.509628 64.8273C0.630317 65.0315 0.770363 65.2238 0.92786 65.4016C1.27576 65.795 1.70429 66.1101 2.1848 66.3259C2.66531 66.5418 3.18674 66.6534 3.71421 66.6533H57.9053C58.8904 66.6533 59.8351 66.265 60.5317 65.574C61.2282 64.8829 61.6196 63.9456 61.6196 62.9683C61.6196 61.991 61.2282 61.0537 60.5317 60.3627C59.8351 59.6716 58.8904 59.2834 57.9053 59.2834ZM43.5637 23.3273L40.9421 59.2834H21.9141L19.2926 23.3273H43.5637ZM44.4098 11.7285L43.7631 20.5982H40.2636V11.7285H44.4098ZM39.4382 11.7285V20.5982H33.1187C32.9922 20.3518 32.7994 20.145 32.5618 20.0005C32.3242 19.856 32.051 19.7795 31.7723 19.7794H30.947C30.6683 19.7795 30.3951 19.856 30.1575 20.0005C29.9198 20.145 29.7271 20.3518 29.6006 20.5982H23.5565V11.7285H39.4382ZM22.7312 20.5982H19.0931L18.4464 11.7285H22.7312V20.5982Z" fill="#F2F2F2"/>
<path d="M0.328125 65.2246C1.53119 66.6389 2.83244 67.968 4.22236 69.2022L56.789 69.3396C58.179 68.1054 59.4802 66.7763 60.6833 65.362L0.328125 65.2246Z" fill="#1A1A1A"/>
<path d="M26.8745 51.9246V66.0159H36.8248V51.9246C36.8249 51.8233 36.7923 51.7246 36.7318 51.643C36.6712 51.5613 36.5858 51.5012 36.4882 51.4712C36.4422 51.4562 36.394 51.4487 36.3456 51.4492H27.3551C27.292 51.4491 27.2296 51.4613 27.1713 51.4852C27.1131 51.509 27.0601 51.544 27.0155 51.5881C26.9709 51.6323 26.9354 51.6847 26.9112 51.7425C26.8871 51.8002 26.8746 51.8621 26.8745 51.9246ZM30.7577 56.7665C30.7603 56.4887 30.8734 56.2232 31.0723 56.0277C31.2712 55.8322 31.5399 55.7225 31.8199 55.7225C32.0999 55.7225 32.3685 55.8322 32.5674 56.0277C32.7663 56.2232 32.8794 56.4887 32.8821 56.7665V58.4015C32.8806 58.68 32.7681 58.9467 32.569 59.1431C32.37 59.3396 32.1006 59.4499 31.8199 59.4499C31.5391 59.4499 31.2697 59.3396 31.0707 59.1431C30.8716 58.9467 30.7591 58.68 30.7577 58.4015V56.7665Z" fill="#1A1A1A"/>
<path d="M26.8438 65.5645V66.9233C26.844 66.9937 26.8722 67.0611 26.9222 67.111C26.9722 67.1609 27.0401 67.1893 27.111 67.1898H36.5877C36.6587 67.1895 36.7267 67.1613 36.7767 67.1113C36.8268 67.0614 36.8549 66.9938 36.8549 66.9233V65.5645H26.8438Z" fill="#1A1A1A"/>
<path d="M11.2212 30.6942V56.4228C11.2215 56.7507 11.3529 57.0651 11.5865 57.2969C11.8202 57.5288 12.1371 57.6591 12.4676 57.6594H50.8976C51.228 57.6591 51.5449 57.5288 51.7786 57.2969C52.0123 57.0651 52.1437 56.7507 52.1439 56.4228V30.6942C52.1432 30.3666 52.0115 30.0527 51.7779 29.8211C51.5443 29.5896 51.2278 29.4594 50.8976 29.459H12.4676C12.1374 29.4594 11.8208 29.5896 11.5872 29.8211C11.3536 30.0527 11.222 30.3666 11.2212 30.6942Z" fill="#1A1A1A"/>
<path d="M12.123 31.0138V56.105C12.1234 56.2802 12.1936 56.4481 12.3185 56.5719C12.4433 56.6958 12.6126 56.7655 12.7892 56.7658H50.578C50.7545 56.7655 50.9238 56.6958 51.0487 56.5719C51.1735 56.4481 51.2438 56.2802 51.2441 56.105V31.0138C51.2441 30.8384 51.1739 30.6702 51.0491 30.546C50.9242 30.4219 50.7548 30.3519 50.578 30.3516H12.7892C12.6124 30.3519 12.443 30.4219 12.3181 30.546C12.1932 30.6702 12.1231 30.8384 12.123 31.0138Z" fill="white"/>
<path d="M19.8284 67.5096C19.8668 67.5575 19.9157 67.5961 19.9714 67.6225C20.027 67.6489 20.088 67.6624 20.1497 67.6621H42.6316C42.693 67.6621 42.7537 67.6484 42.8092 67.6221C42.8647 67.5958 42.9136 67.5576 42.9523 67.5102C42.9911 67.4629 43.0187 67.4075 43.0331 67.3482C43.0476 67.2889 43.0485 67.2272 43.0359 67.1675L42.6869 65.5229C42.6725 65.4558 42.6413 65.3934 42.5963 65.3413C42.5514 65.2893 42.494 65.2492 42.4294 65.2247C42.3826 65.2065 42.3328 65.1972 42.2826 65.1973H20.4973C20.447 65.1972 20.3972 65.2065 20.3505 65.2247C20.2859 65.2492 20.2285 65.2893 20.1835 65.3413C20.1385 65.3934 20.1073 65.4558 20.0929 65.5229L19.7439 67.1675C19.7315 67.2272 19.7326 67.2888 19.7472 67.348C19.7618 67.4072 19.7896 67.4624 19.8284 67.5096Z" fill="#1A1A1A"/>
<path d="M20.4973 65.541C20.4905 65.5409 20.4837 65.5421 20.4773 65.5445C20.4663 65.5482 20.4564 65.5546 20.4485 65.5631C20.4406 65.5715 20.4349 65.5818 20.4319 65.5929L20.0827 67.2385C20.0809 67.248 20.0812 67.2578 20.0836 67.2672C20.0861 67.2766 20.0906 67.2853 20.0968 67.2928L20.0984 67.2947C20.1044 67.3025 20.1122 67.3087 20.1211 67.3129C20.13 67.3171 20.1399 67.3192 20.1497 67.3188H42.6316C42.6414 67.319 42.6512 67.3169 42.66 67.3127C42.6689 67.3085 42.6767 67.3024 42.6829 67.2948C42.6894 67.2875 42.6942 67.2787 42.6967 67.2692C42.6993 67.2598 42.6996 67.2498 42.6976 67.2402L42.3482 65.5938C42.3456 65.583 42.3405 65.573 42.3331 65.5647C42.3258 65.5563 42.3166 65.5499 42.3062 65.5459C42.2987 65.5427 42.2907 65.5411 42.2826 65.541H20.4973Z" fill="white"/>
<path d="M14.0037 33.8083H49.3626C49.3993 33.8075 49.4343 33.7924 49.46 33.7664C49.4857 33.7403 49.5001 33.7053 49.5001 33.6688C49.5001 33.6323 49.4857 33.5973 49.46 33.5712C49.4343 33.5452 49.3993 33.5301 49.3626 33.5293H14.0037C13.967 33.5301 13.932 33.5452 13.9063 33.5712C13.8806 33.5973 13.8662 33.6323 13.8662 33.6688C13.8662 33.7053 13.8806 33.7403 13.9063 33.7664C13.932 33.7924 13.967 33.8075 14.0037 33.8083Z" fill="#1A1A1A"/>
<path d="M46.9559 32.8161C47.411 32.8161 47.7799 32.4419 47.7799 31.9803C47.7799 31.5187 47.411 31.1445 46.9559 31.1445C46.5008 31.1445 46.1318 31.5187 46.1318 31.9803C46.1318 32.4419 46.5008 32.8161 46.9559 32.8161Z" fill="#1A1A1A"/>
<path d="M44.1092 32.8161C44.5643 32.8161 44.9333 32.4419 44.9333 31.9803C44.9333 31.5187 44.5643 31.1445 44.1092 31.1445C43.6541 31.1445 43.2852 31.5187 43.2852 31.9803C43.2852 32.4419 43.6541 32.8161 44.1092 32.8161Z" fill="#1A1A1A"/>
<path d="M41.2625 32.8161C41.7176 32.8161 42.0866 32.4419 42.0866 31.9803C42.0866 31.5187 41.7176 31.1445 41.2625 31.1445C40.8074 31.1445 40.4385 31.5187 40.4385 31.9803C40.4385 32.4419 40.8074 32.8161 41.2625 32.8161Z" fill="#1A1A1A"/>
<path d="M15.5674 31.5041C15.5673 31.5238 15.5711 31.5434 15.5787 31.5617C15.5862 31.58 15.5973 31.5966 15.6113 31.6107C15.6253 31.6247 15.642 31.6359 15.6604 31.6435C15.6787 31.6511 15.6984 31.6551 15.7183 31.6552H17.7402C17.7802 31.6543 17.8182 31.6379 17.8462 31.6095C17.8741 31.5811 17.8897 31.543 17.8897 31.5034C17.8897 31.4637 17.8741 31.4256 17.8462 31.3973C17.8182 31.3689 17.7802 31.3525 17.7402 31.3516H15.7183C15.678 31.352 15.6394 31.3684 15.6112 31.3969C15.5829 31.4255 15.5671 31.464 15.5674 31.5041Z" fill="#1A1A1A"/>
<path d="M15.5674 32.0744C15.5673 32.0941 15.5711 32.1137 15.5787 32.132C15.5862 32.1503 15.5973 32.1669 15.6113 32.181C15.6253 32.195 15.642 32.2062 15.6604 32.2138C15.6787 32.2215 15.6984 32.2254 15.7183 32.2255H17.7402C17.7802 32.2246 17.8183 32.2083 17.8463 32.1799C17.8743 32.1515 17.8899 32.1134 17.8899 32.0737C17.8899 32.034 17.8743 31.9959 17.8463 31.9675C17.8183 31.9391 17.7802 31.9228 17.7402 31.9219H15.7183C15.678 31.9224 15.6394 31.9387 15.6112 31.9672C15.5829 31.9958 15.5671 32.0343 15.5674 32.0744Z" fill="#1A1A1A"/>
<path d="M15.5674 32.6433C15.5671 32.6834 15.5829 32.7219 15.6112 32.7505C15.6394 32.779 15.678 32.7953 15.7183 32.7958H17.7402C17.7802 32.7949 17.8182 32.7785 17.8462 32.7501C17.8741 32.7218 17.8897 32.6837 17.8897 32.644C17.8897 32.6043 17.8741 32.5663 17.8462 32.5379C17.8182 32.5095 17.7802 32.4931 17.7402 32.4922H15.7183C15.6984 32.4923 15.6787 32.4963 15.6604 32.5039C15.642 32.5115 15.6253 32.5227 15.6113 32.5367C15.5973 32.5508 15.5862 32.5674 15.5787 32.5857C15.5711 32.604 15.5673 32.6236 15.5674 32.6433Z" fill="#1A1A1A"/>
<path d="M44.0944 38.0664H19.2724C18.9463 38.0668 18.6337 38.1955 18.4031 38.4242C18.1726 38.653 18.0429 38.9631 18.0425 39.2867V51.2726C18.0428 51.5961 18.1725 51.9063 18.4031 52.1351C18.6337 52.3639 18.9463 52.4925 19.2724 52.4929H44.0944C44.4205 52.4925 44.7331 52.3639 44.9637 52.1351C45.1943 51.9063 45.3239 51.5961 45.3243 51.2726V39.2867C45.3239 38.9631 45.1942 38.653 44.9636 38.4242C44.7331 38.1955 44.4204 38.0668 44.0944 38.0664ZM45.0473 39.2867V42.7836H36.3227V38.3412H44.0944C44.347 38.3415 44.5893 38.4412 44.7679 38.6184C44.9466 38.7957 45.0471 39.036 45.0473 39.2867ZM27.3211 47.5009V43.0584H36.0457V47.5009H27.3211ZM36.0457 47.7757V52.2181H27.3211V47.7757H36.0457ZM27.0441 47.5009H18.3195V43.0584H27.0441V47.5009ZM27.3211 42.7836V38.3412H36.0457V42.7836H27.3211ZM36.3227 43.0584H45.0473V47.5009H36.3227V43.0584ZM19.2724 38.3412H27.0441V42.7836H18.3195V39.2867C18.3197 39.036 18.4202 38.7957 18.5989 38.6184C18.7775 38.4412 19.0198 38.3415 19.2724 38.3412ZM18.3195 51.2726V47.7757H27.0441V52.2181H19.2724C19.0198 52.2179 18.7775 52.1181 18.5989 51.9409C18.4202 51.7636 18.3197 51.5233 18.3195 51.2726ZM44.0944 52.2181H36.3227V47.7757H45.0473V51.2726C45.0471 51.5233 44.9466 51.7636 44.7679 51.9409C44.5893 52.1181 44.347 52.2179 44.0944 52.2181Z" fill="#1A1A1A"/>
<path d="M30.4217 41.109C30.2014 40.7475 29.9404 40.3616 29.5316 40.2436C29.0582 40.1069 28.5719 40.3784 28.1594 40.6463C26.9259 41.4476 25.738 42.316 24.6011 43.2475L24.6023 43.2615L27.2576 43.0798C27.8971 43.0361 28.5586 42.9863 29.1237 42.6861C29.3382 42.5723 29.5472 42.4201 29.7902 42.4095C30.0921 42.3964 30.3554 42.6055 30.5622 42.8241C31.786 44.117 32.1401 46.094 33.513 47.2299C32.6473 45.1117 31.6136 43.065 30.4217 41.109Z" fill="white"/>
<path d="M37.9438 52.0745C37.8085 51.905 37.7532 51.8653 37.6197 51.6942C36.5328 50.2995 35.5112 48.8577 34.5549 47.3688C33.9054 46.3576 33.288 45.327 32.7029 44.277C32.4243 43.7778 32.1534 43.2747 31.8901 42.7676C31.6858 42.3745 31.486 41.979 31.2908 41.5812C31.235 41.4675 31.1808 41.3534 31.1268 41.239C30.9996 40.9699 30.8748 40.6995 30.7408 40.4341C30.6023 40.1155 30.3903 39.8337 30.1218 39.6113C29.9942 39.515 29.8416 39.4567 29.6818 39.4433C29.4568 39.4446 29.2365 39.5072 29.0449 39.6244C27.5948 40.3807 26.2413 41.3067 25.0133 42.3826C23.7835 43.4542 22.6842 44.6648 21.7379 45.9898C21.7089 46.0308 21.6405 45.9917 21.6697 45.9504C21.7848 45.789 21.9021 45.6293 22.0217 45.4713C23.5092 43.5086 25.333 41.8208 27.4098 40.4851C27.7593 40.2604 28.1152 40.0463 28.4778 39.8427C28.6605 39.7401 28.844 39.6387 29.0307 39.5436C29.2096 39.4396 29.4102 39.3779 29.6171 39.3634C30.3285 39.3524 30.6969 40.1518 30.9499 40.6896C31.0294 40.8589 31.1099 41.0276 31.1913 41.1959C31.4991 41.8346 31.8188 42.4674 32.1502 43.0944C32.3548 43.4816 32.5639 43.8664 32.7774 44.249C33.442 45.4405 34.1483 46.6078 34.8964 47.751C35.8875 49.2653 36.8706 50.603 37.9997 52.0191C38.0307 52.0583 37.9752 52.1142 37.9438 52.0745Z" fill="white"/>
<path d="M24.9429 41.9891C24.9016 41.9434 24.8605 41.8976 24.8189 41.8519C24.4908 41.492 24.1388 41.1362 23.6883 40.9298C23.4735 40.8283 23.239 40.7744 23.0011 40.7718C22.7556 40.7785 22.5136 40.8308 22.2876 40.9262C22.1801 40.9687 22.0751 41.0171 21.9716 41.0685C21.8534 41.1276 21.7373 41.1905 21.6217 41.254C21.4047 41.3731 21.1906 41.4975 20.9792 41.627C20.5588 41.8849 20.1514 42.1624 19.7573 42.4595C19.5529 42.6137 19.3528 42.7728 19.1569 42.9371C18.9747 43.0896 18.7962 43.2463 18.6214 43.407C18.584 43.4412 18.5282 43.3858 18.5656 43.3516C18.6117 43.309 18.6583 43.2667 18.7049 43.2249C18.8365 43.1069 18.9703 42.991 19.1061 42.8775C19.3539 42.6701 19.6081 42.4707 19.8686 42.2793C20.2739 41.9815 20.693 41.7039 21.1261 41.4465C21.3426 41.318 21.562 41.1949 21.7844 41.0772C21.8515 41.0416 21.9195 41.0069 21.9882 40.974C22.1441 40.8959 22.3061 40.8305 22.4727 40.7783C22.7085 40.7026 22.9581 40.6783 23.2044 40.707C23.4421 40.7413 23.6712 40.8199 23.8795 40.9387C24.3218 41.184 24.6649 41.5633 24.9987 41.9335C25.0324 41.9711 24.9769 42.0267 24.9429 41.9891Z" fill="white"/>
<path d="M34.0064 45.7196L35.0663 45.3349L35.5926 45.144C35.7626 45.0761 35.936 45.0168 36.1121 44.9664C36.2661 44.9228 36.4296 44.9249 36.5824 44.9724C36.7187 45.0224 36.8434 45.0991 36.9492 45.198C37.0573 45.2967 37.1578 45.4033 37.2501 45.5167C37.3646 45.6533 37.4775 45.7914 37.5909 45.929C38.0589 46.4968 38.5238 47.0671 38.9857 47.6398C39.4476 48.2126 39.9063 48.7878 40.362 49.3654C40.8188 49.9444 41.2725 50.5259 41.723 51.1097C41.7782 51.1813 41.8333 51.2528 41.8884 51.3244C41.9189 51.364 41.9875 51.325 41.9566 51.2849C41.5028 50.6951 41.0458 50.1078 40.5856 49.5229C40.1243 48.9366 39.6598 48.3528 39.1922 47.7714C38.7245 47.1901 38.2537 46.6113 37.7797 46.035C37.6616 45.8914 37.5433 45.748 37.4249 45.6048C37.3249 45.4839 37.2261 45.3618 37.1165 45.2493C37.0232 45.1377 36.9086 45.0455 36.7793 44.9779C36.65 44.9104 36.5085 44.8687 36.363 44.8555C36.1868 44.8616 36.0131 44.8995 35.8505 44.9672C35.6733 45.0308 35.4965 45.0956 35.3196 45.1599L34.2522 45.5472L33.9854 45.644C33.938 45.6612 33.9585 45.737 34.0064 45.7196Z" fill="white"/>
<path d="M23.5491 41.3819C23.2767 41.2487 22.9736 41.1899 22.6707 41.2114C22.3678 41.2328 22.0762 41.3339 21.8257 41.5041C22.7698 41.6658 23.7036 41.882 24.6223 42.1517C24.2408 41.9299 23.9424 41.5824 23.5491 41.3819Z" fill="white"/>
<path d="M21.8205 41.5039L21.7168 41.5875C21.7519 41.5583 21.7883 41.5308 21.8258 41.5049L21.8205 41.5039Z" fill="white"/>
<path d="M36.9095 45.7232C36.8168 45.5875 36.6875 45.4804 36.5363 45.4141L36.3906 45.4198C37.4998 47.3642 38.9978 49.0633 40.7927 50.4127L36.9095 45.7232Z" fill="white"/>
<path d="M36.2277 43.5946C36.6912 43.5946 37.0668 43.2219 37.0668 42.7622C37.0668 42.3024 36.6912 41.9297 36.2277 41.9297C35.7643 41.9297 35.3887 42.3024 35.3887 42.7622C35.3887 43.2219 35.7643 43.5946 36.2277 43.5946Z" fill="white"/>
<path d="M48.404 52.0124C48.5692 52.0121 48.7275 51.9469 48.8443 51.831C48.9612 51.7151 49.0269 51.558 49.0271 51.3941V38.6163C49.0271 38.4523 48.9615 38.2951 48.8446 38.1791C48.7277 38.0632 48.5692 37.998 48.404 37.998C48.2387 37.998 48.0802 38.0632 47.9633 38.1791C47.8464 38.2951 47.7808 38.4523 47.7808 38.6163V51.3941C47.781 51.558 47.8467 51.7151 47.9636 51.831C48.0804 51.9469 48.2387 52.0121 48.404 52.0124Z" fill="#1A1A1A"/>
<path d="M48.404 52.0121C48.5692 52.0118 48.7275 51.9466 48.8443 51.8307C48.9612 51.7148 49.0269 51.5577 49.0271 51.3938V48.6844C48.9554 48.5873 48.8615 48.5083 48.7533 48.4539C48.645 48.3995 48.5253 48.3711 48.404 48.3711C48.2826 48.3711 48.1629 48.3995 48.0546 48.4539C47.9464 48.5083 47.8525 48.5873 47.7808 48.6844V51.3938C47.781 51.5577 47.8467 51.7148 47.9636 51.8307C48.0804 51.9466 48.2387 52.0118 48.404 52.0121Z" fill="#1A1A1A"/>
<path d="M48.4041 49.4021C48.5818 49.4018 48.7521 49.3317 48.8777 49.207C49.0034 49.0824 49.0741 48.9134 49.0743 48.7372V45.8232C48.9971 45.7188 48.8962 45.6339 48.7798 45.5754C48.6633 45.5168 48.5346 45.4863 48.4041 45.4863C48.2736 45.4863 48.1449 45.5168 48.0284 45.5754C47.912 45.6339 47.8111 45.7188 47.7339 45.8232V48.7372C47.7342 48.9134 47.8049 49.0824 47.9305 49.207C48.0561 49.3317 48.2264 49.4018 48.4041 49.4021Z" fill="white"/>
<path d="M48.4039 48.8717C48.5335 48.8715 48.6577 48.8204 48.7493 48.7294C48.841 48.6385 48.8925 48.5153 48.8927 48.3867V46.2614C48.8364 46.1852 48.7628 46.1233 48.6779 46.0806C48.593 46.0379 48.4991 46.0156 48.4039 46.0156C48.3087 46.0156 48.2148 46.0379 48.1299 46.0806C48.0449 46.1233 47.9714 46.1852 47.915 46.2614V48.3867C47.9152 48.5153 47.9668 48.6385 48.0584 48.7294C48.1501 48.8204 48.2743 48.8715 48.4039 48.8717Z" fill="#1A1A1A"/>
<path d="M29.1787 66.3669C29.0693 66.2697 29.0032 66.1334 28.995 65.9879C28.9868 65.8424 29.0371 65.6996 29.1348 65.5909L34.5795 59.5466C34.628 59.4928 34.6867 59.449 34.7522 59.4177C34.8178 59.3864 34.8889 59.3682 34.9615 59.3641C35.0341 59.3601 35.1069 59.3703 35.1755 59.3941C35.2442 59.418 35.3074 59.455 35.3617 59.5031C35.4159 59.5512 35.4601 59.6094 35.4917 59.6744C35.5232 59.7395 35.5416 59.81 35.5456 59.8821C35.5497 59.9541 35.5394 60.0263 35.5154 60.0944C35.4914 60.1625 35.4541 60.2253 35.4056 60.2791L29.9609 66.3233C29.8629 66.4319 29.7255 66.4974 29.5789 66.5056C29.4322 66.5138 29.2883 66.4639 29.1787 66.3669Z" fill="white"/>
<path d="M74.3464 76.318C74.3464 77.3196 74.1082 78.0862 74.1373 78.699C72.5038 79.4064 70.8244 80.004 69.1102 80.4879C68.9163 80.5429 68.7224 80.5951 68.5272 80.6473C67.4705 77.4377 66.4125 74.4988 65.9956 74.187C65.0415 73.4766 64.5637 76.4155 64.5637 75.7052C64.5637 74.9948 65.0415 74.9948 63.8491 74.0482C62.6553 73.1015 63.3713 68.8409 63.3713 68.8409L61.7012 64.5803L63.5694 57.7847L65.9956 48.957H68.3818C68.3818 48.957 68.4524 49.0079 68.5701 49.1027C69.167 49.5863 70.9673 51.2021 70.7679 52.9813C70.7083 53.5117 70.8413 55.0533 71.0725 57.106C71.7761 63.3039 73.3922 70.0417 73.3922 71.8196C73.3922 74.1869 74.3464 74.8973 74.3464 76.318Z" fill="#E6E6E6"/>
<path d="M72.3456 57.0831C72.3429 57.0763 72.3415 57.0708 72.3387 57.0653C72.2852 56.9223 72.2228 56.7828 72.1518 56.6476C71.7488 55.896 72.1753 54.7419 71.7211 53.4669C70.9871 51.4005 70.0925 50.1818 68.781 49.0895C68.7422 49.0565 68.7035 49.0249 68.6633 48.9919L68.6619 48.9905C67.7867 48.2775 66.7314 47.6111 65.4213 46.7812C65.1485 46.6081 64.8632 46.4281 64.5669 46.2385C64.1846 45.9953 64.2054 45.1847 64.2276 44.3273C64.2525 43.3752 64.2788 42.3887 63.8079 41.7732L63.7775 41.7333L63.729 41.7209C62.1146 41.4042 60.4681 41.2782 58.8238 41.3459H58.8224C58.1243 41.3716 57.431 41.4725 56.7548 41.6468C56.705 41.6605 56.6551 41.6742 56.6067 41.6907C56.5693 41.7003 56.5319 41.7127 56.4945 41.7251L56.464 41.7361L56.4405 41.758C55.9849 42.2101 55.8796 43.0207 55.8297 43.8657V43.8671C55.8201 44.021 55.8117 44.1748 55.8048 44.3287C55.766 45.1503 55.73 45.9266 55.4254 46.2632C54.7458 47.0271 53.9244 47.654 53.006 48.1098C51.5754 48.8106 50.444 48.7886 50.4274 48.7886L50.2958 48.7844L50.2834 48.9136C49.3333 50.7094 49.3693 55.3423 49.3403 60.3037C49.3389 60.5798 49.337 60.8574 49.3347 61.1363C49.3181 63.4473 49.2738 65.7981 49.0993 67.9401C49.0231 68.8607 48.9248 69.7414 48.7932 70.5644C48.1534 74.5722 45.2549 71.2445 43.8687 73.9113C43.9142 74.1736 43.9909 74.4295 44.0972 74.6739C44.2564 74.7673 44.4198 74.858 44.5819 74.9487C45.3006 75.3457 46.0327 75.7162 46.7783 76.0602C46.8198 76.0794 46.8613 76.0987 46.9029 76.1165C48.2703 76.7442 49.6798 77.2777 51.1212 77.7131C51.4023 77.7982 51.6834 77.8793 51.9673 77.9562C54.4786 78.644 57.0644 79.0283 59.6686 79.1007C59.6792 79.0996 59.6898 79.0991 59.7004 79.0994C62.7802 79.0149 65.8399 78.5774 68.8184 77.7955C68.8599 77.7845 68.9015 77.7735 68.943 77.7625C69.1383 77.7103 69.3322 77.6581 69.5261 77.6031C71.2402 77.1192 72.9197 76.5216 74.5531 75.8143C74.5548 75.8746 74.5608 75.9347 74.5711 75.9942C74.5725 76.0136 74.5753 76.0329 74.5794 76.0519C74.5822 76.03 74.585 76.008 74.5864 75.986C74.5947 75.9214 74.6016 75.8555 74.6085 75.7895C75.4561 67.5898 73.6959 60.6279 72.3456 57.0831Z" fill="#1A1A1A"/>
<path d="M53.3127 36.9859C54.1579 38.5193 55.5044 39.7215 57.1302 40.3943C58.7561 41.0671 60.5644 41.1706 62.2574 40.6875C63.9504 40.2045 65.4272 39.1639 66.4445 37.737C67.4617 36.3101 67.9588 34.582 67.8539 32.8374C67.7491 31.0927 67.0484 29.4355 65.8674 28.1387C64.6864 26.8419 63.0955 25.9828 61.3566 25.7028C59.6177 25.4229 57.8346 25.7389 56.3008 26.5987C54.7671 27.4585 53.5743 28.8108 52.9187 30.4331C52.8833 30.5211 52.8513 30.6091 52.8194 30.7007C52.4488 31.7233 52.3011 32.8124 52.3862 33.8958C52.4712 34.9793 52.787 36.0325 53.3127 36.9859Z" fill="#FFB6B6"/>
<path d="M52.1983 30.702C52.5319 29.7759 52.3864 30.2583 52.7236 29.3357C52.5035 30.1527 52.8513 30.6104 52.8194 30.702H62.0506V25.378C59.3462 24.3146 56.7021 23.4097 55.105 25.378C53.6818 25.378 52.3169 25.939 51.3106 26.9374C50.3042 27.9358 49.7388 29.29 49.7388 30.702H52.1983Z" fill="#1A1A1A"/>
<path d="M55.4709 45.5018C55.478 45.4032 55.4886 45.3011 55.5028 45.2025C55.6022 44.4772 55.8506 43.78 56.1026 43.0898C56.3688 42.3469 56.6385 41.6004 56.9082 40.8574C56.5609 42.2061 56.6668 43.6303 57.2099 44.9138C58.768 43.7095 57.7848 40.956 59.8221 40.956C64.7198 40.956 69.7595 37.0159 69.7595 32.1532C69.7595 27.294 67.6585 23.6602 62.7607 23.6602C57.8594 23.6602 53.8844 25.8855 53.7886 30.7447C59.8221 32.1532 54.3316 45.0089 55.4709 45.5018Z" fill="#1A1A1A"/>
<path d="M69.1473 31.4083C72.2835 31.4083 74.8259 28.8859 74.8259 25.7745C74.8259 22.663 72.2835 20.1406 69.1473 20.1406C66.0111 20.1406 63.4688 22.663 63.4688 25.7745C63.4688 28.8859 66.0111 31.4083 69.1473 31.4083Z" fill="#1A1A1A"/>
<path d="M78 58.0827C77.9806 58.3726 77.9635 58.6813 77.9487 59.0088C77.6551 65.1764 77.9086 73.4792 75.9296 77.9844C75.4865 78.2249 75.0387 78.4548 74.5863 78.6742C74.5683 78.6824 74.5516 78.6906 74.5364 78.6989C74.4146 78.758 74.2927 78.8157 74.1708 78.8706C74.1664 78.8744 74.1612 78.8772 74.1556 78.8789C72.8173 79.5062 71.4381 80.0437 70.0273 80.4878C69.8542 80.5427 69.6797 80.5949 69.5052 80.6472C69.4678 80.6582 69.4304 80.6691 69.393 80.6801C66.7351 81.46 63.9872 81.8982 61.2168 81.984C61.0728 81.9881 60.9315 81.9909 60.7944 81.9936C60.7459 81.995 60.6989 81.9964 60.6518 81.9964C60.4967 81.9978 60.343 81.9991 60.1879 81.9991C59.8749 81.9991 59.5633 81.9945 59.2531 81.9854C56.6489 81.913 54.0631 81.5287 51.5518 80.8409C51.2679 80.764 50.9868 80.6829 50.7057 80.5977C49.2643 80.1623 47.8548 79.6289 46.4874 79.0012C46.4458 78.9833 46.4043 78.9641 46.3628 78.9448C45.6177 78.6013 44.8856 78.2308 44.1664 77.8333C44.0043 77.7426 43.8409 77.6519 43.6817 77.5585C43.5754 77.3142 43.4987 77.0582 43.4532 76.796C43.1388 75.297 42.8867 76.3082 42.7067 73.1893C42.5419 70.3301 42.4367 67.4627 42.3979 65.8236C42.3854 65.3866 42.3813 65.0363 42.3799 64.7972C42.5267 63.7558 44.8865 62.5742 48.3279 61.4516C48.6533 61.3459 48.9898 61.2401 49.3347 61.1356C50.2653 60.8512 51.2596 60.5723 52.2983 60.303C54.9434 59.616 57.8807 58.9854 60.7958 58.4647C62.2347 58.2091 63.668 57.9797 65.0598 57.7846C67.5013 57.4411 69.8113 57.2034 71.7875 57.1058C71.9772 57.0962 72.1628 57.088 72.3456 57.0825C72.5422 57.0742 72.7347 57.0687 72.9231 57.0646C75.7703 57.0028 77.7147 57.2968 78 58.0827Z" fill="#1A1A1A"/>
<path opacity="0.2" d="M78 58.0827C77.9806 58.3726 77.9635 58.6813 77.9488 59.0088C75.7911 56.7033 52.5475 67.0024 42.7067 73.1893C42.5419 70.3301 42.4367 67.4627 42.3979 65.8236C42.3854 65.3866 42.3813 65.0363 42.3799 64.7972C42.5267 63.7558 44.8865 62.5742 48.3279 61.4517C48.6533 61.3459 48.9898 61.2401 49.3347 61.1356C50.2653 60.8512 51.2596 60.5723 52.2983 60.303C54.9434 59.616 57.8807 58.9854 60.7958 58.4647C62.2347 58.2091 63.668 57.9797 65.0598 57.7846C67.5013 57.4411 69.8113 57.2034 71.7875 57.1058C71.9772 57.0962 72.1628 57.088 72.3456 57.0825C72.5422 57.0742 72.7347 57.0687 72.9231 57.0646C75.7704 57.0028 77.7147 57.2968 78 58.0827Z" fill="black"/>
<path d="M30.7303 65.2303C30.9483 65.503 31.2238 65.7249 31.5376 65.8804C31.8513 66.036 32.1956 66.1214 32.5462 66.1306C32.8969 66.1398 33.2453 66.0727 33.5669 65.9339C33.8885 65.7951 34.1756 65.5881 34.4078 65.3273L42.2944 68.5408L41.4434 64.2271L34.0846 61.8368C33.6172 61.4788 33.0337 61.3033 32.4445 61.3436C31.8554 61.3838 31.3016 61.6371 30.8882 62.0554C30.4747 62.4737 30.2303 63.028 30.2012 63.6131C30.1721 64.1983 30.3603 64.7737 30.7303 65.2303Z" fill="#FFB6B6"/>
<path d="M56.9645 47.2662L56.9213 47.2617L52.3223 47.593C51.7384 47.635 51.1702 47.7998 50.6554 48.0763C50.1406 48.3529 49.691 48.735 49.3364 49.1971C49.1716 49.4112 49.0289 49.6413 48.9106 49.8837L48.9094 49.8844C48.5129 50.6893 48.3934 51.6009 48.5692 52.4796L50.7344 63.2929L45.5248 62.8233L43.6231 63.1458L41.3789 62.2475L36.774 62.3253L36.6673 62.6754L35.7013 65.8525L35.6255 66.1021L42.6572 70.4983L44.6958 69.883L45.6562 70.6149L45.7023 70.6161L47.6068 70.6535L55.7287 70.8115L57.9488 66.9093L58.2957 66.2975C60.8741 60.5668 61.5103 56.5663 61.3085 53.8102C61.2027 52.354 60.8634 51.2471 60.4526 50.4129C59.1823 47.835 57.0539 47.288 56.9645 47.2662Z" fill="#1A1A1A"/>
<path d="M69.8654 30.7755C68.7885 30.5353 67.7901 30.0293 66.9628 29.3044C66.1355 28.5795 65.5061 27.6591 65.1328 26.6285C64.7996 25.6698 64.6739 24.617 64.1147 23.7638C64.9666 22.6031 65.6498 21.3293 66.1441 19.9798C66.3355 19.4573 66.7836 18.5089 66.0239 18.2215C65.4187 17.9926 64.7311 18.5452 64.3723 18.9812C64.0998 19.3117 63.9043 19.6979 63.7999 20.1121C63.6762 19.5701 63.5525 19.028 63.4287 18.486C63.413 18.434 63.3777 18.39 63.3301 18.3632C63.2825 18.3364 63.2263 18.3288 63.1732 18.3421C62.1593 18.5136 61.4239 19.445 61.2962 20.4262C61.2264 20.9313 61.3423 21.4444 61.6224 21.8718C61.9481 22.3634 62.4251 22.7159 62.8791 23.0822C63.3618 23.4719 63.7709 23.8868 64.0304 24.4566C64.3002 25.0488 64.4216 25.6968 64.6005 26.3186C64.9402 27.5129 65.5982 28.5942 66.5054 29.4485C67.4125 30.3028 68.5351 30.8986 69.7549 31.173C70.0155 31.2295 70.1269 30.8322 69.8654 30.7755ZM64.1394 20.9221C64.1067 20.4043 64.2446 19.8901 64.5323 19.4568C64.6763 19.2372 64.8567 19.0433 65.0659 18.8834C65.2643 18.733 65.5569 18.5339 65.8193 18.5891C66.1597 18.6608 66.0228 19.0377 65.9505 19.265C65.8551 19.5649 65.7502 19.8616 65.6358 20.1551C65.4131 20.7252 65.1546 21.2807 64.8617 21.8187C64.7097 22.0986 64.5472 22.3727 64.3775 22.6423C64.2606 22.1299 64.1436 21.6175 64.0266 21.1051C64.0635 21.0917 64.0947 21.0663 64.1151 21.0331C64.1356 20.9999 64.1442 20.9608 64.1394 20.9221ZM61.7131 21.0041C61.6452 20.5359 61.7437 20.0589 61.9918 19.6549C62.2399 19.251 62.6221 18.9454 63.0726 18.7906C63.4024 20.2351 63.7321 21.6797 64.0619 23.1242C63.9938 23.2238 63.9236 23.3218 63.8533 23.4198C63.8348 23.3988 63.818 23.377 63.7988 23.3564C63.1072 22.6096 61.9011 22.1005 61.7131 21.0041Z" fill="white"/>
</g>
<defs>
<clipPath id="clip0_155_4306">
<rect width="78" height="82" fill="white"/>
</clipPath>
</defs>
</svg>
