<svg width="82" height="79" viewBox="0 0 82 79" fill="none" xmlns="http://www.w3.org/2000/svg">
<g clip-path="url(#clip0_155_4305)">
<path d="M77.1465 21.8037C76.3788 20.4309 75.5271 19.1059 74.5961 17.8362C73.9437 16.9455 73.2544 16.0844 72.5282 15.2531H72.5263C71.2122 13.7481 69.783 12.3458 68.2514 11.0586C67.938 10.7947 67.6203 10.5362 67.2983 10.2831C64.3923 7.9914 61.1697 6.12475 57.729 4.74023L57.7595 9.7244L58.0888 66.541H29.552L27.9471 9.8316L28.0667 4.92703C14.076 10.76 4.25245 24.4743 4.25245 40.4639C4.24985 43.7643 4.6746 47.0513 5.5163 50.2444C5.87182 51.5942 6.30223 52.9235 6.80558 54.2263C6.9873 54.6992 7.17901 55.1678 7.38071 55.6323C7.47793 55.8583 7.57697 56.0826 7.67964 56.306C7.81138 56.5978 7.94858 56.8887 8.08941 57.176C8.19844 57.4021 8.3105 57.6266 8.42559 57.8497C8.57369 58.1424 8.72663 58.4328 8.88443 58.7207C9.00617 58.9467 9.13156 59.171 9.25877 59.3944C11.3109 62.9927 13.9315 66.2418 17.0208 69.0181C17.9012 69.8098 18.8174 70.5604 19.7693 71.2698C26.5046 76.2868 34.7015 78.9994 43.1263 78.9994C51.5512 78.9994 59.7481 76.2868 66.4833 71.2698C67.0012 70.8843 67.5085 70.4859 68.0052 70.0746C68.335 69.8026 68.6594 69.5255 68.9783 69.2433C69.0628 69.1685 69.1473 69.0938 69.2309 69.0181C72.0791 66.4587 74.5302 63.4962 76.505 60.2266C77.2303 59.0279 77.8879 57.7903 78.4749 56.5194C78.6302 56.1844 78.7807 55.8463 78.9264 55.5053C79.5969 53.9416 80.1609 52.335 80.6146 50.6965C80.6845 50.4434 80.7521 50.1895 80.8172 49.9346V49.9337C80.8281 49.8895 80.8399 49.8445 80.8508 49.8004C80.918 49.532 80.9826 49.2618 81.0443 48.9916V48.9907C81.2442 48.1197 81.4129 47.2382 81.5504 46.3463C81.5677 46.2319 81.5849 46.1175 81.6013 46.0031C81.6077 45.9617 81.614 45.9203 81.6186 45.8788V45.8779C81.7167 45.1889 81.7963 44.4948 81.8575 43.7956C81.952 42.6976 81.9996 41.5871 82.0002 40.4639C82.0105 33.9358 80.3399 27.513 77.1465 21.8037Z" fill="#F2F2F2"/>
<path d="M73.3286 63.7261C75.6295 60.6442 76.5144 56.3031 74.7246 52.9043C73.046 56.7274 70.0574 59.8386 66.2875 61.6876C64.831 62.3955 63.1366 63.0325 62.4625 64.495C62.043 65.4051 62.1229 66.4796 62.4601 67.4227C62.7973 68.3657 63.3709 69.2048 63.9384 70.0322L63.9683 70.2803C67.5412 68.8118 71.0277 66.808 73.3286 63.7261Z" fill="#E6E6E6"/>
<path d="M74.6482 52.9325C74.5451 56.1045 73.4364 59.1635 71.4796 61.6753C71.068 62.2234 70.5719 62.7038 70.0094 63.0988C69.4489 63.466 68.7995 63.6777 68.1286 63.7119C67.5036 63.7563 66.8592 63.73 66.256 63.9242C65.9488 64.0282 65.6672 64.1953 65.4297 64.4147C65.1921 64.6342 65.0041 64.9009 64.8779 65.1974C64.5439 65.9281 64.4947 66.7341 64.4743 67.524C64.4516 68.4011 64.442 69.3124 64.0247 70.1097C63.9741 70.2063 64.1283 70.2785 64.1788 70.182C64.9049 68.7949 64.4334 67.1727 64.8661 65.7145C65.068 65.0341 65.478 64.4099 66.1632 64.1372C66.7625 63.8988 67.427 63.9254 68.0602 63.8858C68.7152 63.8619 69.3543 63.6794 69.9218 63.3542C70.5027 62.9889 71.0167 62.5282 71.4418 61.992C72.4181 60.7998 73.1993 59.4629 73.7566 58.0302C74.4019 56.3985 74.7609 54.6695 74.818 52.9178C74.8215 52.8094 74.6517 52.8248 74.6482 52.9325Z" fill="white"/>
<path d="M72.1578 60.9027C72.6275 61.1709 73.1781 61.2649 73.7112 61.1679C74.2444 61.0709 74.7254 60.7892 75.0683 60.373C75.1374 60.2886 75.0083 60.1782 74.9391 60.2627C74.6205 60.6508 74.1724 60.9132 73.6758 61.0025C73.1791 61.0919 72.6666 61.0023 72.2307 60.7499C72.1359 60.6952 72.0636 60.8482 72.1578 60.9027Z" fill="white"/>
<path d="M68.4484 63.731C68.1511 62.6728 68.267 61.5424 68.7731 60.5653C68.8233 60.4685 68.6692 60.3963 68.619 60.493C68.0943 61.5108 67.9761 62.6874 68.2879 63.7879C68.3177 63.8927 68.4781 63.8353 68.4484 63.731Z" fill="white"/>
<path d="M74.1762 56.4052C73.9727 56.3389 73.7889 56.2236 73.6414 56.0695C73.494 55.9155 73.3874 55.7275 73.3313 55.5226C73.3029 55.4174 73.1425 55.475 73.1708 55.5795C73.2338 55.8056 73.3518 56.0131 73.5143 56.1836C73.6769 56.3542 73.8791 56.4827 74.1033 56.5579C74.1239 56.5668 74.147 56.5675 74.1681 56.5601C74.1892 56.5526 74.2066 56.5374 74.2168 56.5177C74.2264 56.4974 74.2275 56.4742 74.2199 56.4531C74.2123 56.4321 74.1966 56.4148 74.1762 56.4052Z" fill="white"/>
<path d="M61.9165 50.1992C61.9323 50.2654 61.9482 50.3316 61.9631 50.3988C62.1719 51.2897 62.3073 52.196 62.3681 53.1086C62.3739 53.1791 62.3787 53.2506 62.3825 53.3211C62.5052 55.5214 62.2147 57.7251 61.5258 59.8203C61.2509 60.6538 60.9124 61.4653 60.5133 62.2479C59.9621 63.3286 59.2777 64.4569 59.1233 65.6207C59.1059 65.742 59.096 65.8642 59.0938 65.9866L63.6608 70.297C63.6761 70.3016 63.6905 70.3073 63.7059 70.312L63.8803 70.4923C63.9037 70.4534 63.9272 70.4125 63.9506 70.3736C63.9643 70.3511 63.977 70.3276 63.9907 70.305C63.9995 70.2897 64.0082 70.2743 64.017 70.261C64.02 70.2559 64.0229 70.2508 64.0248 70.2467C64.0337 70.2334 64.0404 70.2201 64.0483 70.2078C64.18 69.9796 64.3103 69.7502 64.4393 69.5194C64.4403 69.5183 64.4403 69.5183 64.4403 69.5163C65.4183 67.7554 66.2567 65.898 66.784 63.9736C66.7998 63.9157 66.8167 63.8568 66.8305 63.7969C67.0633 62.9282 67.2241 62.042 67.3113 61.1473C67.3575 60.6572 67.3786 60.1651 67.3745 59.6729C67.3616 58.4012 67.147 57.1394 66.7386 55.9338C65.9239 53.5305 64.343 51.4122 62.0895 50.2838C62.0318 50.2549 61.9751 50.227 61.9165 50.1992Z" fill="#E6E6E6"/>
<path d="M61.8714 50.2663C63.7156 52.8604 64.6883 55.9646 64.6514 59.138C64.6557 59.8213 64.5513 60.501 64.3421 61.152C64.1176 61.7797 63.7277 62.3364 63.2128 62.7642C62.7408 63.1726 62.2102 63.5362 61.8466 64.0512C61.6644 64.3176 61.5411 64.6192 61.4847 64.9361C61.4283 65.2531 61.4402 65.5782 61.5195 65.8903C61.6966 66.673 62.1469 67.346 62.6104 67.9889C63.1249 68.7027 63.6708 69.4361 63.8218 70.3217C63.8401 70.429 64.007 70.3946 63.9887 70.2875C63.726 68.7466 62.3643 67.7328 61.8242 66.3103C61.5721 65.6465 61.5203 64.9034 61.9019 64.2767C62.2355 63.7287 62.7823 63.3533 63.2638 62.9438C63.7723 62.5338 64.1717 62.0066 64.4273 61.4083C64.6692 60.7699 64.7999 60.0953 64.8135 59.4135C64.869 57.8789 64.6808 56.3452 64.2556 54.8686C63.7799 53.1807 63.0164 51.5859 61.9981 50.1532C61.935 50.0646 61.8087 50.1783 61.8714 50.2663Z" fill="white"/>
<path d="M64.7243 58.1163C65.2623 58.0502 65.759 57.7966 66.1257 57.401C66.4925 57.0053 66.7054 56.4933 66.7265 55.9564C66.7304 55.8477 66.5603 55.8366 66.5564 55.9454C66.5377 56.4454 66.3393 56.9224 65.997 57.2901C65.6547 57.6579 65.1911 57.8922 64.6898 57.9509C64.5809 57.9637 64.616 58.1291 64.7243 58.1163Z" fill="white"/>
<path d="M63.4798 62.5894C62.5997 61.922 62.0058 60.9503 61.8163 59.868C61.7977 59.7608 61.6307 59.7952 61.6494 59.9023C61.8487 61.0281 62.4689 62.0381 63.3862 62.7306C63.4737 62.7966 63.5668 62.655 63.4798 62.5894Z" fill="white"/>
<path d="M63.6046 53.3215C63.4018 53.3901 63.1851 53.4077 62.9738 53.3727C62.7624 53.3377 62.5632 53.2513 62.3939 53.1211C62.3073 53.0541 62.2143 53.1957 62.3003 53.2623C62.488 53.4053 62.7082 53.5005 62.9416 53.5397C63.1749 53.5788 63.4144 53.5607 63.6392 53.487C63.6609 53.4818 63.6799 53.4686 63.6922 53.45C63.7045 53.4315 63.7092 53.409 63.7053 53.3871C63.7006 53.3652 63.6874 53.3461 63.6686 53.3338C63.6497 53.3215 63.6267 53.3171 63.6046 53.3215Z" fill="white"/>
<path d="M1.81478 46.4649C-0.225861 43.2078 -0.751951 38.8098 1.3106 35.5664C2.67021 39.5121 5.39388 42.8538 8.99972 45.0004C10.3934 45.8233 12.0299 46.5946 12.5819 48.1067C12.9254 49.0475 12.7577 50.1121 12.3443 51.0248C11.9308 51.9376 11.2904 52.7277 10.6569 53.5066L10.6068 53.7514C7.16613 52 3.85542 49.7219 1.81478 46.4649Z" fill="#E6E6E6"/>
<path d="M1.38447 35.6005C1.22719 38.7702 2.08142 41.9085 3.82584 44.5695C4.19111 45.149 4.64624 45.6678 5.17448 46.1068C5.70299 46.5179 6.33292 46.7813 6.99883 46.8694C7.61805 46.964 8.2625 46.9897 8.84774 47.2319C9.14546 47.3602 9.41244 47.5495 9.63118 47.7873C9.84992 48.0252 10.0155 48.3061 10.117 48.6118C10.3899 49.367 10.3728 50.1744 10.3285 50.9633C10.2792 51.8393 10.214 52.7484 10.5646 53.5767C10.6071 53.677 10.4475 53.7365 10.4051 53.6363C9.79514 52.1953 10.398 50.6165 10.0863 49.1282C9.94086 48.4338 9.58341 47.7786 8.92277 47.4516C8.34508 47.1657 7.68054 47.1387 7.05272 47.0483C6.40184 46.9717 5.77978 46.7383 5.24088 46.3684C4.6918 45.9575 4.21726 45.457 3.83759 44.8883C2.96222 43.6214 2.29324 42.2259 1.85515 40.7531C1.34576 39.0748 1.12972 37.3226 1.21639 35.5721C1.2218 35.4638 1.38985 35.4928 1.38447 35.6005Z" fill="white"/>
<path d="M3.21344 43.7448C2.72332 43.9743 2.16686 44.0237 1.64343 43.884C1.12 43.7444 0.663689 43.4248 0.355987 42.9825C0.294037 42.8927 0.431772 42.7931 0.493805 42.8829C0.779569 43.2954 1.20465 43.593 1.69234 43.7221C2.18003 43.8511 2.69818 43.8031 3.1533 43.5867C3.25225 43.5398 3.31183 43.6982 3.21344 43.7448Z" fill="white"/>
<path d="M6.67848 46.8631C7.06158 45.8324 7.03871 44.6965 6.61444 43.6817C6.57232 43.5812 6.73187 43.5217 6.77394 43.6221C7.21346 44.6789 7.23483 45.8611 6.83379 46.9328C6.7955 47.0349 6.64039 46.9647 6.67848 46.8631Z" fill="white"/>
<path d="M1.57018 39.1001C1.77848 39.0505 1.97109 38.9503 2.1307 38.8087C2.29032 38.667 2.41194 38.4883 2.48465 38.2885C2.52162 38.1859 2.67669 38.2563 2.63996 38.3581C2.5586 38.5785 2.42404 38.7757 2.24804 38.9326C2.07204 39.0895 1.85995 39.2013 1.63032 39.2582C1.60913 39.2654 1.58598 39.2643 1.56558 39.2551C1.54518 39.246 1.52906 39.2295 1.5205 39.209C1.51264 39.188 1.51345 39.1648 1.52275 39.1444C1.53205 39.124 1.5491 39.1081 1.57018 39.1001Z" fill="white"/>
<path d="M14.298 33.9023C14.2768 33.967 14.2555 34.0317 14.2351 34.0976C13.954 34.9687 13.7447 35.861 13.6094 36.7657C13.5978 36.8355 13.5871 36.9064 13.5776 36.9764C13.275 39.1595 13.3838 41.3794 13.8987 43.5231C14.1043 44.3759 14.3751 45.212 14.7088 46.0242C15.1696 47.1457 15.7592 48.3254 15.8176 49.4979C15.8251 49.6201 15.825 49.7427 15.8171 49.8649L10.9119 53.7931C10.8962 53.7965 10.8814 53.801 10.8656 53.8044L10.677 53.9701C10.6569 53.9294 10.6368 53.8868 10.6167 53.8461C10.6049 53.8226 10.5942 53.7981 10.5824 53.7746C10.5749 53.7586 10.5674 53.7425 10.5597 53.7286C10.5572 53.7232 10.5547 53.7179 10.5531 53.7137C10.5454 53.6997 10.5397 53.6859 10.5329 53.673C10.4204 53.435 10.3093 53.1958 10.1996 52.9554C10.1987 52.9542 10.1987 52.9542 10.1989 52.9523C9.36847 51.1184 8.68516 49.1996 8.31736 47.239C8.30631 47.1801 8.2943 47.12 8.2855 47.0592C8.12466 46.1746 8.03703 45.2784 8.02347 44.3796C8.01765 43.8874 8.03697 43.3952 8.08134 42.905C8.19847 41.6385 8.51582 40.3982 9.02177 39.2295C10.0307 36.8998 11.7801 34.9159 14.1187 33.9727C14.1785 33.9486 14.2373 33.9253 14.298 33.9023Z" fill="#E6E6E6"/>
<path d="M14.3372 33.9729C12.2865 36.4098 11.0625 39.4254 10.8391 42.5912C10.7788 43.2719 10.8271 43.9578 10.9823 44.6235C11.1545 45.2672 11.4976 45.8535 11.9757 46.3213C12.4126 46.7664 12.9116 47.1715 13.2318 47.7142C13.3916 47.9944 13.4898 48.3048 13.52 48.6253C13.5502 48.9457 13.5117 49.2689 13.4071 49.5735C13.1664 50.3394 12.6624 50.9738 12.1478 51.5773C11.5764 52.2473 10.9722 52.9343 10.7491 53.8048C10.722 53.9103 10.5585 53.8626 10.5855 53.7572C10.9737 52.2426 12.414 51.3419 13.069 49.9675C13.3746 49.3263 13.4871 48.5898 13.1582 47.9344C12.8706 47.3613 12.3565 46.9431 11.9101 46.4963C11.4369 46.0466 11.082 45.489 10.8764 44.8721C10.6875 44.2163 10.6126 43.5334 10.6549 42.8527C10.7254 41.3188 11.0388 39.8053 11.5836 38.3678C12.1961 36.7238 13.0879 35.1958 14.2202 33.8499C14.2903 33.7667 14.4069 33.8901 14.3372 33.9729Z" fill="white"/>
<path d="M10.8508 41.5681C10.3201 41.4589 9.84583 41.1662 9.51272 40.7423C9.1796 40.3184 9.00934 39.7909 9.03233 39.254C9.03347 39.2321 9.04314 39.2116 9.05929 39.1966C9.07545 39.1816 9.09683 39.1735 9.11894 39.1738C9.14104 39.1742 9.16214 39.1831 9.17779 39.1985C9.19343 39.214 9.20241 39.2349 9.20282 39.2568C9.18048 39.7567 9.33913 40.248 9.65014 40.6421C9.96114 41.0362 10.404 41.3072 10.8988 41.406C11.0063 41.4276 10.9577 41.5896 10.8508 41.5681Z" fill="white"/>
<path d="M11.7241 46.1258C12.656 45.5315 13.3277 44.6108 13.6052 43.5474C13.6326 43.442 13.7961 43.4897 13.7688 43.595C13.4779 44.7011 12.7769 45.6577 11.8058 46.2741C11.7132 46.3327 11.632 46.1841 11.7241 46.1258Z" fill="white"/>
<path d="M12.3596 36.8798C12.556 36.9645 12.7707 36.9995 12.9841 36.9817C13.1976 36.9638 13.4033 36.8937 13.5827 36.7776C13.6745 36.7178 13.7556 36.8665 13.6644 36.9259C13.4656 37.0533 13.2384 37.1304 13.0025 37.1507C12.7667 37.1709 12.5295 37.1336 12.3116 37.042C12.2903 37.035 12.2725 37.0204 12.2618 37.0009C12.251 36.9814 12.2482 36.9586 12.2538 36.9371C12.2603 36.9157 12.275 36.8976 12.2948 36.8869C12.3146 36.8762 12.3379 36.8736 12.3596 36.8798Z" fill="white"/>
<path d="M39.6957 13.2174C42.6785 13.2174 45.0965 10.8204 45.0965 7.86356C45.0965 4.90674 42.6785 2.50977 39.6957 2.50977C36.7129 2.50977 34.2949 4.90674 34.2949 7.86356C34.2949 10.8204 36.7129 13.2174 39.6957 13.2174Z" fill="#CE4F4F"/>
<path d="M56.2314 7.58457C55.7448 7.07495 55.231 6.59149 54.6923 6.13628C53.6401 5.25182 52.4753 4.49975 51.177 4.02599C50.6881 3.84704 50.183 3.71523 49.6687 3.6324C49.6069 3.62249 49.546 3.61258 49.4843 3.60447C49.4797 3.60402 49.4752 3.60402 49.4706 3.60447C49.4611 3.60181 49.4514 3.6 49.4416 3.59907C49.3153 3.58286 49.189 3.57025 49.0618 3.56124C48.3767 3.5161 47.6888 3.57749 47.0229 3.74318C46.6365 3.83981 46.2595 3.97001 45.8962 4.13227C45.5323 4.3089 45.1794 4.50711 44.8396 4.72582C44.657 4.83572 44.469 4.93642 44.2762 5.02754C43.7134 5.2919 43.1176 5.4809 42.5045 5.58957C42.0905 5.6632 41.6712 5.70416 41.2506 5.71206C40.8854 5.71927 40.541 5.73187 40.1949 5.86247C39.8254 6.00008 39.4936 6.22145 39.2258 6.5089C38.9581 6.79635 38.7619 7.14189 38.653 7.51792C38.6444 7.55131 38.6468 7.58655 38.6599 7.61848C38.673 7.65041 38.696 7.67735 38.7257 7.69535C38.8193 7.762 38.9101 7.83766 39.0092 7.89711C39.0966 7.93664 39.1898 7.96189 39.2854 7.97186C39.4416 8.00429 39.5982 8.03581 39.7551 8.06643C40.3321 8.17991 40.9114 8.28049 41.4932 8.36816C42.6635 8.54379 43.8404 8.66748 45.024 8.73924C45.0312 8.74029 45.0385 8.74089 45.0458 8.74104C46.3829 8.82104 47.7233 8.83397 49.0618 8.77977C49.2644 8.77166 49.4661 8.76175 49.6687 8.75005C50.5128 8.70321 51.3547 8.62935 52.1946 8.52848C52.9714 8.43481 53.7452 8.31862 54.516 8.17992C55.0666 8.08084 55.6151 7.97036 56.1615 7.84847C56.188 7.84068 56.2121 7.82625 56.2313 7.80656C56.2506 7.78687 56.2644 7.76258 56.2714 7.73605C56.2785 7.70952 56.2785 7.68165 56.2715 7.65511C56.2645 7.62857 56.2507 7.60428 56.2314 7.58457Z" fill="#E6E6E6"/>
<path d="M45.0061 14.7234C44.2243 13.8943 43.3628 13.1426 42.4339 12.4789C42.1259 12.2646 41.8088 12.0628 41.4827 11.8782C41.0827 11.6493 40.6674 11.448 40.2397 11.2756C40.1443 11.2369 40.048 11.2 39.9517 11.1648C39.4045 10.9639 38.837 10.8226 38.259 10.7433C38.2544 10.7424 38.2499 10.7433 38.2454 10.7424C38.2363 10.7406 38.2263 10.7388 38.2172 10.737C37.937 10.701 37.6547 10.6838 37.3722 10.6857C37.1696 10.6857 36.9661 10.6965 36.7644 10.7163C36.4385 10.7481 36.1154 10.8035 35.7976 10.882C35.6404 10.9208 35.4842 10.9658 35.3306 11.0171C35.1067 11.0902 34.8868 11.175 34.6719 11.2711C34.6683 11.2729 34.6655 11.2738 34.6619 11.2756C34.3012 11.4506 33.9516 11.6473 33.6152 11.8647C33.6079 11.8692 33.5998 11.8737 33.5925 11.8782C33.2104 12.1048 32.8061 12.2925 32.3859 12.4384C32.0252 12.5634 31.6552 12.6604 31.2792 12.7284C30.8653 12.8022 30.4459 12.8429 30.0254 12.85C29.6601 12.8572 29.3158 12.8698 28.9705 13.0013C28.601 13.1389 28.269 13.3603 28.0011 13.6477C27.7332 13.9351 27.5369 14.2807 27.4277 14.6568C27.4193 14.6902 27.4218 14.7253 27.4349 14.7572C27.448 14.7891 27.4709 14.8161 27.5004 14.8342C27.594 14.9008 27.6858 14.9756 27.7839 15.0351C27.8712 15.0749 27.9645 15.1001 28.0601 15.1098C28.2164 15.1422 28.3727 15.1747 28.5298 15.2053C29.1068 15.3188 29.6865 15.419 30.2689 15.5061C31.0675 15.6259 31.8695 15.7217 32.6748 15.7934C33.0564 15.8286 33.4383 15.8574 33.8205 15.8799C34.8009 15.9384 35.7822 15.9612 36.7644 15.9483C36.967 15.9456 37.1696 15.9411 37.3722 15.9348C38.5752 15.8997 39.7745 15.8102 40.9702 15.6664C42.303 15.5066 43.6267 15.2796 44.9362 14.9864C44.9627 14.9787 44.9867 14.9644 45.006 14.9448C45.0252 14.9252 45.039 14.9009 45.0461 14.8745C45.0531 14.848 45.0531 14.8202 45.0461 14.7938C45.0391 14.7673 45.0254 14.7431 45.0061 14.7234Z" fill="#E6E6E6"/>
<path d="M31.5441 0.355636L36.3021 65.534L26.7861 66.3712V1.18489C27.9201 0.306867 29.5478 0.169498 31.5441 0.355636Z" fill="#CCCCCC"/>
<path d="M55.0304 0.355636L50.2725 65.534L59.7884 66.3712V1.18489C58.6545 0.306867 57.0268 0.169498 55.0304 0.355636Z" fill="#CCCCCC"/>
<path d="M60.0122 1.21315C59.7169 0.495466 59.0891 0 58.3631 0H28.1099C27.1005 0 26.28 0.9601 26.28 2.14135V66.9233C26.2712 67.5226 26.4973 68.1019 26.9106 68.5394C27.1269 68.7645 27.4007 68.9273 27.7029 69.0104C27.8354 69.0468 27.9724 69.065 28.1099 69.0646H58.3631C58.5007 69.065 58.6376 69.0468 58.7702 69.0104C59.5843 68.7935 60.193 67.9408 60.193 66.9233V2.14136C60.1939 1.82327 60.1324 1.50805 60.0122 1.21315ZM59.5861 66.9233C59.5861 67.7122 59.0373 68.3544 58.3631 68.3544H28.1099C27.5511 68.3544 27.0778 67.9131 26.9333 67.3124C26.9024 67.185 26.8869 67.0543 26.887 66.9233V2.14136C26.887 1.35244 27.4358 0.711308 28.1099 0.711308H58.3631C58.4872 0.711211 58.6103 0.733178 58.7266 0.776165C59.2236 0.956916 59.5861 1.50023 59.5861 2.14135V66.9233Z" fill="#CCCCCC"/>
<path d="M59.8894 19.6914H26.5835V20.2935H59.8894V19.6914Z" fill="#CCCCCC"/>
<path d="M59.8894 7.26172H26.5835V7.86383H59.8894V7.26172Z" fill="#CCCCCC"/>
<path d="M59.8894 29.7266H26.5835V30.3287H59.8894V29.7266Z" fill="#CCCCCC"/>
<path d="M37.3916 0.269531H36.7842V38.256H37.3916V0.269531Z" fill="#CCCCCC"/>
<path d="M49.6889 0.269531H49.0815V38.256H49.6889V0.269531Z" fill="#CCCCCC"/>
<path d="M63.6855 65.3008H23.7994C23.0749 65.3016 22.3802 65.5873 21.8678 66.0952C21.3555 66.6031 21.0673 67.2917 21.0664 68.01C21.066 68.3554 21.133 68.6976 21.2636 69.0179C21.4665 69.5202 21.8164 69.9508 22.2684 70.2542C22.7204 70.5576 23.2536 70.7199 23.7994 70.7202H63.6855C64.1626 70.72 64.6313 70.596 65.0451 70.3606C65.4589 70.1252 65.8033 69.7865 66.0441 69.3781C66.1127 69.2628 66.1723 69.1423 66.2222 69.0179C66.3528 68.6976 66.4198 68.3554 66.4194 68.01C66.4183 67.2916 66.1299 66.603 65.6174 66.0951C65.1049 65.5873 64.4101 65.3016 63.6855 65.3008Z" fill="#CCCCCC"/>
<path d="M59.8896 36.8516H26.7861V38.8586H59.8896V36.8516Z" fill="#CCCCCC"/>
<path d="M43.034 36.25H43.6414C43.9367 36.25 44.22 36.3663 44.4288 36.5733C44.6376 36.7803 44.755 37.0611 44.755 37.3539H41.9204C41.9204 37.2089 41.9492 37.0654 42.0052 36.9314C42.0611 36.7975 42.1432 36.6758 42.2466 36.5733C42.35 36.4708 42.4727 36.3895 42.6078 36.334C42.7429 36.2786 42.8877 36.25 43.034 36.25Z" fill="#CCCCCC"/>
<path d="M43.922 42.5122C47.3868 42.5122 50.1956 39.7278 50.1956 36.2932C50.1956 32.8585 47.3868 30.0742 43.922 30.0742C40.4572 30.0742 37.6484 32.8585 37.6484 36.2932C37.6484 39.7278 40.4572 42.5122 43.922 42.5122Z" fill="#FFB8B8"/>
<path d="M36.9233 30.3098C36.9708 29.5956 37.4472 28.8648 38.9609 28.4829C38.9609 28.4829 41.5587 25.19 45.0887 26.9169C45.0887 26.9169 46.8001 26.625 48.0691 28.3851C48.0691 28.3851 49.3273 27.6496 49.8581 28.9534C49.8581 28.9534 51.3337 31.6129 50.7905 34.3255C50.2472 37.0382 49.9691 37.3767 49.9691 37.3767C49.9691 37.3767 50.6616 31.7656 46.6732 32.1547C42.6849 32.5438 39.4738 31.1534 38.5706 34.1976C37.8206 36.7253 37.9151 38.0381 37.9151 38.0381C37.9151 38.0381 35.4071 35.5165 36.2599 33.5309C36.696 32.5153 36.8502 31.4112 36.9233 30.3098Z" fill="#1A1A1A"/>
<path d="M26.8613 70.2805H61.5622C61.3303 67.6566 61.1787 57.6264 61.1787 56.9662C61.1787 54.0546 58.7753 50.8771 58.7753 50.8771L57.915 50.4057L50.7307 48.1838L48.8715 45.7898C48.6768 45.5384 48.426 45.3351 48.1387 45.1961C47.8513 45.057 47.5354 44.9859 47.2157 44.9883L41.3426 45.032C40.8258 45.036 40.3291 45.2311 39.9498 45.5792L36.313 48.9236L30.9788 51.4486L30.9698 51.4397L30.9141 51.4808L30.1224 52.0459L29.6132 52.4106C29.6132 52.4106 28.2775 53.9994 27.2099 58.7643C27.0492 59.481 26.9365 68.7585 26.8613 70.2805Z" fill="white"/>
<path d="M69.5944 69.0195C69.5108 69.0952 69.4263 69.1699 69.3418 69.2447C69.0219 69.5266 68.6976 69.8037 68.3687 70.076C67.8717 70.4867 67.3644 70.8851 66.8468 71.2712H20.1327C19.1815 70.5633 18.2653 69.8127 17.3843 69.0195H69.5944Z" fill="#CCCCCC"/>
<path d="M52.4711 69.5589H35.2988L35.6622 67.8477H52.1076L52.4711 69.5589Z" fill="#1A1A1A"/>
<path d="M68.0068 62.1738H63.5384C63.4375 62.1735 63.3378 62.1952 63.2463 62.2372C63.1548 62.2792 63.0737 62.3406 63.0087 62.417C62.9464 62.4051 62.8831 62.3991 62.8197 62.399C62.6804 62.3989 62.5425 62.4259 62.4138 62.4787C62.2851 62.5314 62.1681 62.6088 62.0696 62.7064C61.9711 62.8039 61.8929 62.9198 61.8396 63.0473C61.7862 63.1749 61.7588 63.3116 61.7588 63.4496C61.7588 63.5877 61.7862 63.7244 61.8396 63.8519C61.8929 63.9795 61.9711 64.0953 62.0696 64.1929C62.1681 64.2905 62.2851 64.3679 62.4138 64.4206C62.5425 64.4733 62.6804 64.5004 62.8197 64.5003C62.9797 64.5002 63.1376 64.4639 63.2813 64.394L63.3558 65.3019L63.652 68.8902C63.666 68.935 63.6849 68.9782 63.7083 69.019C63.7682 69.1279 63.8565 69.2189 63.9641 69.2823C64.0717 69.3457 64.1946 69.3792 64.3198 69.3793H67.2254C67.3507 69.3791 67.4736 69.3456 67.5814 69.2822C67.6891 69.2188 67.7777 69.1279 67.8378 69.019C67.8605 68.978 67.8791 68.9348 67.8932 68.8902L68.6746 63.07C68.7068 62.9664 68.7139 62.8568 68.6955 62.75C68.6772 62.6431 68.6337 62.5421 68.5688 62.4549C68.5038 62.3677 68.4191 62.2969 68.3215 62.2481C68.2239 62.1993 68.1161 62.1738 68.0068 62.1738ZM62.8197 64.2004C62.619 64.2001 62.4266 64.1209 62.2848 63.9802C62.1429 63.8394 62.0633 63.6486 62.0633 63.4496C62.0633 63.2507 62.1429 63.0599 62.2848 62.9191C62.4266 62.7783 62.619 62.6992 62.8197 62.6989C62.8333 62.6989 62.846 62.7025 62.8597 62.7034C62.8298 62.8243 62.8335 62.951 62.8706 63.07L63.1904 64.1004C63.0778 64.1653 62.9499 64.1997 62.8197 64.2004Z" fill="#1A1A1A"/>
<path d="M57.9143 43.1309H29.6282C29.3852 43.1312 29.1522 43.2271 28.9804 43.3975C28.8085 43.5678 28.7118 43.7987 28.7114 44.0396V62.9611C28.7117 63.202 28.8083 63.433 28.9802 63.6034C29.1521 63.7738 29.3851 63.8696 29.6282 63.8698H57.9143C58.1574 63.8696 58.3904 63.7738 58.5623 63.6034C58.7342 63.433 58.8308 63.202 58.8311 62.9611V44.0396C58.8307 43.7987 58.734 43.5678 58.5621 43.3975C58.3903 43.2271 58.1573 43.1312 57.9143 43.1309Z" fill="#1A1A1A"/>
<path d="M46.9566 58.291H40.3393C40.2457 58.2912 40.156 58.3281 40.0899 58.3938C40.0238 58.4595 39.9867 58.5486 39.9868 58.6414V69.0037H47.31V58.6414C47.31 58.5954 47.3009 58.5498 47.2832 58.5073C47.2654 58.4648 47.2394 58.4261 47.2066 58.3936C47.1737 58.361 47.1348 58.3352 47.0919 58.3176C47.049 58.3 47.003 58.291 46.9566 58.291ZM43.6702 64.1787C43.4633 64.1778 43.2651 64.0959 43.1188 63.9508C42.9724 63.8058 42.8898 63.6093 42.8888 63.4042V62.209C42.8891 62.0037 42.9715 61.8069 43.118 61.6618C43.2645 61.5168 43.4631 61.4353 43.6702 61.4353C43.8773 61.4353 44.0759 61.5168 44.2224 61.6618C44.3689 61.8069 44.4514 62.0037 44.4516 62.209V63.4042C44.4506 63.6093 44.368 63.8058 44.2217 63.9508C44.0754 64.0959 43.8772 64.1778 43.6702 64.1787Z" fill="#1A1A1A"/>
<path d="M39.9644 68.6719V69.6716C39.9645 69.7234 39.9853 69.7731 40.0222 69.8097C40.0592 69.8463 40.1093 69.867 40.1615 69.8671H47.1358C47.188 69.8668 47.238 69.8461 47.275 69.8095C47.3119 69.7729 47.3327 69.7234 47.333 69.6716V68.6719H39.9644Z" fill="#1A1A1A"/>
<path d="M57.3128 62.7623C57.5594 62.7623 57.7593 62.5641 57.7593 62.3196C57.7593 62.0751 57.5594 61.877 57.3128 61.877C57.0661 61.877 56.8662 62.0751 56.8662 62.3196C56.8662 62.5641 57.0661 62.7623 57.3128 62.7623Z" fill="#1A1A1A"/>
<path d="M33.1988 61.6777C33.1782 61.6777 33.1579 61.6817 33.139 61.6895C33.12 61.6973 33.1028 61.7087 33.0883 61.7231C33.0737 61.7375 33.0622 61.7546 33.0544 61.7734C33.0465 61.7922 33.0425 61.8123 33.0425 61.8326V62.6298C33.0426 62.6708 33.0591 62.7101 33.0884 62.739C33.1177 62.768 33.1574 62.7843 33.1988 62.7843C33.2401 62.7843 33.2798 62.768 33.3091 62.739C33.3384 62.7101 33.3549 62.6708 33.355 62.6298V61.8326C33.355 61.8123 33.351 61.7922 33.3431 61.7734C33.3353 61.7546 33.3238 61.7375 33.3093 61.7231C33.2948 61.7087 33.2775 61.6973 33.2586 61.6895C33.2396 61.6817 33.2193 61.6777 33.1988 61.6777Z" fill="#1A1A1A"/>
<path d="M34.0474 61.6777C34.0269 61.6777 34.0065 61.6817 33.9876 61.6895C33.9686 61.6973 33.9514 61.7087 33.9369 61.7231C33.9224 61.7375 33.9109 61.7546 33.903 61.7734C33.8952 61.7922 33.8911 61.8123 33.8911 61.8326V62.6298C33.8911 62.6708 33.9076 62.7102 33.9369 62.7393C33.9662 62.7683 34.0059 62.7847 34.0474 62.7847C34.0888 62.7847 34.1286 62.7683 34.1579 62.7393C34.1872 62.7102 34.2037 62.6708 34.2037 62.6298V61.8326C34.2037 61.8123 34.1996 61.7922 34.1918 61.7734C34.1839 61.7546 34.1724 61.7375 34.1579 61.7231C34.1434 61.7087 34.1262 61.6973 34.1072 61.6895C34.0882 61.6817 34.0679 61.6777 34.0474 61.6777Z" fill="#1A1A1A"/>
<path d="M34.896 61.6777C34.8755 61.6777 34.8552 61.6817 34.8362 61.6895C34.8173 61.6973 34.8 61.7087 34.7855 61.7231C34.771 61.7375 34.7595 61.7546 34.7516 61.7734C34.7438 61.7922 34.7397 61.8123 34.7397 61.8326V62.6298C34.7399 62.6708 34.7564 62.7101 34.7857 62.739C34.815 62.768 34.8546 62.7843 34.896 62.7843C34.9374 62.7843 34.9771 62.768 35.0064 62.739C35.0357 62.7101 35.0522 62.6708 35.0523 62.6298V61.8326C35.0523 61.8123 35.0483 61.7922 35.0404 61.7734C35.0326 61.7546 35.021 61.7375 35.0065 61.7231C34.992 61.7087 34.9748 61.6973 34.9558 61.6895C34.9369 61.6817 34.9165 61.6777 34.896 61.6777Z" fill="#1A1A1A"/>
<path d="M35.7447 61.6777C35.7241 61.6777 35.7038 61.6817 35.6848 61.6895C35.6659 61.6973 35.6487 61.7087 35.6341 61.7231C35.6196 61.7375 35.6081 61.7546 35.6003 61.7734C35.5924 61.7922 35.5884 61.8123 35.5884 61.8326V62.6298C35.5885 62.6708 35.605 62.7101 35.6343 62.739C35.6636 62.768 35.7033 62.7843 35.7447 62.7843C35.786 62.7843 35.8257 62.768 35.855 62.739C35.8843 62.7101 35.9008 62.6708 35.9009 62.6298V61.8326C35.9009 61.8123 35.8969 61.7922 35.889 61.7734C35.8812 61.7546 35.8697 61.7375 35.8552 61.7231C35.8406 61.7087 35.8234 61.6973 35.8045 61.6895C35.7855 61.6817 35.7652 61.6777 35.7447 61.6777Z" fill="#1A1A1A"/>
<path d="M36.4219 69.1093C37.7266 69.1093 38.7842 68.0609 38.7842 66.7675C38.7842 65.4742 37.7266 64.4258 36.4219 64.4258C35.1172 64.4258 34.0596 65.4742 34.0596 66.7675C34.0596 68.0609 35.1172 69.1093 36.4219 69.1093Z" fill="#FFB8B8"/>
<path d="M52.9253 69.5585C54.23 69.5585 55.2876 68.5101 55.2876 67.2168C55.2876 65.9234 54.23 64.875 52.9253 64.875C51.6206 64.875 50.563 65.9234 50.563 67.2168C50.563 68.5101 51.6206 69.5585 52.9253 69.5585Z" fill="#FFB8B8"/>
<path d="M77.3086 38.9511C77.0752 38.5684 76.7986 38.1598 76.3654 38.0348C75.8637 37.8901 75.3483 38.1776 74.9112 38.4613C73.6039 39.3097 72.345 40.2292 71.1401 41.2156L71.1415 41.2304C72.0795 41.1663 72.8579 43.6387 73.7959 43.5746C74.4737 43.5283 75.3342 40.939 75.9331 40.6212C76.1603 40.5006 76.3819 40.3395 76.6394 40.3283C76.9594 40.3143 77.2384 40.5358 77.4576 40.7673C78.7545 42.1363 79.1298 44.2297 80.5847 45.4325C79.6673 43.1896 78.5718 41.0223 77.3086 38.9511Z" fill="#1A1A1A"/>
<path d="M79.805 42.2771C80.4892 43.5021 81.2148 44.7027 81.982 45.8789V45.8798C81.9774 45.9213 81.9711 45.9627 81.9647 46.0041C81.872 45.8636 81.7803 45.7225 81.6894 45.5808C81.0007 44.5099 80.3462 43.4186 79.726 42.3069C79.4316 41.7782 79.1445 41.2453 78.8646 40.7082C78.6484 40.292 78.4367 39.8735 78.2295 39.4526C78.1705 39.3319 78.1132 39.2112 78.056 39.0896C77.9215 38.805 77.7889 38.5186 77.6471 38.2376C77.4854 37.917 77.2882 37.5819 76.9911 37.3666C76.856 37.2645 76.6943 37.2027 76.525 37.1883C76.2865 37.1897 76.053 37.2561 75.8499 37.3801C74.3129 38.181 72.8783 39.1616 71.5769 40.301C70.2738 41.4359 69.1089 42.7179 68.1061 44.1208C68.0752 44.1641 68.0025 44.1226 68.0334 44.0785C68.156 43.9074 68.2796 43.7389 68.4068 43.5714C69.9833 41.4932 71.9163 39.7061 74.1173 38.2916C74.4871 38.0539 74.8641 37.8272 75.2485 37.6116C75.442 37.5026 75.6364 37.3955 75.8345 37.2946C76.0241 37.1844 76.2367 37.1191 76.456 37.1036C77.2101 37.0919 77.6008 37.9386 77.8688 38.5078C77.9524 38.687 78.0375 38.866 78.1241 39.0446C78.4503 39.7201 78.7892 40.3902 79.1408 41.0549C79.3571 41.4647 79.5785 41.8721 79.805 42.2771Z" fill="#1A1A1A"/>
<path d="M71.5025 39.8817C71.4587 39.8333 71.4152 39.7849 71.3711 39.7365C71.0234 39.3553 70.6504 38.9786 70.1729 38.76C69.9453 38.6526 69.6968 38.5955 69.4447 38.5927C69.1845 38.5998 68.928 38.6552 68.6885 38.7562C68.5746 38.8013 68.4633 38.8524 68.3537 38.9069C68.2284 38.9694 68.1053 39.0361 67.9828 39.1033C67.7529 39.2294 67.5259 39.3611 67.302 39.4983C66.8564 39.7713 66.4247 40.0652 66.007 40.3798C65.7904 40.543 65.5784 40.7116 65.3708 40.8855C65.1777 41.047 64.9885 41.2129 64.8032 41.3831C64.7636 41.4193 64.7044 41.3607 64.7441 41.3245C64.7929 41.2794 64.8423 41.2346 64.8917 41.1903C65.0312 41.0653 65.1729 40.9426 65.3169 40.8224C65.5795 40.6028 65.8488 40.3917 66.125 40.189C66.5544 39.8737 66.9987 39.5797 67.4577 39.3072C67.687 39.1711 67.9196 39.0407 68.1553 38.9161C68.2264 38.8784 68.2984 38.8416 68.3712 38.8068C68.5365 38.7242 68.7082 38.6549 68.8847 38.5996C69.1346 38.5194 69.3991 38.4937 69.6601 38.5241C69.912 38.5604 70.1548 38.6437 70.3755 38.7695C70.8443 39.0292 71.2079 39.4308 71.5617 39.8228C71.5974 39.8626 71.5385 39.9215 71.5025 39.8817Z" fill="#1A1A1A"/>
<path d="M68.0723 41.7167C67.9531 41.7226 67.8354 41.6891 67.7374 41.6216C67.478 41.4268 67.4848 40.9589 67.7582 40.191C67.8326 39.983 67.9492 39.7923 68.1009 39.6306C68.2526 39.469 68.4361 39.34 68.6401 39.2514C68.8311 39.1667 69.0379 39.1224 69.2472 39.1211C69.4565 39.1199 69.6638 39.1618 69.8559 39.2442C69.8894 39.2587 69.9225 39.2742 69.9551 39.2908C70.1775 39.4142 70.3859 39.5608 70.5768 39.728C70.7392 39.8677 70.9123 39.9944 71.0947 40.1072L71.1555 40.1425L71.0979 40.1828C69.626 41.21 68.6282 41.7167 68.0723 41.7167Z" fill="#1A1A1A"/>
<path d="M73.7316 35.6039C73.2477 35.6039 72.7787 35.4373 72.4048 35.1327C72.0309 34.8281 71.7752 34.4043 71.6814 33.9336C71.2767 34.0148 70.9054 34.213 70.6143 34.5033C70.3232 34.7935 70.1253 35.1627 70.0456 35.5643C69.966 35.9659 70.0081 36.3819 70.1667 36.7598C70.3253 37.1376 70.5932 37.4605 70.9368 37.6876C71.2803 37.9146 71.6839 38.0357 72.0968 38.0356C72.5097 38.0355 72.9133 37.9141 73.2566 37.6868C73.6 37.4595 73.8678 37.1365 74.0261 36.7585C74.1845 36.3805 74.2263 35.9645 74.1464 35.563C74.0099 35.5902 73.8709 35.604 73.7316 35.6039Z" fill="#1A1A1A"/>
<path opacity="0.74" d="M17.7923 38.9366C19.5146 38.9366 20.9108 37.5526 20.9108 35.8453C20.9108 34.138 19.5146 32.7539 17.7923 32.7539C16.07 32.7539 14.6738 34.138 14.6738 35.8453C14.6738 37.5526 16.07 38.9366 17.7923 38.9366Z" fill="#1A1A1A"/>
<path opacity="0.74" d="M20.911 38.9366C22.6333 38.9366 24.0295 37.5526 24.0295 35.8453C24.0295 34.138 22.6333 32.7539 20.911 32.7539C19.1887 32.7539 17.7925 34.138 17.7925 35.8453C17.7925 37.5526 19.1887 38.9366 20.911 38.9366Z" fill="white"/>
<path opacity="0.74" d="M19.3778 36.4718C21.1001 36.4718 22.4963 35.0877 22.4963 33.3804C22.4963 31.6731 21.1001 30.2891 19.3778 30.2891C17.6555 30.2891 16.2593 31.6731 16.2593 33.3804C16.2593 35.0877 17.6555 36.4718 19.3778 36.4718Z" fill="#CE4F4F"/>
<path d="M27.5322 32.4956L19.522 34.9902L19.5764 35.1621L27.5866 32.6675L27.5322 32.4956Z" fill="#1A1A1A"/>
<path d="M27.5832 32.912C27.7839 32.912 27.9466 32.7507 27.9466 32.5517C27.9466 32.3527 27.7839 32.1914 27.5832 32.1914C27.3824 32.1914 27.2197 32.3527 27.2197 32.5517C27.2197 32.7507 27.3824 32.912 27.5832 32.912Z" fill="#1A1A1A"/>
<path d="M79.585 48.7636C80.1174 49.1356 80.629 49.5148 81.2141 49.8012C81.2032 49.8453 81.1914 49.8903 81.1805 49.9345C81.1087 49.9012 81.0387 49.866 80.9688 49.83C80.3755 49.522 79.8648 49.1032 79.3079 48.7393C79.0317 48.5501 78.7302 48.4003 78.412 48.2943C78.0803 48.1955 77.7337 48.1553 77.388 48.1754C75.9461 48.2457 74.7104 49.0986 73.3703 49.5283C72.7143 49.739 72.0165 49.8516 71.3323 49.7192C70.6481 49.5868 70.0403 49.2265 69.4361 48.9005C68.8401 48.5781 68.1904 48.2538 67.4944 48.2538C66.9275 48.2547 66.3314 48.4799 66.028 48.9771C66.0186 48.9919 66.0037 49.0025 65.9865 49.0067C65.9693 49.0108 65.9511 49.0081 65.9359 48.9992C65.9206 48.9903 65.9095 48.9759 65.9048 48.959C65.9001 48.942 65.9022 48.924 65.9108 48.9086C65.9786 48.7953 66.0621 48.6919 66.1588 48.6015C66.555 48.2295 67.1374 48.0827 67.6725 48.1259C68.3649 48.1818 68.9963 48.506 69.5951 48.832C70.2302 49.1779 70.8807 49.5499 71.6149 49.6255C72.3399 49.7012 73.0577 49.513 73.7301 49.2599C75.0321 48.769 76.3168 47.9512 77.7651 48.0421C78.4484 48.0854 79.0335 48.379 79.585 48.7636Z" fill="#1A1A1A"/>
<path d="M22.5947 22.7153V22.8982C22.5337 22.8862 22.4716 22.8802 22.4094 22.8801H21.459V24.9031C21.4588 25.2026 21.3387 25.4897 21.1251 25.7015C20.9115 25.9133 20.6218 26.0323 20.3196 26.0325H18.915V26.3441C18.915 26.4691 18.94 26.5927 18.9886 26.708H18.7941C18.7535 26.5909 18.7329 26.468 18.7332 26.3441V26.0325H17.9609V25.8524H18.7332V23.8295C18.7334 23.53 18.8535 23.2428 19.0671 23.031C19.2808 22.8192 19.5705 22.7002 19.8726 22.7H21.2773V22.3848H21.459V22.7H22.4094C22.4715 22.7001 22.5335 22.7052 22.5947 22.7153Z" fill="white"/>
<path d="M20.3197 21.2578H17.7829C17.4808 21.258 17.1911 21.377 16.9775 21.5888C16.7638 21.8006 16.6437 22.0878 16.6436 22.3873V24.902C16.6437 25.2015 16.7638 25.4886 16.9775 25.7004C17.1911 25.9122 17.4808 26.0312 17.7829 26.0314H20.3197C20.6218 26.0312 20.9115 25.9122 21.1252 25.7004C21.3388 25.4886 21.4589 25.2015 21.4591 24.902V22.3837C21.458 22.0848 21.3375 21.7985 21.1239 21.5875C20.9104 21.3765 20.6212 21.2579 20.3197 21.2578ZM21.2773 24.902C21.277 25.1536 21.176 25.3949 20.9965 25.5728C20.817 25.7508 20.5736 25.8509 20.3197 25.8513H17.7829C17.529 25.8509 17.2857 25.7508 17.1061 25.5728C16.9266 25.3949 16.8256 25.1536 16.8253 24.902V22.3873C16.8256 22.1356 16.9266 21.8943 17.1061 21.7164C17.2857 21.5384 17.529 21.4383 17.7829 21.4379H20.3197C20.573 21.4382 20.8158 21.5379 20.9953 21.715C21.1747 21.8922 21.2761 22.1326 21.2773 22.3837V24.902Z" fill="#1A1A1A"/>
<path d="M18.7334 25.8516V26.0317H18.9151V25.8516H18.7334ZM18.7334 25.8516V26.0317H18.9151V25.8516H18.7334ZM22.5949 22.7145C22.5336 22.7044 22.4716 22.6993 22.4095 22.6992H19.8728C19.5706 22.6994 19.2809 22.8184 19.0673 23.0302C18.8537 23.242 18.7336 23.5292 18.7334 23.8287V26.3434C18.7331 26.4672 18.7536 26.5902 18.7943 26.7072C18.871 26.9304 19.0162 27.1243 19.2096 27.2616C19.403 27.3989 19.6349 27.4727 19.8728 27.4728H22.4095C22.7117 27.4726 23.0014 27.3536 23.215 27.1418C23.4286 26.93 23.5487 26.6429 23.5489 26.3434V23.8287C23.5488 23.561 23.4529 23.3021 23.2782 23.098C23.1034 22.894 22.8613 22.7581 22.5949 22.7145ZM23.3672 26.3434C23.3669 26.595 23.2658 26.8363 23.0863 27.0143C22.9068 27.1922 22.6634 27.2923 22.4095 27.2927H19.8728C19.6189 27.2923 19.3755 27.1922 19.196 27.0142C19.0165 26.8363 18.9155 26.595 18.9151 26.3434V23.8287C18.9155 23.577 19.0165 23.3357 19.196 23.1578C19.3755 22.9798 19.6189 22.8797 19.8728 22.8794H22.4095C22.6635 22.8795 22.907 22.9795 23.0866 23.1575C23.2662 23.3355 23.3671 23.5769 23.3672 23.8287V26.3434ZM18.7334 25.8516V26.0317H18.9151V25.8516H18.7334Z" fill="#1A1A1A"/>
<path d="M16.9387 49.332H6.16287C6.08786 49.3321 6.01592 49.3616 5.96279 49.4141C5.90967 49.4666 5.87968 49.5378 5.87939 49.6121V50.2453C6.23491 51.5951 6.66533 52.9245 7.16868 54.2272H16.9387C16.9758 54.2273 17.0126 54.22 17.0469 54.206C17.0812 54.1919 17.1123 54.1713 17.1386 54.1453C17.1648 54.1192 17.1857 54.0883 17.1998 54.0543C17.214 54.0203 17.2213 53.9839 17.2213 53.9471V49.6121C17.2212 49.5379 17.1914 49.4667 17.1384 49.4142C17.0854 49.3616 17.0136 49.3321 16.9387 49.332Z" fill="white"/>
<path d="M15.9123 55.6329H7.74414C7.84136 55.8589 7.9404 56.0832 8.04307 56.3066H15.9123C16.3557 56.3129 16.3512 55.6265 15.9123 55.6329Z" fill="#E4E4E4"/>
<path d="M15.9121 57.1758H8.45264C8.56166 57.4019 8.67372 57.6265 8.78881 57.8495H15.9121C16.3555 57.8558 16.351 57.1704 15.9121 57.1758Z" fill="#E4E4E4"/>
<path d="M15.912 58.7207H9.24756C9.36931 58.9468 9.49469 59.1711 9.62189 59.3945H15.912C16.3554 59.4008 16.3509 58.7144 15.912 58.7207Z" fill="#E4E4E4"/>
<path d="M71.7769 17.2031H71.7251C71.8862 17.2033 72.0452 17.2405 72.1893 17.312H71.9537C71.6998 17.3122 71.4564 17.4123 71.2769 17.5903C71.0974 17.7683 70.9964 18.0096 70.9961 18.2612V20.776C70.9964 21.0277 71.0974 21.269 71.2769 21.4469C71.4564 21.6249 71.6998 21.725 71.9537 21.7253H72.1039C71.9832 21.7722 71.8547 21.7964 71.7251 21.7966H71.7769C72.0548 21.7963 72.3213 21.6867 72.5179 21.4918C72.7144 21.297 72.825 21.0328 72.8253 20.7572V18.2425C72.825 17.9669 72.7144 17.7027 72.5179 17.5079C72.3213 17.313 72.0548 17.2034 71.7769 17.2031Z" fill="#1A1A1A"/>
<path opacity="0.21" d="M71.7769 17.2031H71.7251C71.8862 17.2033 72.0452 17.2405 72.1893 17.312H71.9537C71.6998 17.3122 71.4564 17.4123 71.2769 17.5903C71.0974 17.7683 70.9964 18.0096 70.9961 18.2612V20.776C70.9964 21.0277 71.0974 21.269 71.2769 21.4469C71.4564 21.6249 71.6998 21.725 71.9537 21.7253H72.1039C71.9832 21.7722 71.8547 21.7964 71.7251 21.7966H71.7769C72.0548 21.7963 72.3213 21.6867 72.5179 21.4918C72.7144 21.297 72.825 21.0328 72.8253 20.7572V18.2425C72.825 17.9669 72.7144 17.7027 72.5179 17.5079C72.3213 17.313 72.0548 17.2034 71.7769 17.2031Z" fill="black"/>
<path d="M65.0532 17.2031H65.0015C65.1626 17.2033 65.3215 17.2405 65.4657 17.312H65.2301C64.9762 17.3122 64.7328 17.4123 64.5533 17.5903C64.3737 17.7683 64.2727 18.0096 64.2725 18.2612V20.776C64.2727 21.0277 64.3737 21.269 64.5533 21.4469C64.7328 21.6249 64.9762 21.725 65.2301 21.7253H65.3803C65.2596 21.7722 65.1311 21.7964 65.0015 21.7966H65.0532C65.3312 21.7963 65.5977 21.6867 65.7943 21.4918C65.9908 21.297 66.1014 21.0328 66.1017 20.7572V18.2425C66.1014 17.9669 65.9908 17.7027 65.7943 17.5079C65.5977 17.313 65.3312 17.2034 65.0532 17.2031Z" fill="white"/>
<path opacity="0.21" d="M65.0532 17.2031H65.0015C65.1626 17.2033 65.3215 17.2405 65.4657 17.312H65.2301C64.9762 17.3122 64.7328 17.4123 64.5533 17.5903C64.3737 17.7683 64.2727 18.0096 64.2725 18.2612V20.776C64.2727 21.0277 64.3737 21.269 64.5533 21.4469C64.7328 21.6249 64.9762 21.725 65.2301 21.7253H65.3803C65.2596 21.7722 65.1311 21.7964 65.0015 21.7966H65.0532C65.3312 21.7963 65.5977 21.6867 65.7943 21.4918C65.9908 21.297 66.1014 21.0328 66.1017 20.7572V18.2425C66.1014 17.9669 65.9908 17.7027 65.7943 17.5079C65.5977 17.313 65.3312 17.2034 65.0532 17.2031Z" fill="black"/>
<path d="M65.2402 21.7331C64.9863 21.7328 64.7429 21.6327 64.5634 21.4547C64.3839 21.2768 64.2829 21.0355 64.2826 20.7838V18.269C64.2829 18.0174 64.3839 17.7761 64.5634 17.5981C64.7429 17.4202 64.9863 17.3201 65.2402 17.3198H65.4758C65.3317 17.2483 65.1727 17.2111 65.0116 17.2109H62.4747C62.1968 17.2113 61.9303 17.3209 61.7337 17.5157C61.5372 17.7105 61.4266 17.9747 61.4263 18.2503V20.7651C61.4266 21.0406 61.5372 21.3048 61.7337 21.4996C61.9303 21.6945 62.1968 21.8041 62.4747 21.8044H65.0116C65.1412 21.8042 65.2697 21.78 65.3904 21.7331L65.2402 21.7331Z" fill="white"/>
<path d="M71.9638 21.7331C71.7099 21.7328 71.4665 21.6327 71.287 21.4547C71.1075 21.2768 71.0065 21.0355 71.0062 20.7838V18.269C71.0065 18.0174 71.1075 17.7761 71.287 17.5981C71.4665 17.4202 71.7099 17.3201 71.9638 17.3198H72.1994C72.0553 17.2483 71.8964 17.2111 71.7352 17.2109H69.1984C68.9204 17.2113 68.6539 17.3209 68.4573 17.5157C68.2608 17.7105 68.1502 17.9747 68.1499 18.2503V20.7651C68.1502 21.0406 68.2608 21.3048 68.4573 21.4996C68.6539 21.6945 68.9204 21.8041 69.1984 21.8044H71.7352C71.8649 21.8042 71.9933 21.78 72.114 21.7331L71.9638 21.7331Z" fill="#1A1A1A"/>
<path d="M74.9594 17.8359C75.8904 19.1056 76.7421 20.4306 77.5098 21.8034H75.9216C75.6436 21.803 75.3771 21.6934 75.1806 21.4985C74.9841 21.3037 74.8735 21.0396 74.873 20.764V18.2493C74.873 18.1071 74.9023 17.9664 74.9594 17.8359Z" fill="#CE4F4F"/>
<path d="M71.775 23.1233L70.8864 21.8038L70.2367 20.8392C70.1988 20.7829 70.1456 20.7383 70.0832 20.7107C70.0208 20.6832 69.9518 20.6737 69.8842 20.6834C69.8166 20.6931 69.7531 20.7216 69.7012 20.7656C69.6492 20.8096 69.6109 20.8673 69.5907 20.932L69.3172 21.8038L68.7666 23.5556C68.7449 23.6254 68.7451 23.7002 68.7673 23.7698C68.7895 23.8395 68.8326 23.9007 68.8909 23.9455C68.9491 23.9902 69.0198 24.0163 69.0934 24.0201C69.1669 24.024 69.24 24.0056 69.3027 23.9673L69.498 23.8475C69.5374 23.8234 69.5822 23.8098 69.6284 23.8077C69.6745 23.8057 69.7204 23.8154 69.7617 23.8359C69.803 23.8563 69.8384 23.8869 69.8644 23.9247C69.8905 23.9625 69.9063 24.0063 69.9105 24.0519L70.0895 25.9884C70.0979 26.0773 70.1394 26.16 70.2059 26.2203C70.2724 26.2805 70.3592 26.3141 70.4493 26.3144C70.4602 26.3144 70.4711 26.3135 70.483 26.3126L70.7573 26.2883C70.8047 26.284 70.8507 26.2706 70.8928 26.2487C70.9348 26.2267 70.9721 26.1968 71.0025 26.1606C71.0329 26.1244 71.0558 26.0825 71.0698 26.0375C71.0839 25.9925 71.0889 25.9452 71.0844 25.8983L70.9 23.8988C70.8956 23.8518 70.9038 23.8046 70.9237 23.7617C70.9437 23.7189 70.9746 23.682 71.0135 23.6548C71.0523 23.6276 71.0978 23.611 71.1452 23.6067C71.1925 23.6024 71.2402 23.6106 71.2834 23.6304L71.3234 23.6484C71.395 23.6811 71.4754 23.6897 71.5523 23.6729C71.6293 23.6561 71.6986 23.6148 71.7498 23.5554C71.8009 23.4959 71.831 23.4215 71.8356 23.3435C71.8401 23.2656 71.8188 23.1882 71.775 23.1233Z" fill="#CCCCCC"/>
</g>
<defs>
<clipPath id="clip0_155_4305">
<rect width="82" height="79" fill="white"/>
</clipPath>
</defs>
</svg>
