<svg width="98" height="85" viewBox="0 0 98 85" fill="none" xmlns="http://www.w3.org/2000/svg">
<g clip-path="url(#clip0_155_4384)">
<path d="M86.1589 81.8383C87.2305 83.9618 89.5722 84.9105 89.5722 84.9105C89.5722 84.9105 90.1767 82.4164 89.1052 80.2929C88.0336 78.1694 85.6918 77.2207 85.6918 77.2207C85.6918 77.2207 85.0874 79.7148 86.1589 81.8383Z" fill="#F1F1F1"/>
<path d="M86.9357 81.1625C88.919 82.4329 89.6454 84.893 89.6454 84.893C89.6454 84.893 87.1563 85.2932 85.173 84.0228C83.1898 82.7523 82.4634 80.2922 82.4634 80.2922C82.4634 80.2922 84.9525 79.892 86.9357 81.1625Z" fill="#F1F1F1"/>
<path d="M59.0671 83.4401H57.6762L57.0146 77.9707L59.0673 77.9708L59.0671 83.4401Z" fill="#FFB7B7"/>
<path d="M59.422 84.8141L54.9375 84.814V84.7561C54.9375 84.2842 55.1214 83.8315 55.4488 83.4978C55.7761 83.1641 56.2201 82.9766 56.683 82.9766L59.4221 82.9767L59.422 84.8141Z" fill="#1A1A1A"/>
<path d="M67.6887 83.4401H66.2978L65.6362 77.9707L67.6889 77.9708L67.6887 83.4401Z" fill="#FFB7B7"/>
<path d="M68.0436 84.8141L63.5591 84.814V84.7561C63.5591 84.2842 63.743 83.8315 64.0704 83.4978C64.3977 83.1641 64.8416 82.9766 65.3046 82.9766L68.0437 82.9767L68.0436 84.8141Z" fill="#1A1A1A"/>
<path d="M63.6501 52.632L60.9137 47.0177L61.6185 42.3608L58.3286 41.4355L57.9883 47.6812L62.2546 53.5924C62.224 53.8138 62.2569 54.0396 62.3495 54.2422C62.4421 54.4449 62.5904 54.6159 62.7764 54.7344C62.9623 54.8529 63.178 54.9139 63.3973 54.91C63.6166 54.9061 63.83 54.8374 64.0118 54.7123C64.1936 54.5872 64.3358 54.411 64.4214 54.2051C64.507 53.9993 64.5321 53.7725 64.4939 53.5523C64.4556 53.3322 64.3555 53.1281 64.2058 52.9647C64.056 52.8014 63.863 52.6858 63.6501 52.632Z" fill="#FFB7B7"/>
<path d="M69.5701 52.632L72.3065 47.0177L71.6018 42.3608L74.8916 41.4355L75.232 47.6812L70.9656 53.5924C70.9963 53.8138 70.9633 54.0396 70.8707 54.2422C70.7781 54.4449 70.6298 54.6159 70.4439 54.7344C70.2579 54.8529 70.0422 54.9139 69.823 54.91C69.6037 54.9061 69.3902 54.8374 69.2085 54.7123C69.0267 54.5872 68.8844 54.411 68.7988 54.2051C68.7133 53.9993 68.6881 53.7725 68.7264 53.5523C68.7647 53.3322 68.8647 53.1281 69.0145 52.9647C69.1642 52.8014 69.3572 52.6858 69.5701 52.632Z" fill="#FFB7B7"/>
<path d="M67.7435 33.4448C69.3965 33.4448 70.7365 32.0786 70.7365 30.3933C70.7365 28.708 69.3965 27.3418 67.7435 27.3418C66.0905 27.3418 64.7505 28.708 64.7505 30.3933C64.7505 32.0786 66.0905 33.4448 67.7435 33.4448Z" fill="#FFB9B9"/>
<path d="M64.7733 30.3762C64.7733 30.3762 64.4486 29.8796 64.5735 29.3448C64.6481 29.0411 64.6776 28.7278 64.6609 28.4152C64.8007 27.9519 64.9761 27.5005 65.1855 27.0654C65.4478 26.5815 65.3229 26.3778 66.1472 26.225C66.9715 26.0722 66.6343 24.977 68.8075 26.1613C68.8808 26.2657 68.9828 26.3456 69.1007 26.3909C69.2185 26.4362 69.3468 26.4449 69.4695 26.416C69.9191 26.3268 70.0815 26.9635 70.0815 26.9635C70.0815 26.9635 70.3812 26.7852 70.4936 27.0399C70.6061 27.2946 71.4075 26.8871 71.4075 28.6061C71.4075 30.3252 70.4955 31.8608 70.4955 31.8608C70.4955 31.8608 69.855 33.9212 68.3687 33.6283C66.8824 33.3354 66.667 33.5126 65.646 31.5464C65.4371 32.161 65.1162 29.8276 64.7733 30.3762Z" fill="#1A1A1A"/>
<path d="M61.1647 50.1113L60.8177 51.4986C60.8177 51.4986 59.1832 52.3039 58.529 59.5352L57.648 70.3779L56.3032 81.7411L59.0986 81.9622L61.037 74.7631L65.2246 59.6259L66.0187 71.0773L65.1352 81.4554L68.0848 81.571L70.1267 70.005C70.1267 70.005 73.2549 53.0637 71.2371 52.5706L71.0343 50.8053L61.1647 50.1113Z" fill="#1A1A1A"/>
<path d="M60.5176 37.0725L65.3326 34.3672L69.419 34.5895L74.3 37.5351L72.2656 50.4883C72.2656 50.4883 73.4318 51.8175 69.9075 51.4272C66.3831 51.037 60.6869 50.7204 60.6869 50.7204C60.6869 50.7204 60.2287 49.7936 61.2072 49.6635C62.1857 49.5334 61.3675 49.5638 61.3675 49.5638C61.3675 49.5638 60.7762 47.628 61.3675 47.2506L61.6536 43.2749L60.5176 37.0725Z" fill="#1A1A1A"/>
<path d="M61.8454 37.2731L60.5176 37.0723L57.7046 42.1887L62.275 44.2432L61.8454 37.2731Z" fill="#1A1A1A"/>
<path d="M72.7361 38.1987L74.3002 37.5352L75.8557 44.7335L71.6343 45.5487L72.7361 38.1987Z" fill="#1A1A1A"/>
<path d="M36.6253 84.9995H97.8748C97.908 84.9995 97.9399 84.9861 97.9634 84.9621C97.9869 84.9382 98.0001 84.9057 98.0001 84.8718C98.0001 84.838 97.9869 84.8055 97.9634 84.7815C97.9399 84.7576 97.908 84.7441 97.8748 84.7441H36.6253C36.592 84.7441 36.5602 84.7576 36.5367 84.7815C36.5132 84.8055 36.5 84.838 36.5 84.8718C36.5 84.9057 36.5132 84.9382 36.5367 84.9621C36.5602 84.9861 36.592 84.9995 36.6253 84.9995Z" fill="#CBCBCB"/>
<path d="M30.0612 50.7754H14.1538V58.9484H30.0612V50.7754Z" fill="white"/>
<path d="M28.1817 52.8672H16.0332V53.2871H28.1817V52.8672Z" fill="white"/>
<path d="M28.1817 54.6523H16.0332V55.0722H28.1817V54.6523Z" fill="white"/>
<path d="M28.1817 56.4375H16.0332V56.8574H28.1817V56.4375Z" fill="white"/>
<path d="M30.1862 59.0768H14.0283V50.6484H30.1862V59.0768ZM14.2788 58.8214H29.9357V50.9038H14.2788V58.8214Z" fill="#1A1A1A"/>
<path d="M18.63 40.6238C15.2623 40.6267 11.9606 39.671 9.09667 37.8646L9.02393 37.8186L9.06891 37.7444L18.5823 22.0469H36.7651V22.1342C36.7651 32.3294 28.6297 40.6238 18.63 40.6238Z" fill="white"/>
<path d="M6.96417 33.9593L6.90572 33.9224C3.69594 31.899 1.382 28.6841 0.451542 24.9553C-0.478916 21.2265 0.0467874 17.2751 1.91786 13.9338L1.95198 13.873L14.6529 21.2725L6.96417 33.9593Z" fill="#F1F1F1"/>
<path d="M36.7651 19.5697H18.5234L22.4559 1.40625L22.5394 1.42496C26.5728 2.33386 30.1811 4.61894 32.7678 7.90239C35.3545 11.1858 36.7647 15.271 36.7651 19.4824V19.5697Z" fill="white"/>
<path d="M15.6181 16.7095L3.2583 9.50869L3.29152 9.44956C4.78995 6.78084 7.08509 4.66968 9.84251 3.4237C12.5999 2.17771 15.6756 1.862 18.6212 2.52256L18.6865 2.53719L15.6181 16.7095Z" fill="#F1F1F1"/>
<path d="M61.8761 0.126953H45.9688V8.29995H61.8761V0.126953Z" fill="white"/>
<path d="M59.9971 2.2207H47.8486V2.64057H59.9971V2.2207Z" fill="white"/>
<path d="M59.9971 4.00391H47.8486V4.42377H59.9971V4.00391Z" fill="white"/>
<path d="M59.9971 5.78906H47.8486V6.20893H59.9971V5.78906Z" fill="white"/>
<path d="M62.0016 8.4284H45.8438V0H62.0016V8.4284ZM46.0943 8.173H61.7511V0.255406H46.0943V8.173Z" fill="#1A1A1A"/>
<path d="M22.2666 29.623H22.0161V50.6478H22.2666V29.623Z" fill="#1A1A1A"/>
<path d="M45.9069 4.22424L27.1011 12.8965L27.2043 13.1292L46.0102 4.45695L45.9069 4.22424Z" fill="#1A1A1A"/>
</g>
<defs>
<clipPath id="clip0_155_4384">
<rect width="98" height="85" fill="white"/>
</clipPath>
</defs>
</svg>
