<svg width="35" height="34" viewBox="0 0 35 34" fill="none" xmlns="http://www.w3.org/2000/svg">
<path d="M17.0644 19.9198C16.6703 20.521 16.3473 21.0038 16.0622 21.4773C15.5153 22.4386 15.0388 23.4434 14.3279 24.304C14.2046 24.4555 14.1659 24.6262 14.0661 24.7919C13.8186 25.2561 13.5477 25.706 13.3147 26.1465C13.0957 26.5633 12.9003 26.9946 12.6386 27.4824C12.4409 27.4907 12.1819 27.494 11.9515 27.4499C11.5752 27.3812 11.4446 27.1712 11.5974 26.8111C11.7929 26.3798 12.0262 25.9392 12.3155 25.5655C12.5906 25.2155 12.7718 24.8078 12.8918 24.3952C13.0362 23.8354 13.2978 23.3475 13.63 22.9026C13.7675 22.7275 13.8582 22.5237 13.9631 22.2963C14.2583 21.6993 14.5536 21.1024 14.8489 20.5053C15.2205 19.7282 15.6298 18.9417 16.03 18.1172C15.6874 17.9393 15.4091 18.028 15.0982 18.0643C14.6884 18.1046 14.2694 18.107 13.8739 18.1237C13.7984 18.1423 13.7138 18.1228 13.6149 18.127C11.7628 18.4822 9.90149 18.7992 8.0729 19.1687C7.23399 19.335 6.38082 19.5246 5.55129 19.729C4.91019 19.8868 4.25476 20.0684 3.64626 20.2786C3.16523 20.4374 2.74018 20.6628 2.25919 20.8217C1.57533 21.0505 1.25601 20.8872 0.926307 20.1011C1.77942 19.9112 2.32544 19.1113 3.19278 18.8977C3.9094 18.7213 4.64019 18.5213 5.34744 18.3068C6.90379 17.8027 8.53382 17.6029 10.1362 17.2892C11.5876 17.0125 13.0434 16.8357 14.4489 16.3686C14.562 16.3407 14.6661 16.2747 14.8689 16.2047C14.6955 16.0659 14.5691 15.9558 14.4517 15.8838C13.3719 15.3835 12.4488 14.6225 11.4402 14.0038C10.9242 13.6872 10.3939 13.3941 9.89211 13.0539C9.63409 12.8956 9.38121 12.6755 9.2036 12.437C8.83924 11.9216 8.43228 11.4774 7.85507 11.1556C7.31563 10.8247 7.21847 10.5056 7.51391 9.90863C7.73012 9.97637 7.92267 10.0298 8.12466 10.1212C8.96488 10.5395 9.80511 10.9577 10.6077 11.3853C11.3021 11.779 11.9733 12.1582 12.6249 12.6229C13.4408 13.1884 14.3565 13.5881 15.3141 14.0784C15.4819 13.5329 15.2727 13.0802 15.148 12.647C15.0786 12.4423 14.9806 12.2849 14.9112 12.0802C14.3045 10.3138 13.7123 8.52375 13.1199 6.73362C12.6848 5.429 12.3251 4.10596 12.2672 2.70864C12.263 2.60882 12.2354 2.49463 12.217 2.41842C12.08 1.68595 12.1948 1.33484 13.0775 0.936193C13.3465 0.809479 13.577 0.853606 13.7025 1.12514C13.8934 1.50169 14.0842 1.87815 14.1619 2.28253C14.3951 3.49561 14.7557 4.6571 15.1397 5.83307C15.1673 5.94725 15.2184 6.07589 15.246 6.19007C15.7017 7.99362 16.1576 9.7973 16.6133 11.6008C16.8484 12.4908 17.0833 13.3808 17.3561 14.2613C17.4255 14.466 17.5328 14.6615 17.6767 15.0092C17.8478 14.7251 17.971 14.5736 18.0474 14.3936C18.8196 12.6313 19.785 10.9214 20.7177 9.15933C20.9938 8.64769 21.1992 8.09295 21.4283 7.55255C21.6431 7.0359 21.8764 6.59529 22.3256 6.2225C22.7894 5.826 23.2694 5.82879 23.7671 6.06922C23.922 6.13194 24.0485 6.24189 24.2361 6.35702C22.7455 9.36587 21.26 12.3128 19.755 15.3451C19.9478 15.3985 20.0792 15.4467 20.2159 15.4333C21.6245 15.2276 23.0752 15.1126 24.4103 14.6023C24.6651 14.4992 24.9291 14.4343 25.193 14.3692C26.7394 13.9885 28.2763 13.5698 29.846 13.2034C31.0151 12.9156 32.2027 12.7038 33.3668 12.4779C33.6166 12.4367 33.8572 12.3572 34.0153 12.6813C34.1644 12.9673 34.1207 13.1999 33.8884 13.4789C33.6418 13.7815 33.3443 13.9557 32.9436 14.0342C31.8031 14.2746 30.6624 14.5152 29.5544 14.8081C28.5076 15.106 27.47 15.4422 26.4325 15.7784C26.3428 15.8206 26.2532 15.8629 26.1399 15.8906C25.6028 15.9826 25.0003 15.9696 24.4906 16.1755C23.9811 16.3817 23.5183 16.6166 22.9813 16.7085C22.1943 16.8417 21.4115 17.0748 20.6195 17.2696C20.6697 17.5599 20.9236 17.6183 21.0877 17.719C22.1525 18.4047 23.2171 19.0904 24.2961 19.7525L27.1577 21.5082C27.3688 21.6377 27.5656 21.7909 27.7625 21.9442C27.9593 22.0974 28.0899 22.3073 27.9474 22.544C27.8282 22.7951 27.6389 23.0031 27.3096 22.9632C27.0649 22.9427 26.8253 22.8606 26.5999 22.7548C26.196 22.572 25.7689 22.3746 25.3843 22.1063C24.7184 21.6654 24.0045 21.3569 23.2479 21.1198C23.093 21.0571 22.9379 20.9945 22.8115 20.8844C21.7243 20.0228 20.3895 19.6254 19.2167 18.9059C19.1933 18.8915 19.1321 18.8863 19.0332 18.8906C19.0466 19.0284 19.0223 19.1756 19.0733 19.3041C19.1978 19.7372 19.299 20.156 19.4757 20.5561C19.9075 21.5993 20.1275 22.6745 20.3095 23.7589C20.5785 25.2858 20.8853 26.8034 21.1309 28.3159C21.308 29.4622 21.3954 30.6506 21.5113 31.7917C21.5513 32.2052 21.6148 32.6334 21.669 33.0234C21.7008 33.2374 21.704 33.4988 21.4308 33.5257C21.2943 33.5391 21.0882 33.3478 21.0373 33.2193C20.5635 32.0856 20.0899 30.9519 19.9321 29.7203C19.802 28.6028 19.5728 27.4897 19.3296 26.4001C19.1733 25.753 18.9038 25.1337 18.6954 24.5193C18.5984 24.2004 18.4779 23.867 18.4421 23.5533C18.3058 22.6591 18.0046 21.8258 17.515 21.0389C17.3656 20.753 17.2828 20.4104 17.0644 19.9197L17.0644 19.9198Z" fill="#4FCE6C"/>
</svg>
