<svg width="24" height="24" viewBox="0 0 24 24" fill="none" xmlns="http://www.w3.org/2000/svg">
<path d="M11.6295 13.8934C11.3464 14.3254 11.1143 14.6723 10.9094 15.0125C10.5164 15.7033 10.1741 16.4252 9.66323 17.0436C9.57467 17.1525 9.54683 17.2752 9.47516 17.3942C9.2973 17.7278 9.10265 18.051 8.93521 18.3675C8.77787 18.6671 8.63746 18.977 8.4494 19.3275C8.30734 19.3334 8.12126 19.3358 7.95569 19.3041C7.68531 19.2547 7.59148 19.1039 7.70128 18.8451C7.84169 18.5352 8.00933 18.2186 8.21722 17.9501C8.41489 17.6986 8.54508 17.4056 8.63135 17.1092C8.73512 16.7069 8.92307 16.3563 9.16178 16.0366C9.26056 15.9108 9.32572 15.7644 9.40109 15.601C9.61324 15.172 9.82545 14.7431 10.0376 14.3141C10.3046 13.7557 10.5987 13.1906 10.8863 12.5981C10.6401 12.4703 10.4401 12.534 10.2167 12.5601C9.9223 12.5891 9.6212 12.5908 9.33701 12.6028C9.28276 12.6162 9.22199 12.6021 9.15092 12.6052C7.8201 12.8604 6.48266 13.0882 5.16873 13.3537C4.56594 13.4731 3.95289 13.6094 3.35683 13.7562C2.89618 13.8697 2.42522 14.0002 1.98798 14.1512C1.64234 14.2653 1.33692 14.4273 0.991305 14.5414C0.499923 14.7058 0.270473 14.5885 0.0335671 14.0237C0.646567 13.8872 1.03891 13.3124 1.66214 13.159C2.17706 13.0322 2.70217 12.8885 3.21036 12.7344C4.32867 12.3721 5.49992 12.2286 6.65129 12.0032C7.69421 11.8043 8.7403 11.6773 9.75018 11.3417C9.83147 11.3216 9.90623 11.2742 10.052 11.2239C9.92735 11.1242 9.83653 11.0451 9.75223 10.9933C8.97632 10.6338 8.31299 10.0871 7.58832 9.64243C7.21753 9.41493 6.83649 9.20438 6.47592 8.9599C6.29052 8.84615 6.10881 8.68802 5.98119 8.5166C5.71938 8.14632 5.42696 7.82714 5.01221 7.59591C4.6246 7.35808 4.55479 7.12885 4.76707 6.69988C4.92243 6.74855 5.06078 6.78696 5.20592 6.85261C5.80966 7.15316 6.4134 7.45371 6.99013 7.76092C7.48906 8.0438 7.97138 8.31633 8.43958 8.65024C9.02582 9.05657 9.68381 9.34376 10.3719 9.69603C10.4924 9.30409 10.3422 8.97883 10.2525 8.66754C10.2026 8.52042 10.1323 8.40736 10.0824 8.26025C9.64644 6.99103 9.22091 5.70478 8.79523 4.41848C8.48261 3.48105 8.22417 2.53038 8.18251 1.52635C8.1795 1.45462 8.15968 1.37257 8.14645 1.31781C8.04801 0.791494 8.13053 0.539206 8.76479 0.252759C8.95808 0.161709 9.12366 0.193416 9.21386 0.388526C9.35104 0.659095 9.48811 0.929598 9.54399 1.22017C9.71156 2.09182 9.97067 2.9264 10.2465 3.7714C10.2664 3.85344 10.3031 3.94587 10.3229 4.02792C10.6504 5.32385 10.978 6.61988 11.3054 7.91581C11.4744 8.55527 11.6431 9.19479 11.8392 9.82747C11.889 9.97459 11.9661 10.115 12.0695 10.3649C12.1925 10.1608 12.281 10.0519 12.3359 9.92257C12.8908 8.65624 13.5844 7.4276 14.2546 6.16147C14.453 5.79383 14.6006 5.39523 14.7652 5.00692C14.9196 4.63568 15.0872 4.31909 15.41 4.05122C15.7432 3.76632 16.0881 3.76832 16.4457 3.94108C16.557 3.98615 16.6479 4.06515 16.7828 4.14788C15.7117 6.30988 14.6443 8.42735 13.5629 10.6062C13.7014 10.6446 13.7958 10.6793 13.894 10.6696C14.9062 10.5218 15.9486 10.4391 16.9079 10.0725C17.091 9.9984 17.2807 9.95179 17.4704 9.905C18.5815 9.63146 19.6858 9.33057 20.8138 9.06736C21.6538 8.86055 22.5071 8.70837 23.3436 8.54602C23.5231 8.51639 23.6959 8.45928 23.8096 8.69217C23.9167 8.89766 23.8853 9.06479 23.7184 9.26529C23.5412 9.48275 23.3274 9.60786 23.0395 9.66428C22.22 9.83703 21.4004 10.0099 20.6042 10.2204C19.852 10.4344 19.1065 10.676 18.361 10.9176C18.2965 10.9479 18.2322 10.9783 18.1508 10.9982C17.7648 11.0643 17.3319 11.055 16.9657 11.2029C16.5995 11.3511 16.267 11.5199 15.8811 11.5859C15.3156 11.6816 14.7532 11.8491 14.1841 11.9891C14.2202 12.1976 14.4025 12.2397 14.5205 12.312C15.2856 12.8047 16.0505 13.2974 16.8259 13.7731L18.8821 15.0347C19.0337 15.1278 19.1752 15.2378 19.3166 15.348C19.4581 15.458 19.5519 15.6089 19.4495 15.779C19.3638 15.9594 19.2278 16.1089 18.9912 16.0802C18.8154 16.0655 18.6432 16.0065 18.4812 15.9305C18.191 15.7991 17.8841 15.6572 17.6078 15.4645C17.1293 15.1476 16.6163 14.926 16.0727 14.7556C15.9613 14.7106 15.8499 14.6656 15.7591 14.5865C14.9779 13.9674 14.0188 13.6819 13.1761 13.1648C13.1593 13.1545 13.1153 13.1508 13.0443 13.1538C13.0539 13.2528 13.0364 13.3586 13.073 13.451C13.1625 13.7622 13.2352 14.0631 13.3622 14.3506C13.6725 15.1002 13.8305 15.8728 13.9613 16.652C14.1546 17.7491 14.3751 18.8396 14.5515 19.9263C14.6788 20.75 14.7416 21.6039 14.8249 22.4239C14.8536 22.721 14.8992 23.0287 14.9382 23.3089C14.961 23.4627 14.9633 23.6505 14.767 23.6698C14.6689 23.6795 14.5209 23.542 14.4842 23.4497C14.1438 22.6351 13.8035 21.8204 13.6901 20.9355C13.5966 20.1325 13.432 19.3327 13.2572 18.5498C13.1449 18.0848 12.9512 17.6398 12.8015 17.1984C12.7318 16.9692 12.6452 16.7296 12.6195 16.5042C12.5216 15.8617 12.3051 15.263 11.9533 14.6975C11.846 14.4921 11.7865 14.2459 11.6295 13.8933L11.6295 13.8934Z" fill="#4FCE6C"/>
</svg>
