<svg width="54" height="39" viewBox="0 0 54 39" fill="none" xmlns="http://www.w3.org/2000/svg">
<path d="M23.5983 30.8725C22.5571 31.3993 21.7118 31.8171 20.9275 32.2528C19.3804 33.1636 17.8979 34.1936 16.1999 34.8274C15.9037 34.9405 15.7115 35.1501 15.4372 35.3025C14.7135 35.7559 13.9683 36.1698 13.2842 36.6016C12.6391 37.0115 12.0157 37.461 11.2529 37.9361C10.9667 37.7857 10.5979 37.578 10.3076 37.3266C9.83082 36.9209 9.81516 36.5169 10.3211 36.133C10.9446 35.6834 11.6292 35.2517 12.339 34.9607C13.0098 34.6913 13.5941 34.2635 14.096 33.7786C14.7508 33.1055 15.5134 32.6301 16.3412 32.2735C16.6765 32.1386 16.9688 31.9249 17.3001 31.6894C18.1982 31.0872 19.0962 30.4855 19.9943 29.8834C21.1453 29.0894 22.3572 28.313 23.5867 27.4753C23.2454 26.9429 22.7805 26.8399 22.3117 26.6363C21.6998 26.3573 21.1054 26.0169 20.5327 25.7163C20.411 25.6806 20.3072 25.5836 20.1639 25.5085C17.2591 24.4918 14.3721 23.4136 11.4892 22.4363C10.1691 21.9834 8.81012 21.5518 7.47269 21.1605C6.43916 20.8579 5.36619 20.5772 4.33662 20.3753C3.52865 20.2053 2.74615 20.1755 1.9382 20.0056C0.787053 19.7683 0.467002 19.2755 0.633535 17.8937C1.99266 18.3248 3.40862 17.6415 4.8069 18.0509C5.96219 18.3892 7.15653 18.7057 8.3292 18.9824C10.9356 19.546 13.4012 20.6004 15.9194 21.4709C18.1944 22.27 20.3953 23.214 22.7585 23.7061C22.9409 23.7595 23.1411 23.7516 23.4843 23.8189C23.3508 23.4804 23.2607 23.2211 23.1528 23.023C22.0287 21.4299 21.3358 19.5969 20.4079 17.8949C19.9331 17.024 19.4192 16.1748 18.9835 15.2822C18.7461 14.8467 18.5656 14.3281 18.5065 13.8451C18.4061 12.8177 18.1883 11.8558 17.6311 10.9274C17.1348 10.017 17.2542 9.48625 18.1525 8.8844C18.4037 9.15751 18.6329 9.391 18.845 9.68585C19.6964 10.9664 20.5477 12.2469 21.3385 13.5097C22.0034 14.6358 22.6472 15.7226 23.1945 16.914C23.8929 18.3827 24.866 19.6989 25.8253 21.1774C26.5017 20.5437 26.5704 19.7322 26.7426 19.0173C26.8093 18.6709 26.7975 18.3681 26.8642 18.0216C27.4281 15.0265 28.0316 12.0097 28.6349 8.99262C29.0698 6.79111 29.6262 4.62539 30.669 2.60208C30.7434 2.45749 30.7963 2.27341 30.8316 2.15055C31.2275 1.0025 31.6725 0.600224 33.2415 0.760474C33.7239 0.801922 34.0142 1.0533 33.9731 1.54019C33.94 2.22919 33.9067 2.91794 33.6911 3.5535C33.0444 5.46003 32.6194 7.39807 32.2157 9.37574C32.1628 9.55982 32.1316 9.78366 32.0787 9.96774C31.2713 12.8917 30.4641 15.8159 29.6567 18.7398C29.2728 20.1909 28.8885 21.642 28.5655 23.1108C28.4988 23.4572 28.4932 23.8215 28.4168 24.4312C28.8874 24.1698 29.1836 24.0567 29.4364 23.8648C31.9469 22.0063 34.6883 20.3802 37.4255 18.6537C38.2277 18.1566 38.9647 17.5407 39.7236 16.9645C40.4431 16.4101 41.1277 15.9784 42.063 15.8197C43.0378 15.6394 43.7143 16.037 44.2245 16.7852C44.3931 17.0009 44.4834 17.2601 44.6561 17.5768C40.1265 20.6088 35.654 23.5573 31.0851 26.6106C31.3148 26.8442 31.4617 27.0202 31.6657 27.1133C33.8231 27.9778 35.9669 29.0048 38.2655 29.3782C38.7087 29.4414 39.1342 29.5662 39.5598 29.6906C42.0527 30.4205 44.563 31.0888 47.0774 31.8582C48.9621 32.4101 50.8118 33.0846 52.6397 33.7198C53.0261 33.8664 53.4302 33.9513 53.3929 34.5393C53.3736 35.0659 53.1245 35.3589 52.5714 35.5629C51.9792 35.7887 51.4183 35.7908 50.7886 35.5733C48.9824 34.9779 47.1759 34.3825 45.3734 33.888C43.6535 33.4507 41.9158 33.0751 40.1781 32.6996C40.0173 32.6857 39.8566 32.6721 39.6741 32.6184C38.8405 32.308 37.9991 31.7954 37.1127 31.6686C36.2262 31.5423 35.3828 31.4949 34.5495 31.1843C33.3295 30.7273 32.0351 30.4149 30.7584 30.0409C30.5957 30.4924 30.9076 30.7833 31.0586 31.0602C32.0123 32.9031 32.9656 34.7458 33.9584 36.5668L36.5913 41.3962C36.7855 41.7525 36.9406 42.1304 37.0956 42.5087C37.2507 42.8867 37.2663 43.2906 36.8743 43.5084C36.5035 43.7658 36.0685 43.9045 35.6349 43.578C35.3055 43.3484 35.0328 43.0358 34.7992 42.7014C34.3753 42.1116 33.9302 41.4822 33.6025 40.7875C33.0158 39.6179 32.2546 38.5963 31.3757 37.6405C31.2071 37.4247 31.0382 37.2091 30.9481 36.9498C30.1043 34.8398 28.5369 33.1833 27.4578 31.204C27.4362 31.1645 27.3539 31.107 27.2107 31.0319C27.1186 31.2377 26.9657 31.4259 26.9343 31.6494C26.7619 32.364 26.5679 33.0391 26.4956 33.7498C26.2665 35.579 25.7121 37.2797 25.0966 38.9623C24.2479 41.3418 23.4601 43.7393 22.5899 46.0794C21.9176 47.8454 21.0847 49.5974 20.33 51.306C20.0537 51.9235 19.7988 52.581 19.5616 53.1769C19.4342 53.5056 19.2284 53.8779 18.8205 53.6918C18.6166 53.5989 18.4792 53.1593 18.5106 52.9358C18.7532 50.9443 18.9961 48.9528 19.7643 47.082C20.4798 45.3952 21.0519 43.6334 21.5851 41.8932C21.8849 40.85 22.0023 39.7533 22.2022 38.7138C22.3218 38.1833 22.4196 37.613 22.6215 37.14C23.1487 35.7639 23.3934 34.3386 23.3346 32.8244C23.3535 32.2976 23.5122 31.7454 23.5983 30.8723L23.5983 30.8725Z" fill="#4FCE6C"/>
</svg>
