<svg width="249" height="205" viewBox="0 0 249 205" fill="none" xmlns="http://www.w3.org/2000/svg">
<g clip-path="url(#clip0_438_3484)">
<path d="M212.574 178.754C212.261 179.19 211.945 179.623 211.632 180.053C210.734 180.671 209.667 181.001 208.576 180.999H40.4242C39.3814 181 38.3606 180.699 37.4856 180.133C37.1952 179.751 36.908 179.365 36.6176 178.98L36.908 178.821L122.034 131.727C122.789 131.31 123.638 131.091 124.501 131.09C125.364 131.089 126.213 131.306 126.97 131.721L212.287 178.595L212.574 178.754Z" fill="url(#paint0_linear_438_3484)"/>
<path d="M208.576 79.7293L134.8 37.2054C131.697 35.4169 128.177 34.4744 124.594 34.4727C121.011 34.4709 117.49 35.4099 114.385 37.1954L40.4242 79.7293C38.9863 79.7313 37.6078 80.3024 36.591 81.3172C35.5742 82.332 35.002 83.7079 35 85.1431V175.585C35.0017 177.021 35.5737 178.397 36.5906 179.412C37.6075 180.426 38.9862 180.997 40.4242 180.999H208.576C210.014 180.997 211.392 180.425 212.409 179.411C213.425 178.396 213.998 177.02 214 175.585V85.1431C213.998 83.7079 213.426 82.332 212.409 81.3172C211.392 80.3024 210.014 79.7313 208.576 79.7293ZM213.362 175.585C213.359 176.851 212.854 178.064 211.957 178.96C211.06 179.855 209.844 180.359 208.576 180.362H40.4242C39.1556 180.36 37.9396 179.856 37.0425 178.961C36.1454 178.065 35.6404 176.851 35.6381 175.585V85.1431C35.6397 83.8767 36.1444 82.6625 37.0417 81.767C37.9389 80.8715 39.1554 80.3678 40.4242 80.3662L114.385 37.8323C117.49 36.0468 121.011 35.1078 124.594 35.1096C128.177 35.1113 131.697 36.0538 134.8 37.8423L208.576 80.3662C209.845 80.3678 211.061 80.8715 211.958 81.767C212.856 82.6625 213.36 83.8767 213.362 85.1431V175.585Z" fill="#D5D5D5"/>
<path d="M124.596 130.901C124.04 130.903 123.488 130.811 122.963 130.628L122.867 130.594L122.847 130.38C122.787 130.409 122.726 130.437 122.666 130.464L122.601 130.492L122.537 130.464C122.403 130.405 122.269 130.338 122.14 130.266L63.3975 97.3204V30.0516C63.3993 28.4897 64.0217 26.9922 65.1284 25.8877C66.235 24.7832 67.7354 24.1619 69.3004 24.1602H179.7C181.265 24.1619 182.765 24.7832 183.872 25.8877C184.978 26.9922 185.601 28.4897 185.603 30.0516V97.4064L185.521 97.4521L127.051 130.266C126.3 130.684 125.455 130.902 124.596 130.901Z" fill="white"/>
<path d="M124.596 131.059C124.022 131.061 123.452 130.966 122.91 130.777L122.717 130.709L122.709 130.618L122.601 130.665L122.473 130.609C122.334 130.548 122.196 130.479 122.062 130.404L63.238 97.4128V30.0507C63.2398 28.4465 63.8791 26.9086 65.0156 25.7742C66.1521 24.6399 67.6931 24.0018 69.3004 24H179.7C181.307 24.0018 182.848 24.6399 183.984 25.7742C185.121 26.9086 185.76 28.4465 185.762 30.0507V97.4986L127.129 130.404C126.355 130.835 125.482 131.061 124.596 131.059ZM123.315 130.239C124.488 130.575 125.747 130.435 126.817 129.849L185.124 97.126V30.0507C185.122 28.6154 184.55 27.2393 183.533 26.2244C182.516 25.2094 181.138 24.6385 179.7 24.6369H69.3004C67.8623 24.6385 66.4835 25.2094 65.4666 26.2244C64.4497 27.2393 63.8777 28.6154 63.8761 30.0507V97.0399L67.7017 99.1842L122.375 129.849C122.449 129.891 122.525 129.93 122.602 129.967C122.678 129.93 122.754 129.891 122.828 129.849L123.258 129.607L123.315 130.239Z" fill="#D5D5D5"/>
<path d="M212.586 82.0807L189.431 95.0738L185.443 97.3126L126.973 130.127C126.246 130.531 125.428 130.743 124.596 130.741C124.058 130.743 123.524 130.653 123.016 130.477C122.875 130.432 122.737 130.379 122.601 130.318C122.471 130.26 122.343 130.197 122.219 130.127L67.5455 99.4622L63.5571 97.2266L36.4614 82.0298C36.3877 81.9876 36.3337 81.9181 36.311 81.8365C36.2883 81.7548 36.2988 81.6675 36.3402 81.5935C36.3817 81.5201 36.4507 81.4661 36.5321 81.4434C36.6134 81.4207 36.7005 81.4312 36.7741 81.4725L63.5571 96.4941L67.5455 98.7297L122.531 129.569C122.714 129.671 122.904 129.76 123.099 129.834C123.182 129.865 123.268 129.894 123.355 129.92C123.901 130.087 124.475 130.142 125.043 130.082C125.611 130.022 126.161 129.847 126.66 129.569L185.443 96.5833L189.431 94.3445L212.274 81.5266C212.31 81.5061 212.35 81.493 212.392 81.488C212.433 81.483 212.476 81.4862 212.516 81.4974C212.556 81.5086 212.594 81.5277 212.627 81.5535C212.66 81.5792 212.687 81.6112 212.708 81.6476C212.728 81.684 212.741 81.724 212.746 81.7655C212.751 81.807 212.748 81.849 212.737 81.8892C212.726 81.9294 212.707 81.967 212.681 81.9999C212.655 82.0328 212.623 82.0602 212.586 82.0807Z" fill="#D5D5D5"/>
<path d="M87.3519 45.0192H78.4178C77.7408 45.0192 77.0916 44.7508 76.6129 44.273C76.1342 43.7952 75.8652 43.1472 75.8652 42.4715C75.8652 41.7958 76.1342 41.1478 76.6129 40.67C77.0916 40.1922 77.7408 39.9238 78.4178 39.9238H87.3519C88.0289 39.9238 88.6781 40.1922 89.1568 40.67C89.6355 41.1478 89.9044 41.7958 89.9044 42.4715C89.9044 43.1472 89.6355 43.7952 89.1568 44.273C88.6781 44.7508 88.0289 45.0192 87.3519 45.0192Z" fill="url(#paint1_linear_438_3484)"/>
<path d="M97.8813 53.6168H78.4178C77.7408 53.6168 77.0916 53.3484 76.6129 52.8706C76.1342 52.3928 75.8652 51.7448 75.8652 51.0692C75.8652 50.3935 76.1342 49.7455 76.6129 49.2677C77.0916 48.7899 77.7408 48.5215 78.4178 48.5215H97.8813C98.5583 48.5215 99.2075 48.7899 99.6862 49.2677C100.165 49.7455 100.434 50.3935 100.434 51.0692C100.434 51.7448 100.165 52.3928 99.6862 52.8706C99.2075 53.3484 98.5583 53.6168 97.8813 53.6168Z" fill="#E6E6E6"/>
<path d="M152.259 76.5465H97.0597C96.3827 76.5465 95.7335 76.2781 95.2548 75.8003C94.7761 75.3225 94.5071 74.6745 94.5071 73.9988C94.5071 73.3232 94.7761 72.6751 95.2548 72.1974C95.7335 71.7196 96.3827 71.4512 97.0597 71.4512H152.259C152.936 71.4512 153.586 71.7196 154.064 72.1974C154.543 72.6751 154.812 73.3232 154.812 73.9988C154.812 74.6745 154.543 75.3225 154.064 75.8003C153.586 76.2781 152.936 76.5465 152.259 76.5465Z" fill="url(#paint2_linear_438_3484)"/>
<path d="M157.365 86.4176H91.6355C90.9585 86.4176 90.3092 86.1492 89.8305 85.6714C89.3518 85.1936 89.0829 84.5456 89.0829 83.8699C89.0829 83.1942 89.3518 82.5462 89.8305 82.0685C90.3092 81.5907 90.9585 81.3223 91.6355 81.3223H157.365C158.042 81.3223 158.691 81.5907 159.169 82.0685C159.648 82.5462 159.917 83.1942 159.917 83.8699C159.917 84.5456 159.648 85.1936 159.169 85.6714C158.691 86.1492 158.042 86.4176 157.365 86.4176Z" fill="#E6E6E6"/>
<path d="M157.365 95.9723H91.6355C90.9585 95.9723 90.3092 95.7039 89.8305 95.2261C89.3518 94.7483 89.0829 94.1003 89.0829 93.4246C89.0829 92.7489 89.3518 92.1009 89.8305 91.6231C90.3092 91.1454 90.9585 90.877 91.6355 90.877H157.365C158.042 90.877 158.691 91.1454 159.169 91.6231C159.648 92.1009 159.917 92.7489 159.917 93.4246C159.917 94.1003 159.648 94.7483 159.169 95.2261C158.691 95.7039 158.042 95.9723 157.365 95.9723Z" fill="#E6E6E6"/>
</g>
<defs>
<linearGradient id="paint0_linear_438_3484" x1="124.596" y1="131.09" x2="124.596" y2="180.999" gradientUnits="userSpaceOnUse">
<stop stop-color="#4FCE6C"/>
<stop offset="1" stop-color="#5499BD"/>
</linearGradient>
<linearGradient id="paint1_linear_438_3484" x1="82.8848" y1="39.9238" x2="82.8848" y2="45.0192" gradientUnits="userSpaceOnUse">
<stop stop-color="#4FCE6C"/>
<stop offset="1" stop-color="#5499BD"/>
</linearGradient>
<linearGradient id="paint2_linear_438_3484" x1="124.66" y1="71.4512" x2="124.66" y2="76.5465" gradientUnits="userSpaceOnUse">
<stop stop-color="#4FCE6C"/>
<stop offset="1" stop-color="#5499BD"/>
</linearGradient>
<clipPath id="clip0_438_3484">
<rect width="179" height="157" fill="white" transform="translate(35 24)"/>
</clipPath>
</defs>
</svg>
