<svg width="24" height="25" viewBox="0 0 24 25" fill="none" xmlns="http://www.w3.org/2000/svg">
<g clip-path="url(#clip0_138_869)">
<path d="M17.9679 6.79821C18.8259 7.43726 19.4218 7.88204 19.8634 8.26974C20.2939 8.6477 20.5211 8.9241 20.6676 9.19941C20.9732 9.77355 21 10.4327 21 12.4512V13.9425C21 15.9924 20.9971 17.4126 20.8291 18.4823C20.6683 19.5052 20.376 20.0672 19.8854 20.487C19.3722 20.9261 18.6482 21.2031 17.3721 21.3499C16.081 21.4984 14.3813 21.5 12 21.5C9.6187 21.5 7.91896 21.4984 6.62794 21.3499C5.35176 21.2031 4.62775 20.9261 4.11465 20.487C3.62402 20.0672 3.33166 19.5052 3.17094 18.4823C3.00288 17.4126 3 15.9924 3 13.9425L3 12.4512C3 10.4327 3.02685 9.77355 3.33235 9.19941C3.47885 8.9241 3.7061 8.6477 4.13659 8.26974C4.57818 7.88204 5.17409 7.43726 6.03209 6.79821C7.61608 5.61843 8.73442 4.78755 9.68662 4.24156C10.6129 3.71043 11.2983 3.5 12 3.5C12.7017 3.5 13.3871 3.71043 14.3134 4.24156C15.2656 4.78755 16.3839 5.61843 17.9679 6.79821Z" stroke="#F8F9FA" stroke-width="2"/>
</g>
<defs>
<clipPath id="clip0_138_869">
<rect y="0.5" width="24" height="24" rx="12" fill="white"/>
</clipPath>
</defs>
</svg>
