<svg width="280" height="304" viewBox="0 0 280 304" fill="none" xmlns="http://www.w3.org/2000/svg">
<path d="M267.512 303.241H12.1782C8.94951 303.237 5.85404 301.957 3.57096 299.68C1.28788 297.403 0.00363359 294.316 0 291.096V64.1449C0.00362059 60.925 1.28784 57.838 3.57092 55.5612C5.85399 53.2843 8.94948 52.0036 12.1782 52H267.512C270.741 52.0036 273.836 53.2843 276.119 55.5612C278.402 57.838 279.686 60.925 279.69 64.1449V291.096C279.686 294.316 278.402 297.403 276.119 299.68C273.836 301.957 270.741 303.237 267.512 303.241ZM12.1782 53.3842C9.3175 53.3875 6.57486 54.5223 4.55201 56.5396C2.52916 58.5569 1.3913 61.292 1.38804 64.1449V291.096C1.39137 293.949 2.52927 296.684 4.55211 298.702C6.57496 300.719 9.31755 301.854 12.1782 301.857H267.512C270.373 301.854 273.115 300.719 275.138 298.702C277.161 296.684 278.299 293.949 278.302 291.096V64.1449C278.299 61.292 277.161 58.5569 275.138 56.5396C273.115 54.5223 270.373 53.3875 267.512 53.3842H12.1782Z" fill="#CACACA"/>
<g clip-path="url(#clip0_152_4201)">
<path d="M29.8016 144.92C30.7275 146.464 31.9812 147.786 33.4744 148.793C34.9676 149.801 36.664 150.469 38.4441 150.751C40.2241 151.034 42.0445 150.923 43.7771 150.427C45.5097 149.931 47.1123 149.063 48.472 147.882L86.4772 169.637L85.0607 146.958L49.1875 129.776C47.0485 127.628 44.1943 126.337 41.1656 126.149C38.1369 125.961 35.1443 126.888 32.7547 128.754C30.3651 130.621 28.7447 133.298 28.2004 136.277C27.6561 139.257 28.2258 142.332 29.8016 144.92Z" fill="#FFB8B8"/>
<path d="M139.653 232.029C128.363 247.564 128.767 273.554 131.917 302H185.298L187.619 296.676L190.713 302H241C241 302 237.132 229.747 230.169 227.466C223.206 225.184 139.653 232.029 139.653 232.029Z" fill="#2F2E41"/>
<path d="M185.407 67.537C200.34 67.537 212.445 55.4557 212.445 40.5527C212.445 25.6496 200.34 13.5684 185.407 13.5684C170.475 13.5684 158.37 25.6496 158.37 40.5527C158.37 55.4557 170.475 67.537 185.407 67.537Z" fill="#FFB8B8"/>
<path d="M204.949 74.5371L210.236 84.6512L246.806 100.922L237.193 193.767L233.148 203.382L235.334 211.731L230.063 217.894C235.354 222.671 236.025 227.672 233.148 232.845L216.307 236.695C216.307 236.695 122.669 245.005 130.56 230.527C139.183 214.708 141.379 167.989 122.344 143.023C106.183 121.828 118.59 94.3256 118.59 94.3256L156.923 82.8922L171.022 74.5371L204.949 74.5371Z" fill="#4FCE6C"/>
<path d="M197.411 1.02466C197.538 0.756362 197.742 0.532092 197.998 0.38065C198.254 0.229207 198.549 0.157505 198.846 0.174755C186.468 -0.564221 173.429 0.875663 163.074 7.68351C160.565 9.33283 158.2 11.3001 155.47 12.4965C155.341 12.5543 155.229 12.6444 155.146 12.758C155.062 12.8716 155.009 13.0048 154.992 13.1448C154.975 13.2848 154.995 13.4267 155.049 13.5569C155.104 13.687 155.191 13.8009 155.302 13.8874L155.602 14.1221C155.721 14.2147 155.811 14.3379 155.864 14.4783C155.917 14.6187 155.931 14.7709 155.903 14.9184C155.876 15.0659 155.808 15.2031 155.708 15.3149C155.608 15.4267 155.479 15.509 155.335 15.5528C155.185 15.5984 155.051 15.6858 154.949 15.8047C154.847 15.9237 154.782 16.0691 154.76 16.224C154.738 16.3789 154.762 16.5368 154.827 16.6791C154.892 16.8213 154.997 16.942 155.128 17.0269L157.426 18.5091C157.542 18.5825 157.637 18.6836 157.704 18.8034C157.77 18.9231 157.805 19.0575 157.806 19.1943C157.807 19.3312 157.773 19.466 157.708 19.5864C157.643 19.7068 157.548 19.8091 157.434 19.8836C157.239 20.0036 157.035 20.1071 156.823 20.1929C156.691 20.2423 156.574 20.3249 156.483 20.4325C156.392 20.5402 156.331 20.6693 156.305 20.8075C156.279 20.9457 156.289 21.0883 156.334 21.2216C156.379 21.3548 156.458 21.4742 156.563 21.5682C157.558 22.4523 158.321 23.5659 158.786 24.812C159.552 26.7995 159.689 28.9641 159.819 31.0897C160.61 28.0228 163.964 26.2174 167.132 26.034C170.3 25.8505 173.389 26.8937 176.472 27.6436C183.187 29.2722 190.161 29.54 196.982 28.4311C194.665 33.0698 196.619 38.6029 198.585 43.3999L204.949 40.6776C213.689 35.7538 207.601 56.5821 204.333 59.4415C211.005 61.7499 228.466 36.129 222.849 26.4104C219.927 21.355 222.001 14.8346 216.256 10.0399C213.441 7.08166 207.819 8.39648 204.949 5.93785C203.819 4.97017 205.541 2.38129 203.988 1.81708C203.473 1.62969 197.496 0.835788 197.411 1.02466Z" fill="#2F2E41"/>
<path d="M151.614 85.5059C146.652 107.489 133.928 158.815 121.018 169.55C120.199 170.321 119.217 170.9 118.145 171.243C72.7671 182.276 58.2271 154.132 58.2271 154.132C58.2271 154.132 70.3879 148.218 70.6963 136.657L95.2204 144.251L116.599 96.2356L119.744 93.3069L119.762 93.2894L151.614 85.5059Z" fill="#3F3D56"/>
<path d="M248.367 288.504C249.666 287.258 250.676 285.742 251.325 284.064C251.974 282.385 252.246 280.585 252.122 278.791C251.999 276.996 251.483 275.25 250.61 273.676C249.738 272.102 248.53 270.738 247.072 269.681L259.793 227.838L237.966 234.3L229.232 273.044C227.614 275.607 226.994 278.672 227.489 281.66C227.984 284.648 229.561 287.351 231.919 289.257C234.278 291.162 237.255 292.138 240.286 291.999C243.318 291.861 246.193 290.617 248.367 288.504Z" fill="#FFB8B8"/>
<path d="M236.724 98.582L246.806 100.923C246.806 100.923 288.481 181.848 278.438 197.268C268.396 212.687 256.093 263.737 256.093 263.737C256.093 263.737 237.897 260.127 230.945 250.875L243.676 190.329L230.544 139.444L236.724 98.582Z" fill="#4FCE6C"/>
<path d="M45.439 218.753L45.801 88.4185C45.8113 85.7805 46.8697 83.2543 48.7438 81.3942C50.618 79.534 53.155 78.4918 55.7981 78.4961L154.423 78.769C157.066 78.7793 159.597 79.8356 161.461 81.7061C163.325 83.5766 164.369 86.1086 164.365 88.7465L164.003 219.082C163.992 221.719 162.934 224.246 161.06 226.106C159.186 227.966 156.649 229.008 154.006 229.004L55.3808 228.731C52.7376 228.721 50.2065 227.664 48.3427 225.794C46.4789 223.923 45.4346 221.391 45.439 218.753Z" fill="#E6E6E6"/>
<path d="M53.1135 179.408L53.3462 95.6168C53.3558 93.1463 54.347 90.7804 56.1022 89.0383C57.8574 87.2962 60.2334 86.3201 62.7088 86.3242L147.469 86.5588C149.944 86.5683 152.315 87.5575 154.06 89.3093C155.806 91.0611 156.784 93.4324 156.78 95.903L156.458 211.883C156.448 214.354 155.457 216.72 153.701 218.462C151.946 220.204 149.57 221.18 147.095 221.176L94.5877 221.031C83.5614 220.988 73.0023 216.582 65.2271 208.778C57.4519 200.975 53.0954 190.413 53.1135 179.408Z" fill="white"/>
<path d="M137.756 123.13H71.6656C70.6139 123.13 69.6053 122.713 68.8616 121.971C68.118 121.229 67.7002 120.222 67.7002 119.173C67.7002 118.123 68.118 117.116 68.8616 116.374C69.6053 115.632 70.6139 115.215 71.6656 115.215H137.756C138.808 115.215 139.817 115.632 140.56 116.374C141.304 117.116 141.722 118.123 141.722 119.173C141.722 120.222 141.304 121.229 140.56 121.971C139.817 122.713 138.808 123.13 137.756 123.13Z" fill="#5499BD"/>
<path d="M86.2056 104.88H71.6656C70.6139 104.88 69.6053 104.463 68.8616 103.721C68.118 102.979 67.7002 101.972 67.7002 100.923C67.7002 99.8729 68.118 98.8662 68.8616 98.124C69.6053 97.3818 70.6139 96.9648 71.6656 96.9648H86.2056C87.2573 96.9648 88.2659 97.3818 89.0096 98.124C89.7533 98.8662 90.1711 99.8729 90.1711 100.923C90.1711 101.972 89.7533 102.979 89.0096 103.721C88.2659 104.463 87.2573 104.88 86.2056 104.88Z" fill="#5499BD"/>
<path d="M137.756 141.378H71.6656C70.6139 141.378 69.6053 140.961 68.8616 140.219C68.118 139.477 67.7002 138.47 67.7002 137.421C67.7002 136.371 68.118 135.364 68.8616 134.622C69.6053 133.88 70.6139 133.463 71.6656 133.463H137.756C138.808 133.463 139.817 133.88 140.56 134.622C141.304 135.364 141.722 136.371 141.722 137.421C141.722 138.47 141.304 139.477 140.56 140.219C139.817 140.961 138.808 141.378 137.756 141.378Z" fill="#5499BD"/>
<path d="M137.756 159.628H71.6656C70.6139 159.628 69.6053 159.211 68.8616 158.469C68.118 157.727 67.7002 156.72 67.7002 155.671C67.7002 154.621 68.118 153.614 68.8616 152.872C69.6053 152.13 70.6139 151.713 71.6656 151.713H137.756C138.808 151.713 139.817 152.13 140.56 152.872C141.304 153.614 141.722 154.621 141.722 155.671C141.722 156.72 141.304 157.727 140.56 158.469C139.817 159.211 138.808 159.628 137.756 159.628Z" fill="#5499BD"/>
<path d="M132.409 207.714C141.123 207.714 148.187 200.664 148.187 191.966C148.187 183.269 141.123 176.219 132.409 176.219C123.695 176.219 116.63 183.269 116.63 191.966C116.63 200.664 123.695 207.714 132.409 207.714Z" fill="#4FCE6C"/>
<path d="M130.256 200.162C129.984 200.162 129.715 200.099 129.471 199.977C129.228 199.856 129.016 199.679 128.852 199.461L124.548 193.733C124.409 193.549 124.308 193.34 124.251 193.117C124.193 192.894 124.18 192.662 124.213 192.434C124.245 192.206 124.323 191.987 124.44 191.788C124.557 191.59 124.713 191.417 124.897 191.279C125.082 191.141 125.292 191.04 125.515 190.983C125.739 190.926 125.972 190.914 126.2 190.947C126.428 190.979 126.648 191.057 126.846 191.174C127.045 191.292 127.218 191.447 127.356 191.631L130.172 195.379L137.405 184.55C137.533 184.358 137.697 184.193 137.889 184.064C138.08 183.935 138.295 183.846 138.522 183.8C138.748 183.755 138.981 183.754 139.208 183.799C139.435 183.843 139.65 183.932 139.842 184.06C140.034 184.188 140.199 184.352 140.328 184.544C140.456 184.735 140.545 184.95 140.59 185.177C140.635 185.403 140.635 185.635 140.59 185.861C140.544 186.087 140.455 186.302 140.326 186.494L131.717 199.382C131.561 199.615 131.352 199.808 131.106 199.943C130.86 200.079 130.586 200.154 130.305 200.162C130.289 200.162 130.273 200.162 130.256 200.162Z" fill="white"/>
<path d="M98.7629 48.1524C102.9 48.1524 106.253 44.8055 106.253 40.6768C106.253 36.5481 102.9 33.2012 98.7629 33.2012C94.6261 33.2012 91.2726 36.5481 91.2726 40.6768C91.2726 44.8055 94.6261 48.1524 98.7629 48.1524Z" fill="#4FCE6C"/>
<path d="M71.4453 263.188C75.5821 263.188 78.9356 259.841 78.9356 255.712C78.9356 251.583 75.5821 248.236 71.4453 248.236C67.3085 248.236 63.955 251.583 63.955 255.712C63.955 259.841 67.3085 263.188 71.4453 263.188Z" fill="#4FCE6C"/>
<path d="M243.722 77.1759C247.859 77.1759 251.212 73.8289 251.212 69.7002C251.212 65.5716 247.859 62.2246 243.722 62.2246C239.585 62.2246 236.232 65.5716 236.232 69.7002C236.232 73.8289 239.585 77.1759 243.722 77.1759Z" fill="#4FCE6C"/>
</g>
<defs>
<clipPath id="clip0_152_4201">
<rect width="252" height="303" fill="white" transform="translate(28)"/>
</clipPath>
</defs>
</svg>
