<svg width="291" height="349" viewBox="0 0 291 349" fill="none" xmlns="http://www.w3.org/2000/svg">
<path d="M41.1496 292.081L39.1231 302.22C38.9704 302.995 38.8108 303.784 38.6373 304.567C36.9435 304.216 35.1873 304.314 33.5432 304.85C34.8476 306.709 36.0165 308.659 37.041 310.685C35.764 314.609 33.8902 318.236 30.7532 320.859C28.6581 322.572 26.1557 323.718 23.4874 324.186C20.8191 324.654 18.0749 324.428 15.5195 323.531L15.6097 323.129C12.2367 316.603 14.069 308.373 18.2608 302.345C20.3989 299.371 22.9321 296.7 25.791 294.406C28.6225 292.053 31.6832 289.942 34.7161 287.859C35.3972 287.392 36.2026 287.138 37.0293 287.129C37.8559 287.121 38.6663 287.358 39.3569 287.811C40.0475 288.265 40.5869 288.913 40.9063 289.673C41.2256 290.434 41.3103 291.272 41.1496 292.081Z" fill="#4FCE6C"/>
<path d="M16.2411 347.929C15.3882 341.732 14.5109 335.457 15.1092 329.194C15.6408 323.632 17.3418 318.199 20.8064 313.745C22.6452 311.385 24.8827 309.363 27.4183 307.77C28.0797 307.354 28.6877 308.399 28.0297 308.813C23.6427 311.578 20.2494 315.661 18.3391 320.473C16.2293 325.824 15.8906 331.658 16.2571 337.343C16.4771 340.78 16.9428 344.195 17.4126 347.607C17.4505 347.761 17.4277 347.924 17.349 348.062C17.2703 348.201 17.1416 348.304 16.9893 348.35C16.8343 348.392 16.6691 348.371 16.5296 348.292C16.39 348.213 16.2873 348.082 16.2439 347.928L16.2411 347.929Z" fill="#F2F2F2"/>
<path d="M23.5612 37.1213C53.2911 36.6057 83.0243 36.5317 112.761 36.8991C142.493 37.2687 172.215 38.0817 201.927 39.3383C218.599 40.0434 235.265 40.8881 251.925 41.8725C253.263 41.9514 253.258 39.8748 251.925 39.7961C222.242 38.0445 192.538 36.7338 162.812 35.8641C133.09 34.9967 103.36 34.5728 73.6215 34.5924C56.9338 34.6035 40.2471 34.7543 23.5612 35.0449C22.2229 35.0681 22.2187 37.1445 23.5612 37.1213Z" fill="#E6E6E6"/>
<path d="M230.751 24.1014L243.751 23.1365C245.079 23.0379 245.09 20.9607 243.751 21.0601L230.751 22.025C229.423 22.1236 229.412 24.2007 230.751 24.1014Z" fill="#E6E6E6"/>
<path d="M230.751 36.5604L243.751 35.5955C245.079 35.4969 245.09 33.4197 243.751 33.5191L230.751 34.484C229.423 34.5826 229.412 36.6597 230.751 36.5604Z" fill="#E6E6E6"/>
<path d="M229.773 30.8705L248.256 32.5451C249.59 32.666 249.582 30.5888 248.256 30.4687L229.773 28.7941C228.439 28.6733 228.447 30.7504 229.773 30.8705Z" fill="#E6E6E6"/>
<path d="M31.2548 21.3087C30.3508 21.3031 29.4651 21.563 28.7082 22.056C27.9512 22.549 27.3566 23.2533 26.9983 24.081C26.5974 24.8912 26.4737 25.8099 26.646 26.6968C26.8183 27.5837 27.2771 28.3899 27.9523 28.9922C28.587 29.5307 29.3483 29.9 30.165 30.0654C30.9817 30.2309 31.8271 30.1872 32.6222 29.9383C33.4354 29.6551 34.1405 29.1275 34.6406 28.4281C35.1406 27.7287 35.411 26.8919 35.4145 26.0329C35.4508 25.0799 35.1919 24.1389 34.6731 23.3378C34.1542 22.5367 33.4005 21.9144 32.5145 21.5556C32.2483 21.4834 31.9643 21.5192 31.7244 21.655C31.4845 21.7908 31.3082 22.0157 31.2339 22.2807C31.1682 22.5459 31.207 22.8261 31.3423 23.0637C31.4775 23.3012 31.699 23.4781 31.961 23.5578C32.1424 23.6277 31.7953 23.4688 31.9647 23.5609C32.0343 23.5987 32.1053 23.6329 32.1737 23.6733C32.2318 23.7076 32.2875 23.7452 32.3441 23.7821C32.5384 23.9085 32.2492 23.6892 32.3734 23.8029C32.4811 23.9015 32.5879 23.9977 32.6858 24.1065C32.7228 24.1477 32.8678 24.2621 32.7551 24.1821C32.6689 24.1209 32.7219 24.1353 32.7551 24.1844C32.7803 24.2217 32.807 24.258 32.8319 24.2955C32.913 24.418 32.9868 24.5452 33.0528 24.6764C33.0681 24.7068 33.0821 24.7378 33.0977 24.7681C33.1268 24.8247 33.1691 24.8395 33.1005 24.7686C33.0351 24.7008 33.0767 24.7055 33.1002 24.7707C33.1156 24.8135 33.1324 24.8559 33.1474 24.8989C33.1962 25.0389 33.2372 25.1816 33.2701 25.3261C33.2854 25.393 33.2976 25.4602 33.3108 25.5274C33.3573 25.7658 33.304 25.3792 33.3152 25.5563C33.3246 25.7042 33.3355 25.8504 33.333 25.9989C33.3318 26.0668 33.3288 26.1347 33.3241 26.2024C33.3217 26.2362 33.3179 26.27 33.3157 26.3038C33.3049 26.4667 33.3045 26.2442 33.3274 26.229C33.2798 26.3673 33.2482 26.5106 33.2333 26.6561C33.2147 26.7206 33.1925 26.7837 33.1718 26.8476C33.0993 27.0703 33.2398 26.7262 33.1626 26.8784C33.099 27.0092 33.028 27.1362 32.9499 27.2589C32.916 27.3102 32.7881 27.4263 32.8927 27.3455C33.0062 27.2579 32.8332 27.4088 32.7962 27.4476C32.7488 27.4975 32.6996 27.5456 32.6486 27.592C32.616 27.6238 32.5815 27.6537 32.5454 27.6815C32.5387 27.6782 32.7193 27.5613 32.622 27.6232C32.4983 27.7019 32.3812 27.786 32.2508 27.8545C32.2356 27.8625 32.069 27.9395 32.0697 27.9422C32.0625 27.9142 32.2839 27.8645 32.1319 27.9134C32.1 27.9237 32.0687 27.9362 32.0369 27.9468C31.8985 27.9933 31.7572 28.0308 31.614 28.0592C31.5812 28.0657 31.5465 28.069 31.5142 28.0773C31.4066 28.1051 31.617 28.0611 31.6234 28.0647C31.5438 28.0613 31.4642 28.0683 31.3864 28.0856C31.2387 28.094 31.0907 28.094 30.943 28.0856C30.9088 28.0836 30.8747 28.0802 30.8405 28.0782C30.7612 28.0736 30.703 28.0166 30.8085 28.0785C30.89 28.1263 30.8832 28.0914 30.8111 28.0781C30.7773 28.0719 30.7434 28.0667 30.7097 28.0604C30.5635 28.0331 30.4189 27.9977 30.2766 27.9546C30.2 27.9313 30.125 27.9042 30.0495 27.8779C30.0166 27.8684 29.9845 27.8561 29.9537 27.8411C29.9532 27.8326 30.1484 27.9341 30.0454 27.8788C29.9153 27.8089 29.7809 27.7503 29.6539 27.6739C29.5861 27.6331 29.521 27.5888 29.4551 27.5452C29.4262 27.5278 29.3986 27.5081 29.3728 27.4863C29.3749 27.4776 29.5341 27.6247 29.4506 27.5453C29.3449 27.4448 29.2318 27.3549 29.1317 27.2479C29.1088 27.2234 29.0871 27.1978 29.0643 27.1733L29.0422 27.1481C28.9858 27.0793 28.9847 27.0797 29.0391 27.1491C29.0943 27.1653 29.0917 27.2257 29.0394 27.1473C29.0207 27.1193 29.0009 27.0922 28.9823 27.0642C28.8977 26.9441 28.8256 26.8157 28.7671 26.681C28.7722 26.6771 28.8573 26.9308 28.7922 26.7393C28.7799 26.7032 28.7661 26.6676 28.754 26.6313C28.7301 26.5594 28.7091 26.4866 28.6909 26.4131C28.6729 26.3403 28.6637 26.2651 28.6455 26.1926C28.6149 26.0703 28.6634 26.2891 28.6578 26.2836C28.6405 26.2665 28.6479 26.1605 28.6466 26.1351C28.6383 25.9722 28.6569 25.8141 28.6598 25.6522C28.662 25.5267 28.6494 25.7499 28.6467 25.7434C28.6474 25.7058 28.654 25.6686 28.6665 25.6331C28.6853 25.5477 28.7029 25.4624 28.726 25.378C28.7524 25.2813 28.7828 25.1857 28.8172 25.0914C28.83 25.0561 28.8457 25.0213 28.8577 24.9857C28.9015 24.8554 28.7709 25.1432 28.8429 25.0256C28.942 24.8639 29.0157 24.6889 29.1209 24.5291C29.1458 24.4913 29.2973 24.2803 29.2169 24.3868C29.1368 24.4929 29.2992 24.2919 29.3299 24.2577C29.4576 24.1159 29.6078 23.9995 29.74 23.8637C29.8183 23.7834 29.6854 23.9033 29.6775 23.9089C29.7185 23.8797 29.7586 23.8494 29.8 23.821C29.8723 23.7713 29.9464 23.7243 30.0222 23.68C30.1076 23.6301 30.2042 23.5929 30.2869 23.5401C30.3847 23.4777 30.2121 23.5675 30.209 23.5694C30.2537 23.5473 30.3004 23.5295 30.3485 23.5164C30.4291 23.4879 30.7797 23.337 30.8533 23.3842C30.8499 23.382 30.587 23.4053 30.7996 23.3917C30.8498 23.3884 30.8998 23.3836 30.9501 23.3815C31.0518 23.3773 31.1532 23.3798 31.2548 23.3851C31.5304 23.3833 31.7941 23.2733 31.9889 23.079C32.1838 22.8847 32.294 22.6217 32.2959 22.3469C32.29 22.0734 32.1784 21.8127 31.9844 21.6193C31.7904 21.4259 31.529 21.3146 31.2548 21.3087Z" fill="#E6E6E6"/>
<path d="M45.8292 21.3087C44.9252 21.3031 44.0395 21.563 43.2826 22.056C42.5256 22.549 41.931 23.2533 41.5727 24.081C41.1718 24.8912 41.0481 25.8099 41.2204 26.6968C41.3927 27.5837 41.8515 28.3899 42.5267 28.9922C43.1614 29.5307 43.9227 29.9 44.7394 30.0654C45.5561 30.2309 46.4015 30.1872 47.1966 29.9383C48.0098 29.6551 48.7149 29.1275 49.215 28.4281C49.715 27.7287 49.9854 26.8919 49.9889 26.0329C50.0252 25.0799 49.7663 24.1389 49.2475 23.3378C48.7286 22.5367 47.9749 21.9144 47.0889 21.5556C46.8227 21.4834 46.5387 21.5192 46.2988 21.655C46.0589 21.7908 45.8826 22.0157 45.8083 22.2807C45.7426 22.5459 45.7814 22.8261 45.9167 23.0637C46.0519 23.3012 46.2734 23.4781 46.5354 23.5578C46.7168 23.6277 46.3697 23.4688 46.5391 23.5609C46.6087 23.5987 46.6797 23.6329 46.7481 23.6733C46.8062 23.7076 46.8619 23.7452 46.9185 23.7821C47.1128 23.9085 46.8236 23.6892 46.9478 23.8029C47.0555 23.9015 47.1623 23.9977 47.2602 24.1065C47.2972 24.1477 47.4422 24.2621 47.3295 24.1821C47.2433 24.1209 47.2963 24.1353 47.3295 24.1844C47.3547 24.2217 47.3814 24.258 47.4063 24.2955C47.4874 24.418 47.5612 24.5452 47.6272 24.6764C47.6425 24.7068 47.6565 24.7378 47.6721 24.7681C47.7012 24.8247 47.7435 24.8395 47.6749 24.7686C47.6095 24.7008 47.6511 24.7055 47.6746 24.7707C47.69 24.8135 47.7068 24.8559 47.7218 24.8989C47.7706 25.0389 47.8116 25.1816 47.8445 25.3261C47.8598 25.393 47.8721 25.4602 47.8852 25.5274C47.9317 25.7658 47.8784 25.3792 47.8896 25.5563C47.899 25.7042 47.9099 25.8504 47.9074 25.9989C47.9062 26.0668 47.9032 26.1347 47.8985 26.2024C47.8961 26.2362 47.8923 26.27 47.8901 26.3038C47.8793 26.4667 47.8789 26.2442 47.9018 26.229C47.8542 26.3673 47.8226 26.5106 47.8077 26.6561C47.7891 26.7206 47.7669 26.7837 47.7462 26.8476C47.6737 27.0703 47.8142 26.7262 47.737 26.8784C47.6734 27.0092 47.6024 27.1362 47.5243 27.2589C47.4904 27.3102 47.3625 27.4263 47.4671 27.3455C47.5806 27.2579 47.4076 27.4088 47.3706 27.4476C47.3232 27.4975 47.274 27.5456 47.223 27.592C47.1904 27.6238 47.1559 27.6537 47.1198 27.6815C47.1131 27.6782 47.2937 27.5613 47.1964 27.6232C47.0727 27.7019 46.9556 27.786 46.8252 27.8545C46.81 27.8625 46.6434 27.9395 46.6441 27.9422C46.6369 27.9142 46.8583 27.8645 46.7063 27.9134C46.6744 27.9237 46.6431 27.9362 46.6113 27.9468C46.4729 27.9933 46.3316 28.0308 46.1884 28.0592C46.1556 28.0657 46.1209 28.069 46.0886 28.0773C45.981 28.1051 46.1914 28.0611 46.1978 28.0647C46.1182 28.0613 46.0386 28.0683 45.9608 28.0856C45.8131 28.094 45.6651 28.094 45.5174 28.0856C45.4832 28.0836 45.4491 28.0802 45.4149 28.0782C45.3356 28.0736 45.2774 28.0166 45.3829 28.0785C45.4644 28.1263 45.4576 28.0914 45.3855 28.0781C45.3517 28.0719 45.3178 28.0667 45.2841 28.0604C45.1379 28.0331 44.9933 27.9977 44.851 27.9546C44.7744 27.9313 44.6994 27.9042 44.6239 27.8779C44.591 27.8684 44.5589 27.8561 44.5281 27.8411C44.5276 27.8326 44.7228 27.9341 44.6198 27.8788C44.4897 27.8089 44.3553 27.7503 44.2283 27.6739C44.1605 27.6331 44.0954 27.5888 44.0295 27.5452C44.0006 27.5278 43.973 27.5081 43.9472 27.4863C43.9493 27.4776 44.1086 27.6247 44.025 27.5453C43.9193 27.4448 43.8062 27.3549 43.7061 27.2479C43.6832 27.2234 43.6615 27.1978 43.6387 27.1733L43.6166 27.1481C43.5602 27.0793 43.5592 27.0797 43.6135 27.1491C43.6687 27.1653 43.6661 27.2257 43.6138 27.1473C43.5951 27.1193 43.5753 27.0922 43.5567 27.0642C43.4721 26.9441 43.4 26.8157 43.3415 26.681C43.3466 26.6771 43.4317 26.9308 43.3666 26.7393C43.3543 26.7032 43.3405 26.6676 43.3284 26.6313C43.3045 26.5594 43.2835 26.4866 43.2653 26.4131C43.2473 26.3403 43.2381 26.2651 43.2199 26.1926C43.1893 26.0703 43.2378 26.2891 43.2323 26.2836C43.2149 26.2665 43.2223 26.1605 43.221 26.1351C43.2127 25.9722 43.2313 25.8141 43.2342 25.6522C43.2364 25.5267 43.2238 25.7499 43.2211 25.7434C43.2218 25.7058 43.2284 25.6686 43.2409 25.6331C43.2597 25.5477 43.2773 25.4624 43.3004 25.378C43.3268 25.2813 43.3572 25.1857 43.3916 25.0914C43.4044 25.0561 43.4201 25.0213 43.4321 24.9857C43.4759 24.8554 43.3453 25.1432 43.4173 25.0256C43.5164 24.8639 43.5901 24.6889 43.6953 24.5291C43.7202 24.4913 43.8717 24.2803 43.7913 24.3868C43.7112 24.4929 43.8736 24.2919 43.9043 24.2577C44.032 24.1159 44.1822 23.9995 44.3144 23.8637C44.3927 23.7834 44.2598 23.9033 44.2519 23.9089C44.2929 23.8797 44.333 23.8494 44.3744 23.821C44.4467 23.7713 44.5208 23.7243 44.5966 23.68C44.682 23.6301 44.7786 23.5929 44.8613 23.5401C44.9591 23.4777 44.7865 23.5675 44.7835 23.5694C44.8281 23.5473 44.8748 23.5295 44.9229 23.5164C45.0035 23.4879 45.3541 23.337 45.4277 23.3842C45.4243 23.382 45.1614 23.4053 45.374 23.3917C45.4242 23.3884 45.4742 23.3836 45.5245 23.3815C45.6262 23.3773 45.7276 23.3798 45.8292 23.3851C46.1048 23.3833 46.3685 23.2733 46.5633 23.079C46.7582 22.8847 46.8684 22.6217 46.8703 22.3469C46.8644 22.0734 46.7528 21.8127 46.5588 21.6193C46.3648 21.4259 46.1034 21.3146 45.8292 21.3087Z" fill="#E6E6E6"/>
<path d="M60.4037 21.3087C59.4996 21.3031 58.6139 21.563 57.857 22.056C57.1001 22.549 56.5054 23.2533 56.1471 24.081C55.7463 24.8912 55.6226 25.8099 55.7949 26.6968C55.9671 27.5837 56.426 28.3899 57.1012 28.9922C57.7359 29.5307 58.4972 29.9 59.3138 30.0654C60.1305 30.2309 60.9759 30.1872 61.7711 29.9383C62.5842 29.6551 63.2894 29.1275 63.7894 28.4281C64.2895 27.7287 64.5599 26.8919 64.5634 26.0329C64.5997 25.0799 64.3408 24.1389 63.8219 23.3378C63.303 22.5367 62.5494 21.9144 61.6634 21.5556C61.3972 21.4834 61.1132 21.5192 60.8733 21.655C60.6334 21.7908 60.4571 22.0157 60.3828 22.2807C60.3171 22.5459 60.3559 22.8261 60.4911 23.0637C60.6264 23.3012 60.8478 23.4781 61.1099 23.5578C61.2913 23.6277 60.9441 23.4688 61.1135 23.5609C61.1832 23.5987 61.2541 23.6329 61.3225 23.6733C61.3807 23.7076 61.4364 23.7452 61.4929 23.7821C61.6872 23.9085 61.3981 23.6892 61.5223 23.8029C61.63 23.9015 61.7367 23.9977 61.8346 24.1065C61.8716 24.1477 62.0167 24.2621 61.904 24.1821C61.8177 24.1209 61.8707 24.1353 61.9039 24.1844C61.9292 24.2217 61.9558 24.258 61.9807 24.2955C62.0619 24.418 62.1357 24.5452 62.2017 24.6764C62.217 24.7068 62.231 24.7378 62.2465 24.7681C62.2757 24.8247 62.3179 24.8395 62.2494 24.7686C62.1839 24.7008 62.2256 24.7055 62.249 24.7707C62.2644 24.8135 62.2813 24.8559 62.2962 24.8989C62.3451 25.0389 62.386 25.1816 62.419 25.3261C62.4342 25.393 62.4465 25.4602 62.4596 25.5274C62.5061 25.7658 62.4529 25.3792 62.4641 25.5563C62.4735 25.7042 62.4844 25.8504 62.4818 25.9989C62.4807 26.0668 62.4777 26.1347 62.4729 26.2024C62.4706 26.2362 62.4668 26.27 62.4645 26.3038C62.4537 26.4667 62.4534 26.2442 62.4763 26.229C62.4287 26.3673 62.3971 26.5106 62.3822 26.6561C62.3635 26.7206 62.3414 26.7837 62.3206 26.8476C62.2482 27.0703 62.3886 26.7262 62.3114 26.8784C62.2479 27.0092 62.1769 27.1362 62.0988 27.2589C62.0648 27.3102 61.9369 27.4263 62.0415 27.3455C62.155 27.2579 61.982 27.4088 61.9451 27.4476C61.8977 27.4975 61.8485 27.5456 61.7975 27.592C61.7648 27.6238 61.7303 27.6537 61.6942 27.6815C61.6876 27.6782 61.8682 27.5613 61.7708 27.6232C61.6471 27.7019 61.53 27.786 61.3997 27.8545C61.3845 27.8625 61.2178 27.9395 61.2185 27.9422C61.2113 27.9142 61.4328 27.8645 61.2808 27.9134C61.2488 27.9237 61.2175 27.9362 61.1857 27.9468C61.0473 27.9933 60.9061 28.0308 60.7628 28.0592C60.73 28.0657 60.6954 28.069 60.6631 28.0773C60.5554 28.1051 60.7659 28.0611 60.7722 28.0647C60.6927 28.0613 60.613 28.0683 60.5353 28.0856C60.3876 28.094 60.2395 28.094 60.0918 28.0856C60.0576 28.0836 60.0236 28.0802 59.9894 28.0782C59.9101 28.0736 59.8518 28.0166 59.9574 28.0785C60.0389 28.1263 60.0321 28.0914 59.9599 28.0781C59.9262 28.0719 59.8923 28.0667 59.8585 28.0604C59.7123 28.0331 59.5678 27.9977 59.4255 27.9546C59.3489 27.9313 59.2739 27.9042 59.1983 27.8779C59.1654 27.8684 59.1334 27.8561 59.1026 27.8411C59.1021 27.8326 59.2973 27.9341 59.1942 27.8788C59.0642 27.8089 58.9297 27.7503 58.8027 27.6739C58.735 27.6331 58.6699 27.5888 58.604 27.5452C58.575 27.5278 58.5475 27.5081 58.5216 27.4863C58.5238 27.4776 58.683 27.6247 58.5994 27.5453C58.4937 27.4448 58.3807 27.3549 58.2806 27.2479C58.2577 27.2234 58.236 27.1978 58.2132 27.1733L58.1911 27.1481C58.1347 27.0793 58.1336 27.0797 58.188 27.1491C58.2431 27.1653 58.2406 27.2257 58.1883 27.1473C58.1696 27.1193 58.1498 27.0922 58.1312 27.0642C58.0466 26.9441 57.9745 26.8157 57.916 26.681C57.921 26.6771 58.0062 26.9308 57.9411 26.7393C57.9288 26.7032 57.915 26.6676 57.9029 26.6313C57.879 26.5594 57.8579 26.4866 57.8397 26.4131C57.8217 26.3403 57.8125 26.2651 57.7944 26.1926C57.7638 26.0703 57.8122 26.2891 57.8067 26.2836C57.7894 26.2665 57.7967 26.1605 57.7954 26.1351C57.7871 25.9722 57.8057 25.8141 57.8086 25.6522C57.8109 25.5267 57.7982 25.7499 57.7956 25.7434C57.7962 25.7058 57.8029 25.6686 57.8154 25.6331C57.8342 25.5477 57.8517 25.4624 57.8748 25.378C57.9012 25.2813 57.9316 25.1857 57.966 25.0914C57.9789 25.0561 57.9946 25.0213 58.0065 24.9857C58.0503 24.8554 57.9198 25.1432 57.9918 25.0256C58.0908 24.8639 58.1646 24.6889 58.2697 24.5291C58.2947 24.4913 58.4462 24.2803 58.3658 24.3868C58.2857 24.4929 58.4481 24.2919 58.4788 24.2577C58.6065 24.1159 58.7567 23.9995 58.8889 23.8637C58.9671 23.7834 58.8342 23.9033 58.8264 23.9089C58.8674 23.8797 58.9074 23.8494 58.9489 23.821C59.0212 23.7713 59.0952 23.7243 59.171 23.68C59.2564 23.6301 59.353 23.5929 59.4358 23.5401C59.5336 23.4777 59.361 23.5675 59.3579 23.5694C59.4026 23.5473 59.4493 23.5295 59.4974 23.5164C59.578 23.4879 59.9286 23.337 60.0021 23.3842C59.9988 23.382 59.7359 23.4053 59.9484 23.3917C59.9986 23.3884 60.0486 23.3836 60.099 23.3815C60.2007 23.3773 60.3021 23.3798 60.4037 23.3851C60.6792 23.3833 60.943 23.2733 61.1378 23.079C61.3327 22.8847 61.4429 22.6217 61.4447 22.3469C61.4388 22.0734 61.3272 21.8127 61.1333 21.6193C60.9393 21.4259 60.6779 21.3146 60.4037 21.3087Z" fill="#E6E6E6"/>
<path d="M270.951 251.241H15.6172C12.3885 251.237 9.29301 249.957 7.00992 247.68C4.72684 245.403 3.4426 242.316 3.43896 239.096V12.1449C3.44259 8.92502 4.72681 5.838 7.00988 3.56116C9.29296 1.28432 12.3884 0.0036107 15.6172 0H270.951C274.18 0.0036107 277.275 1.28432 279.558 3.56116C281.841 5.838 283.125 8.92502 283.129 12.1449V239.096C283.125 242.316 281.841 245.403 279.558 247.68C277.275 249.957 274.18 251.237 270.951 251.241ZM15.6172 1.38425C12.7565 1.38749 10.0138 2.52225 7.99097 4.53957C5.96813 6.55689 4.83026 9.29203 4.82701 12.1449V239.096C4.83034 241.949 5.96824 244.684 7.99108 246.702C10.0139 248.719 12.7565 249.854 15.6172 249.857H270.951C273.812 249.854 276.554 248.719 278.577 246.702C280.6 244.684 281.738 241.949 281.741 239.096V12.1449C281.738 9.29203 280.6 6.55689 278.577 4.53957C276.554 2.52225 273.812 1.3875 270.951 1.38425H15.6172Z" fill="#E6E6E6"/>
<path d="M15.1942 154.417L104.986 154.145L194.32 153.874L244.713 153.721C244.983 153.712 245.238 153.598 245.426 153.404C245.614 153.211 245.719 152.952 245.719 152.683C245.719 152.413 245.614 152.155 245.426 151.961C245.238 151.767 244.983 151.654 244.713 151.645L154.921 151.917L65.5875 152.188L15.1942 152.341C14.9243 152.35 14.6686 152.464 14.481 152.657C14.2935 152.851 14.1886 153.11 14.1886 153.379C14.1886 153.648 14.2935 153.907 14.481 154.101C14.6686 154.294 14.9243 154.408 15.1942 154.417Z" fill="#E6E6E6"/>
<path d="M60.4926 152.734L61.0479 120.04C61.0706 118.703 58.9885 118.703 58.9658 120.04L58.4106 152.734C58.3879 154.07 60.4699 154.07 60.4926 152.734Z" fill="#E6E6E6"/>
<path d="M103.408 153.088L104.761 111.993L105.147 100.252C105.191 98.9153 103.109 98.9169 103.065 100.252L101.712 141.346L101.326 153.088C101.282 154.424 103.364 154.422 103.408 153.088Z" fill="#E6E6E6"/>
<path d="M146.207 80.7712C145.391 95.3266 143.88 138.259 143.064 152.814C142.989 154.149 145.072 154.145 145.146 152.814C145.963 138.259 147.473 95.3266 148.289 80.7712C148.364 79.4361 146.281 79.4404 146.207 80.7712Z" fill="#E6E6E6"/>
<path d="M188.8 138.209L188.545 152.199C188.52 153.536 190.602 153.536 190.627 152.199C190.928 135.676 191.701 136.214 191.786 131.551C191.811 130.214 189.729 130.214 189.704 131.551C189.704 131.551 189.101 121.686 188.8 138.209Z" fill="#E6E6E6"/>
<path d="M230.519 101.458L230.754 140.707L230.822 151.946C230.831 152.215 230.945 152.47 231.139 152.657C231.333 152.844 231.593 152.949 231.863 152.949C232.133 152.949 232.392 152.844 232.586 152.657C232.781 152.47 232.894 152.215 232.904 151.946L232.668 112.697L232.601 101.458C232.591 101.189 232.478 100.934 232.283 100.747C232.089 100.56 231.83 100.455 231.56 100.455C231.29 100.455 231.03 100.56 230.836 100.747C230.642 100.934 230.528 101.189 230.519 101.458Z" fill="#E6E6E6"/>
<path d="M15.3615 153.248C13.6381 148.525 17.5231 143.983 21.5149 141.941C26.2974 139.496 31.7991 138.942 36.6323 136.584C43.8378 133.069 49.0861 126.762 53.756 120.448C58.5627 113.949 62.9607 106.975 69.0683 101.575C72.2868 98.6668 76.088 96.473 80.2203 95.1393C85.4271 93.5188 90.9491 93.4077 96.3292 94.0607C107.446 95.4102 117.752 99.9894 128.479 102.9C138.592 105.644 149.735 107.187 159.662 102.92C164.705 100.752 168.829 97.1159 173.259 93.9695C177.546 90.8924 182.339 88.5865 187.423 87.1557C197.387 84.3924 208.27 85.1303 217.547 89.8017C226.075 94.0406 232.827 101.148 236.611 109.868C241.01 120.346 240.437 132.055 239 143.083C238.629 145.934 238.187 148.775 237.74 151.615C237.534 152.922 239.54 153.485 239.748 152.167C241.537 140.794 243.32 129.062 241.094 117.618C239.17 107.626 233.66 98.6754 225.596 92.4414C217.498 86.1904 207.432 83.0221 197.203 83.5051C191.843 83.7532 186.566 84.9236 181.605 86.9646C176.456 89.0886 172.096 92.2369 167.667 95.5495C163.113 98.9555 158.419 101.773 152.766 102.884C147.282 103.961 141.577 103.557 136.117 102.54C124.852 100.441 114.351 95.6288 103.181 93.1633C92.8321 90.8791 81.6646 90.6508 72.3975 96.4813C65.2689 100.966 60.2318 107.929 55.3976 114.652C50.6059 121.317 45.7535 128.443 38.7466 132.996C34.4724 135.773 29.6676 136.797 24.8861 138.359C20.0923 139.925 15.4902 142.566 13.5356 147.464C12.6932 149.482 12.6284 151.738 13.3539 153.8C13.8084 155.046 15.8213 154.508 15.3615 153.248Z" fill="#E6E6E6"/>
<path d="M59.8026 115.52L59.7993 115.521L59.806 115.52H59.8026Z" fill="#E6E6E6"/>
<path d="M63.412 113.609C62.9308 112.759 62.1631 112.107 61.2453 111.768C60.3275 111.43 59.319 111.426 58.399 111.759C57.9416 111.925 57.5224 112.181 57.1661 112.512C56.8098 112.843 56.5236 113.242 56.3245 113.685C56.2847 113.779 56.2614 113.878 56.2288 113.975C56.1837 114.047 56.1295 114.113 56.0891 114.189C55.6576 115.047 55.5394 116.028 55.755 116.963C55.9705 117.898 56.5063 118.728 57.27 119.312C58.0337 119.895 58.9776 120.195 59.939 120.159C60.9004 120.123 61.8192 119.754 62.5371 119.116C63.2916 118.436 63.7899 117.518 63.9491 116.516C64.1083 115.515 63.9187 114.489 63.412 113.609ZM60.8044 115.372C60.8098 115.473 60.8129 115.425 60.8044 115.372V115.372ZM60.5393 114.771C60.5291 114.76 60.5304 114.761 60.5393 114.771V114.771ZM59.3711 115.24C59.3539 115.212 59.3554 115.216 59.3711 115.24V115.24ZM59.648 115.474C59.6878 115.492 59.7139 115.496 59.648 115.474V115.474ZM59.7716 115.533L59.799 115.52C59.7923 115.521 59.7856 115.519 59.7796 115.516L59.7804 115.516L59.8019 115.519L59.8059 115.517L59.7935 115.514C59.8043 115.514 59.8052 115.515 59.8059 115.517C59.9298 115.46 59.8462 115.488 59.7744 115.51L59.7696 115.509C59.7248 115.486 59.6766 115.471 59.6269 115.463C59.6223 115.46 59.6168 115.459 59.613 115.456C59.5731 115.427 59.3717 115.271 59.5586 115.435C59.5179 115.399 59.4777 115.364 59.4394 115.325C59.4169 115.302 59.3965 115.277 59.3784 115.251C59.3539 115.209 59.3301 115.166 59.307 115.124L59.3036 115.101C59.3005 115.081 59.2982 115.074 59.2957 115.062C59.2969 115.05 59.2988 115.037 59.3006 115.025C59.3146 114.988 59.3235 114.949 59.3271 114.909L59.3351 114.899C59.365 114.857 59.3912 114.809 59.4198 114.765C59.2689 114.994 59.4788 114.74 59.4945 114.708C59.4971 114.703 59.4925 114.706 59.4936 114.702C59.4997 114.698 59.4978 114.701 59.5052 114.696C59.552 114.669 59.5963 114.638 59.6438 114.612C59.7003 114.581 59.9231 114.518 59.6921 114.584C59.7445 114.569 59.7949 114.55 59.8479 114.536C59.8576 114.533 59.9353 114.523 59.9772 114.515C60.014 114.514 60.0497 114.513 60.0535 114.513C60.0708 114.513 60.088 114.515 60.1053 114.516C60.067 114.521 60.2369 114.558 60.2873 114.566C60.2946 114.571 60.2983 114.575 60.3083 114.582C60.3509 114.613 60.4028 114.641 60.4478 114.67C60.2465 114.54 60.4505 114.68 60.4889 114.719C60.5119 114.742 60.5331 114.766 60.5548 114.79C60.5746 114.813 60.5925 114.838 60.6084 114.864C60.6414 114.924 60.6765 114.985 60.7112 115.044L60.7208 115.059C60.7206 115.061 60.7205 115.063 60.7205 115.065C60.7386 115.162 60.7653 115.256 60.8002 115.348C60.8019 115.355 60.8033 115.363 60.8042 115.371C60.8074 115.424 60.8118 115.476 60.8119 115.529L60.8114 115.54C60.6511 115.457 60.4732 115.413 60.2924 115.411C60.1116 115.41 59.9331 115.452 59.7716 115.533Z" fill="#E6E6E6"/>
<path d="M59.8087 115.518C59.8131 115.519 59.8079 115.519 59.8079 115.519L59.8087 115.518Z" fill="#E6E6E6"/>
<path d="M59.8082 115.518L59.8047 115.518C59.8092 115.519 59.8082 115.518 59.8082 115.518Z" fill="#E6E6E6"/>
<path d="M59.8062 115.518L59.8082 115.519L59.8062 115.518Z" fill="#E6E6E6"/>
<path d="M104.22 96.1406L104.217 96.1423L104.223 96.1406H104.22Z" fill="#E6E6E6"/>
<path d="M107.829 94.2301C107.348 93.3803 106.58 92.7281 105.663 92.3894C104.745 92.0506 103.736 92.0472 102.816 92.3799C102.359 92.5463 101.94 92.8026 101.583 93.1335C101.227 93.4643 100.941 93.8631 100.742 94.3061C100.702 94.4003 100.679 94.4993 100.646 94.5958C100.601 94.6686 100.547 94.7342 100.506 94.8103C100.075 95.6679 99.9567 96.6486 100.172 97.5837C100.388 98.5187 100.924 99.3496 101.687 99.9331C102.451 100.517 103.395 100.816 104.356 100.78C105.318 100.745 106.236 100.376 106.954 99.7368C107.709 99.0566 108.207 98.1393 108.366 97.1375C108.526 96.1356 108.336 95.1096 107.829 94.2301ZM105.222 95.9934C105.227 96.094 105.23 96.0458 105.222 95.9934V95.9934ZM104.957 95.3924C104.946 95.3807 104.948 95.3819 104.957 95.3924V95.3924ZM103.788 95.8608C103.771 95.8328 103.773 95.8369 103.788 95.8608V95.8608ZM104.065 96.095C104.105 96.1127 104.131 96.1174 104.065 96.095V96.095ZM104.189 96.1537L104.216 96.1412C104.21 96.1418 104.203 96.1405 104.197 96.1374L104.219 96.1399L104.223 96.1381L104.211 96.1352C104.222 96.1348 104.223 96.1381 104.223 96.1381C104.347 96.0815 104.263 96.1086 104.192 96.1308L104.187 96.1297C104.142 96.107 104.094 96.0916 104.044 96.084C104.04 96.0815 104.034 96.0796 104.03 96.0769C103.99 96.0486 103.789 95.8916 103.976 96.0562C103.935 96.0203 103.895 95.9852 103.857 95.9465C103.834 95.9234 103.814 95.8984 103.796 95.8716C103.771 95.8297 103.747 95.7874 103.724 95.7447L103.721 95.7217C103.718 95.7025 103.715 95.6946 103.713 95.6831C103.714 95.6712 103.716 95.6585 103.718 95.6461C103.732 95.6088 103.741 95.5697 103.744 95.5301L103.752 95.5199C103.782 95.4783 103.808 95.4298 103.837 95.3865C103.686 95.6151 103.896 95.3613 103.912 95.3291C103.914 95.3237 103.91 95.3267 103.911 95.3229C103.917 95.3195 103.915 95.3218 103.922 95.3175C103.969 95.29 104.014 95.2594 104.061 95.2332C104.118 95.2019 104.34 95.1388 104.109 95.2047C104.162 95.1897 104.212 95.1709 104.265 95.157C104.275 95.1546 104.353 95.1437 104.394 95.1362C104.431 95.1352 104.467 95.1341 104.471 95.1342C104.488 95.1344 104.505 95.1365 104.523 95.1373C104.484 95.1424 104.654 95.179 104.705 95.1867C104.712 95.1924 104.716 95.1961 104.726 95.2033C104.768 95.2344 104.82 95.2621 104.865 95.2911C104.664 95.1613 104.868 95.3014 104.906 95.3397C104.929 95.3627 104.95 95.3871 104.972 95.4113C104.992 95.4342 105.01 95.4588 105.026 95.4846C105.059 95.5449 105.094 95.606 105.128 95.6653L105.138 95.6806L105.138 95.6865C105.156 95.7827 105.183 95.8772 105.217 95.9687C105.219 95.9764 105.221 95.9843 105.221 95.9921C105.225 96.0449 105.229 96.0974 105.229 96.1504L105.229 96.1611C105.068 96.0778 104.89 96.0336 104.71 96.0324C104.529 96.0311 104.35 96.0727 104.189 96.1537Z" fill="#5499BD"/>
<path d="M104.226 96.1387L104.222 96.1392C104.226 96.1397 104.226 96.1387 104.226 96.1387Z" fill="#E6E6E6"/>
<path d="M104.224 96.1367L104.226 96.1377L104.224 96.1367Z" fill="#E6E6E6"/>
<path d="M104.226 96.1387C104.23 96.14 104.225 96.1402 104.225 96.1402L104.226 96.1387Z" fill="#5499BD"/>
<path d="M147.253 105.828L147.255 105.829L147.253 105.828Z" fill="#E6E6E6"/>
<path d="M150.859 74.8493C150.377 73.9995 149.61 73.3472 148.692 73.0085C147.774 72.6697 146.766 72.6664 145.846 72.999C145.388 73.1655 144.969 73.4217 144.613 73.7526C144.256 74.0835 143.97 74.4822 143.771 74.9253C143.731 75.0194 143.708 75.1185 143.675 75.215C143.63 75.2877 143.576 75.3534 143.536 75.4295C143.104 76.287 142.986 77.2678 143.201 78.2028C143.417 79.1379 143.953 79.9687 144.717 80.5522C145.48 81.1357 146.424 81.4353 147.386 81.3995C148.347 81.3637 149.266 80.9947 149.984 80.3559C150.738 79.6757 151.236 78.7585 151.396 77.7566C151.555 76.7548 151.365 75.7288 150.859 74.8493ZM148.251 76.6125C148.256 76.7131 148.259 76.665 148.251 76.6125V76.6125ZM147.986 76.0115C147.976 75.9998 147.977 76.0011 147.986 76.0115V76.0115ZM146.818 76.48C146.8 76.452 146.802 76.456 146.818 76.48V76.48ZM147.094 76.7141C147.134 76.7318 147.16 76.7365 147.094 76.7141V76.7141ZM147.218 76.7729L147.246 76.7604C147.239 76.761 147.232 76.7597 147.226 76.7565L147.227 76.7564L147.248 76.7591L147.252 76.7572L147.24 76.7544C147.251 76.754 147.252 76.7556 147.252 76.7572C147.376 76.7007 147.293 76.7278 147.221 76.75L147.216 76.7488C147.171 76.7262 147.123 76.7107 147.073 76.7032C147.069 76.7006 147.063 76.6988 147.059 76.696C147.02 76.6677 146.818 76.5108 147.005 76.6753C146.964 76.6395 146.924 76.6043 146.886 76.5656C146.863 76.5425 146.843 76.5175 146.825 76.4908C146.8 76.4488 146.777 76.4065 146.754 76.3638L146.75 76.3408C146.747 76.3217 146.745 76.3137 146.742 76.3022C146.743 76.2904 146.745 76.2776 146.747 76.2652C146.761 76.2279 146.77 76.1889 146.774 76.1492L146.782 76.1391C146.812 76.0974 146.838 76.0489 146.866 76.0057C146.715 76.2342 146.925 75.9804 146.941 75.9483C146.944 75.9428 146.939 75.9458 146.94 75.942C146.946 75.9386 146.944 75.9409 146.952 75.9366C146.998 75.9092 147.043 75.8785 147.09 75.8523C147.147 75.821 147.37 75.758 147.139 75.8238C147.191 75.8089 147.241 75.79 147.294 75.7762C147.304 75.7737 147.382 75.7628 147.424 75.7553C147.46 75.7544 147.496 75.7533 147.5 75.7533C147.517 75.7535 147.535 75.7557 147.552 75.7564C147.513 75.7615 147.683 75.7982 147.734 75.8059C147.741 75.8116 147.745 75.8153 147.755 75.8225C147.797 75.8536 147.849 75.8812 147.894 75.9102C147.693 75.7805 147.897 75.9205 147.935 75.9589C147.958 75.9818 147.98 76.0063 148.001 76.0304C148.021 76.0534 148.039 76.0779 148.055 76.1038C148.088 76.1641 148.123 76.2251 148.158 76.2845L148.167 76.2997C148.167 76.3017 148.167 76.3036 148.167 76.3056C148.185 76.4019 148.212 76.4963 148.247 76.5878C148.248 76.5956 148.25 76.6034 148.251 76.6113C148.254 76.664 148.258 76.7166 148.258 76.7696L148.258 76.7803C148.098 76.6969 147.92 76.6528 147.739 76.6515C147.558 76.6502 147.38 76.6918 147.218 76.7729Z" fill="#4FCE6C"/>
<path d="M147.249 105.83L147.246 105.832L147.253 105.83H147.249Z" fill="#E6E6E6"/>
<path d="M147.255 105.828L147.251 105.829C147.256 105.829 147.255 105.828 147.255 105.828Z" fill="#E6E6E6"/>
<path d="M147.255 105.828C147.26 105.829 147.254 105.83 147.254 105.83L147.255 105.828Z" fill="#E6E6E6"/>
<path d="M194.582 128.144C194.101 127.294 193.333 126.642 192.415 126.303C191.497 125.965 190.489 125.961 189.569 126.294C189.111 126.46 188.692 126.717 188.336 127.048C187.98 127.378 187.693 127.777 187.494 128.22C187.454 128.314 187.431 128.413 187.399 128.51C187.354 128.583 187.299 128.648 187.259 128.724C186.827 129.582 186.709 130.563 186.925 131.498C187.14 132.433 187.676 133.264 188.44 133.847C189.204 134.431 190.147 134.73 191.109 134.694C192.07 134.659 192.989 134.29 193.707 133.651C194.461 132.971 194.96 132.053 195.119 131.052C195.278 130.05 195.089 129.024 194.582 128.144ZM191.974 129.907C191.98 130.008 191.983 129.96 191.974 129.907V129.907ZM191.709 129.306C191.699 129.295 191.7 129.296 191.709 129.306V129.306ZM190.541 129.775C190.524 129.747 190.525 129.751 190.541 129.775V129.775ZM190.818 130.009C190.858 130.027 190.884 130.031 190.818 130.009V130.009ZM190.941 130.068L190.969 130.055C190.962 130.056 190.955 130.055 190.949 130.051L190.95 130.051L190.972 130.054L190.976 130.052L190.963 130.049C190.974 130.049 190.975 130.05 190.976 130.052C191.1 129.996 191.016 130.023 190.944 130.045L190.939 130.044C190.895 130.021 190.846 130.006 190.797 129.998C190.792 129.996 190.787 129.994 190.783 129.991C190.743 129.963 190.541 129.806 190.728 129.97C190.688 129.934 190.647 129.899 190.609 129.861C190.587 129.837 190.566 129.812 190.548 129.786C190.524 129.744 190.5 129.701 190.477 129.659L190.473 129.636C190.47 129.617 190.468 129.609 190.465 129.597C190.467 129.585 190.469 129.573 190.47 129.56C190.484 129.523 190.493 129.484 190.497 129.444L190.505 129.434C190.535 129.392 190.561 129.344 190.59 129.301C190.439 129.529 190.649 129.275 190.664 129.243C190.667 129.238 190.662 129.241 190.663 129.237C190.669 129.234 190.668 129.236 190.675 129.232C190.722 129.204 190.766 129.173 190.814 129.147C190.87 129.116 191.093 129.053 190.862 129.119C190.914 129.104 190.965 129.085 191.018 129.071C191.027 129.069 191.105 129.058 191.147 129.05C191.184 129.049 191.219 129.048 191.223 129.048C191.241 129.048 191.258 129.051 191.275 129.051C191.237 129.056 191.407 129.093 191.457 129.101C191.464 129.107 191.468 129.11 191.478 129.117C191.521 129.148 191.573 129.176 191.618 129.205C191.416 129.075 191.62 129.215 191.659 129.254C191.682 129.277 191.703 129.301 191.725 129.325C191.744 129.348 191.762 129.373 191.778 129.399C191.811 129.459 191.846 129.52 191.881 129.579L191.891 129.595C191.89 129.597 191.89 129.599 191.89 129.601C191.908 129.697 191.935 129.791 191.97 129.883C191.972 129.89 191.973 129.898 191.974 129.906C191.977 129.959 191.982 130.011 191.982 130.064L191.981 130.075C191.821 129.992 191.643 129.948 191.462 129.946C191.281 129.945 191.103 129.987 190.941 130.068Z" fill="#E6E6E6"/>
<path d="M190.972 84.373L190.969 84.3747L190.976 84.373H190.972Z" fill="#E6E6E6"/>
<path d="M190.978 84.373L190.975 84.3736C190.979 84.3741 190.978 84.373 190.978 84.373Z" fill="#E6E6E6"/>
<path d="M190.979 84.373C190.983 84.3744 190.978 84.3745 190.978 84.3745L190.979 84.373Z" fill="#E6E6E6"/>
<path d="M190.976 84.3711L190.978 84.3721L190.976 84.3711Z" fill="#E6E6E6"/>
<path d="M235.529 96.3063C235.048 95.4565 234.28 94.8043 233.362 94.4655C232.445 94.1268 231.436 94.1234 230.516 94.456C230.059 94.6225 229.639 94.8788 229.283 95.2096C228.927 95.5405 228.641 95.9392 228.442 96.3823C228.402 96.4765 228.378 96.5755 228.346 96.672C228.301 96.7447 228.246 96.8104 228.206 96.8865C227.775 97.744 227.656 98.7248 227.872 99.6599C228.088 100.595 228.623 101.426 229.387 102.009C230.151 102.593 231.095 102.892 232.056 102.857C233.017 102.821 233.936 102.452 234.654 101.813C235.409 101.133 235.907 100.215 236.066 99.2137C236.225 98.2118 236.036 97.1858 235.529 96.3063ZM232.921 98.0696C232.927 98.1702 232.93 98.122 232.921 98.0696V98.0696ZM232.656 97.4685C232.646 97.4568 232.647 97.4581 232.656 97.4685V97.4685ZM231.488 97.937C231.471 97.909 231.472 97.913 231.488 97.937V97.937ZM231.765 98.1712C231.805 98.1889 231.831 98.1935 231.765 98.1712V98.1712ZM231.889 98.2299L231.916 98.2174C231.909 98.218 231.903 98.2167 231.897 98.2136L231.897 98.2134L231.919 98.2161L231.923 98.2143L231.91 98.2114C231.921 98.211 231.922 98.2126 231.923 98.2143C232.047 98.1577 231.963 98.1848 231.891 98.207L231.887 98.2059C231.842 98.1832 231.794 98.1678 231.744 98.1602C231.739 98.1576 231.734 98.1558 231.73 98.153C231.69 98.1247 231.489 97.9678 231.676 98.1323C231.635 98.0965 231.595 98.0613 231.556 98.0227C231.534 97.9996 231.513 97.9745 231.495 97.9478C231.471 97.9059 231.447 97.8636 231.424 97.8209L231.421 97.7978C231.417 97.7787 231.415 97.7708 231.413 97.7593C231.414 97.7474 231.416 97.7346 231.418 97.7223C231.432 97.6849 231.44 97.6459 231.444 97.6062L231.452 97.5961C231.482 97.5545 231.508 97.5059 231.537 97.4627C231.386 97.6912 231.596 97.4375 231.611 97.4053C231.614 97.3998 231.609 97.4028 231.611 97.399C231.617 97.3956 231.615 97.398 231.622 97.3937C231.669 97.3662 231.713 97.3356 231.761 97.3093C231.817 97.2781 232.04 97.215 231.809 97.2809C231.862 97.2659 231.912 97.247 231.965 97.2332C231.975 97.2307 232.052 97.2199 232.094 97.2123C232.131 97.2114 232.167 97.2103 232.17 97.2104C232.188 97.2106 232.205 97.2127 232.222 97.2134C232.184 97.2186 232.354 97.2552 232.404 97.2629C232.412 97.2686 232.415 97.2723 232.425 97.2795C232.468 97.3106 232.52 97.3382 232.565 97.3673C232.363 97.2375 232.567 97.3776 232.606 97.4159C232.629 97.4389 232.65 97.4633 232.672 97.4874C232.692 97.5104 232.709 97.5349 232.725 97.5608C232.758 97.6211 232.793 97.6822 232.828 97.7415L232.838 97.7567C232.838 97.7587 232.837 97.7607 232.837 97.7626C232.856 97.8589 232.882 97.9533 232.917 98.0448C232.919 98.0526 232.92 98.0604 232.921 98.0683C232.924 98.121 232.929 98.1736 232.929 98.2266L232.928 98.2373C232.768 98.154 232.59 98.1098 232.409 98.1085C232.229 98.1072 232.05 98.1489 231.889 98.2299Z" fill="#E6E6E6"/>
<path d="M231.92 98.2168L231.916 98.2185L231.923 98.2168H231.92Z" fill="#E6E6E6"/>
<path d="M231.923 98.2148L231.925 98.2159L231.923 98.2148Z" fill="#E6E6E6"/>
<path d="M231.926 98.2148C231.93 98.2162 231.925 98.2163 231.925 98.2163L231.926 98.2148Z" fill="#E6E6E6"/>
<path d="M231.925 98.2148L231.922 98.2154C231.926 98.2158 231.925 98.2148 231.925 98.2148Z" fill="#E6E6E6"/>
<path d="M220.698 129.935L188.429 131.724C188.247 131.734 188.068 131.674 187.929 131.557C187.79 131.439 187.701 131.273 187.682 131.092C187.662 130.912 187.712 130.731 187.823 130.586C187.933 130.441 188.095 130.345 188.275 130.315L221.258 124.963L220.698 129.935Z" fill="#3F3D56"/>
<path d="M261.708 201.58L273.869 181.178L282.857 185.411C282.857 185.411 267.369 204.702 266.876 205.257C267.087 206.194 267.008 207.174 266.649 208.066C266.29 208.957 265.668 209.72 264.865 210.251C264.062 210.783 263.117 211.059 262.153 211.042C261.19 211.026 260.254 210.719 259.469 210.161C258.685 209.603 258.089 208.82 257.76 207.917C257.431 207.014 257.385 206.032 257.627 205.102C257.87 204.172 258.39 203.337 259.119 202.708C259.848 202.08 260.751 201.686 261.708 201.58Z" fill="#FFB6B6"/>
<path d="M266.767 154.188L286.468 164.438C287.699 165.323 288.732 166.454 289.5 167.759C290.268 169.064 290.754 170.515 290.928 172.018C291.102 173.522 290.959 175.045 290.509 176.49C290.059 177.935 289.312 179.271 288.315 180.412L274.732 195.949L268.816 187.953L273.376 178.444L264.546 176.121L266.767 154.188Z" fill="#4FCE6C"/>
<path d="M210.623 130.268L208.404 153.899L198.464 153.916C198.464 153.916 204.167 129.867 204.374 129.155C203.78 128.398 203.431 127.479 203.372 126.52C203.313 125.561 203.547 124.606 204.044 123.783C204.541 122.96 205.277 122.306 206.155 121.909C207.032 121.512 208.01 121.389 208.958 121.558C209.907 121.727 210.782 122.179 211.467 122.855C212.153 123.531 212.616 124.398 212.796 125.342C212.977 126.286 212.866 127.262 212.477 128.142C212.089 129.022 211.443 129.763 210.623 130.268Z" fill="#FFB6B6"/>
<path d="M230.409 178.594L207.531 174.41C197.897 173.255 193.943 166.933 195.681 160.767L201.276 140.924L210.058 145.619L210.024 156.161L222.317 154.484L230.409 178.594Z" fill="#4FCE6C"/>
<path d="M221.044 341.903H214.753L211.76 317.705H221.045L221.044 341.903Z" fill="#FFB6B6"/>
<path d="M221.265 348.448L201.921 348.448V348.204C201.921 346.212 202.714 344.302 204.126 342.894C205.538 341.486 207.453 340.695 209.45 340.695L212.984 338.021L219.577 340.695L221.266 340.695L221.265 348.448Z" fill="#2F2E41"/>
<path d="M265.555 341.903H271.845L274.838 317.705H265.553L265.555 341.903Z" fill="#FFB6B6"/>
<path d="M265.333 348.448L284.678 348.448V348.204C284.678 346.212 283.884 344.302 282.472 342.894C281.06 341.486 279.145 340.695 277.148 340.695L273.614 338.021L267.021 340.695L265.333 340.695L265.333 348.448Z" fill="#2F2E41"/>
<path d="M211.484 299.925C211.577 298.544 212.315 290.908 212.315 290.908L214.085 274.714L217.203 231.787L219.983 220.504L233.742 225.849L244.907 220.512L258.177 224.742L268.51 228.607C268.51 228.607 268.528 230.261 268.608 232.259C268.714 234.875 268.9 238.082 269.342 238.916C270.081 240.389 269.895 248.299 269.895 248.299C269.895 248.299 270.629 264.391 271.554 266.156C272.478 267.92 272.664 271.595 272.385 272.332C272.107 273.068 273.31 292.394 273.31 292.394C273.31 292.394 276.398 326.594 274.46 331.751C272.523 336.908 265.202 333.53 265.202 333.53C265.202 333.53 265.556 332.154 263.432 331.505C261.309 330.857 254.842 282.363 254.842 282.363C254.842 282.363 253.639 272.42 252.533 269.57C251.427 266.72 250.41 258.714 250.41 258.714C250.41 258.714 243.58 245.462 243.492 242.515C243.492 242.515 242.598 239.758 241.753 242.793C240.908 245.828 238.418 253.098 238.418 253.098L235.99 262.027L233.132 275.367L231.283 286.598C231.283 286.598 228.514 301.504 228.072 302.148C227.629 302.792 228.072 316.41 228.072 316.41C228.072 316.41 225.931 328.007 222.905 330.032C219.879 332.057 211.863 330.064 211.863 330.064C211.863 330.064 211.391 301.305 211.484 299.925Z" fill="#2F2E41"/>
<path d="M221.77 184.197L220.012 206.911L217.37 209.637C217.132 209.883 216.946 210.174 216.823 210.493C216.701 210.812 216.644 211.153 216.656 211.495C216.669 211.836 216.75 212.172 216.896 212.481C217.041 212.791 217.248 213.068 217.504 213.296L216.048 215.784L215.533 223.626C215.386 224.236 215.376 224.871 215.503 225.486C215.631 226.1 215.893 226.679 216.271 227.181C216.649 227.683 217.133 228.095 217.689 228.389C218.245 228.682 218.86 228.85 219.488 228.879L265.038 231.013C265.663 231.043 266.287 230.935 266.866 230.697C267.444 230.46 267.963 230.098 268.387 229.639C268.81 229.179 269.127 228.632 269.315 228.037C269.503 227.442 269.558 226.813 269.475 226.195L265.602 197.116V194.941L263.868 190.742L264.759 176.676L266.832 154.349L254.783 151.245L248.249 146.762L236.899 146.942L230.011 152.583L220.828 154.017L213.884 155.394L212.999 157.311L214.768 156.928L221.181 181.873L221.77 184.197Z" fill="#4FCE6C"/>
<path d="M242.32 143.718C249.705 143.718 255.691 137.748 255.691 130.383C255.691 123.019 249.705 117.049 242.32 117.049C234.935 117.049 228.949 123.019 228.949 130.383C228.949 137.748 234.935 143.718 242.32 143.718Z" fill="#FFB6B6"/>
<path d="M239.096 142.858L248.757 142.367C249.995 142.304 251.346 142.195 252.246 141.345C252.73 140.821 253.103 140.204 253.341 139.531C254.234 137.462 255.127 135.393 255.998 133.315C257.202 130.44 258.384 127.404 258.077 124.304C258.004 122.888 257.409 121.549 256.405 120.545C255.893 120.061 255.234 119.76 254.532 119.689C253.83 119.618 253.125 119.781 252.525 120.153C252.377 119.172 252.006 118.238 251.442 117.421C250.878 116.604 250.135 115.926 249.269 115.438C247.521 114.475 245.525 114.052 243.535 114.225C240.648 114.411 237.891 115.494 235.653 117.323C235.024 117.902 234.352 118.433 233.643 118.912C233.286 119.15 232.885 119.313 232.463 119.391C232.041 119.468 231.607 119.46 231.189 119.365C230.774 119.254 230.414 118.998 230.174 118.643C229.935 118.288 229.832 117.859 229.885 117.434C229.205 117.942 228.738 118.684 228.577 119.515C228.415 120.347 228.57 121.209 229.011 121.933C228.51 122.143 227.962 122.219 227.422 122.156C226.882 122.092 226.368 121.89 225.93 121.57C225.46 121.802 225.044 122.13 224.708 122.532C224.373 122.934 224.125 123.402 223.981 123.905C223.837 124.408 223.8 124.936 223.873 125.454C223.945 125.972 224.125 126.469 224.402 126.914C224.678 127.359 225.044 127.741 225.477 128.036C225.91 128.332 226.4 128.534 226.916 128.629C227.432 128.725 227.962 128.712 228.472 128.591C228.983 128.471 229.462 128.245 229.88 127.929C230.467 128.748 230.248 129.861 230.172 130.864C230.096 131.868 230.365 133.115 231.335 133.392C232.647 133.767 233.709 132.006 235.073 132.025C235.409 132.052 235.734 132.162 236.018 132.344C236.301 132.527 236.536 132.776 236.7 133.07C237.021 133.662 237.241 134.302 237.351 134.966L239.096 142.804" fill="#2F2E41"/>
<path d="M155.808 187.006H143.908C143.253 187.006 142.621 186.77 142.127 186.342C141.633 185.914 141.31 185.322 141.218 184.676C140.483 179.284 140.483 173.817 141.218 168.425C141.309 167.787 141.625 167.201 142.11 166.774C142.594 166.347 143.216 166.106 143.862 166.095C147.606 164.421 151.638 164.422 155.849 166.095C156.241 166.1 156.627 166.191 156.98 166.361C157.333 166.53 157.645 166.775 157.893 167.078C158.152 167.393 158.337 167.762 158.435 168.157C158.533 168.552 158.542 168.964 158.46 169.363C157.505 174.107 157.505 178.994 158.46 183.738C158.542 184.137 158.533 184.549 158.435 184.944C158.337 185.339 158.152 185.708 157.893 186.023C157.641 186.331 157.322 186.579 156.962 186.749C156.601 186.919 156.207 187.007 155.808 187.006Z" fill="#4FCE6C"/>
<path d="M154.561 172.29H144.546C144.463 172.29 144.381 172.275 144.304 172.244C144.228 172.213 144.158 172.167 144.099 172.109C144.041 172.051 143.994 171.982 143.962 171.905C143.931 171.829 143.914 171.748 143.914 171.665C143.914 171.583 143.931 171.501 143.962 171.425C143.994 171.349 144.041 171.28 144.099 171.222C144.158 171.164 144.228 171.118 144.304 171.087C144.381 171.056 144.463 171.04 144.546 171.041H154.561C154.644 171.04 154.726 171.056 154.803 171.087C154.879 171.118 154.949 171.164 155.008 171.222C155.066 171.28 155.113 171.349 155.145 171.425C155.176 171.501 155.193 171.583 155.193 171.665C155.193 171.748 155.176 171.829 155.145 171.905C155.113 171.982 155.066 172.051 155.008 172.109C154.949 172.167 154.879 172.213 154.803 172.244C154.726 172.275 154.644 172.29 154.561 172.29Z" fill="white"/>
<path d="M154.561 177.284H144.546C144.463 177.284 144.381 177.269 144.304 177.238C144.228 177.207 144.158 177.161 144.099 177.103C144.041 177.045 143.994 176.976 143.962 176.9C143.931 176.824 143.914 176.742 143.914 176.659C143.914 176.577 143.931 176.495 143.962 176.419C143.994 176.343 144.041 176.274 144.099 176.216C144.158 176.158 144.228 176.112 144.304 176.081C144.381 176.05 144.463 176.034 144.546 176.035H154.561C154.644 176.034 154.726 176.05 154.803 176.081C154.879 176.112 154.949 176.158 155.008 176.216C155.066 176.274 155.113 176.343 155.145 176.419C155.176 176.495 155.193 176.577 155.193 176.659C155.193 176.742 155.176 176.824 155.145 176.9C155.113 176.976 155.066 177.045 155.008 177.103C154.949 177.161 154.879 177.207 154.803 177.238C154.726 177.269 154.644 177.284 154.561 177.284Z" fill="white"/>
<path d="M154.561 182.28H144.546C144.463 182.281 144.381 182.265 144.304 182.234C144.228 182.203 144.158 182.157 144.099 182.099C144.04 182.041 143.994 181.972 143.962 181.896C143.93 181.82 143.914 181.738 143.914 181.656C143.914 181.573 143.93 181.491 143.962 181.415C143.994 181.339 144.04 181.27 144.099 181.212C144.158 181.154 144.228 181.108 144.304 181.077C144.381 181.046 144.463 181.031 144.546 181.031H154.561C154.644 181.031 154.726 181.046 154.803 181.077C154.879 181.108 154.949 181.154 155.008 181.212C155.066 181.27 155.113 181.339 155.145 181.415C155.177 181.491 155.193 181.573 155.193 181.656C155.193 181.738 155.177 181.82 155.145 181.896C155.113 181.972 155.066 182.041 155.008 182.099C154.949 182.157 154.879 182.203 154.803 182.234C154.726 182.265 154.644 182.281 154.561 182.28Z" fill="white"/>
<path d="M64.1149 235.957C64.5905 235.481 64.9555 234.906 65.1842 234.273C65.4129 233.64 65.4998 232.965 65.4386 232.296C65.3775 231.626 65.1698 230.978 64.8303 230.397C64.4907 229.816 64.0276 229.316 63.4734 228.933L70.8176 192.555L62.7074 195.152L56.8287 230.338C56.2449 231.309 56.0386 232.46 56.2488 233.573C56.459 234.686 57.0711 235.683 57.9692 236.375C58.8673 237.068 59.989 237.408 61.1217 237.331C62.2543 237.254 63.3194 236.765 64.1149 235.957Z" fill="#9E616A"/>
<path d="M74.9589 158.991L69.9269 155.203C69.9269 155.203 65.4879 154.889 64.7017 162.873C63.9155 170.856 62.3012 186.414 62.3012 186.414L54.6012 221.98L65.26 224.313L73.5073 185.931L78.4548 174.534L74.9589 158.991Z" fill="#5499BD"/>
<path d="M66.6631 217.066L95.0187 216.595L97.3818 197.271H66.6631V217.066Z" fill="#9E616A"/>
<path d="M92.1829 335.975H98.7289L101.843 310.795L92.1815 310.796L92.1829 335.975Z" fill="#9E616A"/>
<path d="M51.1733 336.581L57.7193 336.535L60.6564 311.334L52.1428 313.282L51.1733 336.581Z" fill="#9E616A"/>
<path d="M71.6469 180.631L70.1638 184.476L70.4601 188.322L99.4889 198.349L98.0488 181.518L94.7855 177.672L71.6469 180.631Z" fill="#FFB6B6"/>
<path d="M84.1005 146.021C89.8266 146.021 94.4684 141.392 94.4684 135.681C94.4684 129.971 89.8266 125.342 84.1005 125.342C78.3745 125.342 73.7326 129.971 73.7326 135.681C73.7326 141.392 78.3745 146.021 84.1005 146.021Z" fill="#9E616A"/>
<path d="M90.5593 332.757L100.907 332.141V336.562L110.745 343.338C111.231 343.673 111.597 344.153 111.79 344.71C111.982 345.267 111.991 345.87 111.816 346.433C111.64 346.995 111.289 347.486 110.813 347.835C110.337 348.184 109.762 348.372 109.172 348.372H96.8521L94.7286 343.999L93.8995 348.372H89.2545L90.5593 332.757Z" fill="#2F2E41"/>
<path d="M48.934 333.376L59.2774 332.688L59.3084 337.109L69.1938 343.816C69.6821 344.147 70.0514 344.625 70.2479 345.181C70.4443 345.736 70.4577 346.34 70.2859 346.903C70.1141 347.466 69.7662 347.96 69.293 348.313C68.8198 348.665 68.246 348.857 67.6555 348.861L55.3362 348.947L53.1821 344.589L52.3837 348.968L47.7388 349L48.934 333.376Z" fill="#2F2E41"/>
<path d="M49.1364 317.275L53.903 279.279L59.5741 239.218C55.421 231.526 64.7726 207.641 64.7726 207.641L66.0926 207.704L95.9702 213.325L95.9638 213.296C102.075 229.918 104.099 238.13 103.764 255.831L102.561 319.461H102.938C103.565 319.461 104.166 319.709 104.609 320.151C105.052 320.593 105.301 321.192 105.301 321.817C105.301 322.442 105.052 323.042 104.609 323.484C104.166 323.926 103.565 324.174 102.938 324.174H91.1234C90.8127 324.175 90.505 324.114 90.2179 323.996C89.9307 323.878 89.6697 323.704 89.4499 323.485C89.23 323.266 89.0556 323.006 88.9366 322.72C88.8176 322.434 88.7564 322.127 88.7564 321.817C88.7564 321.508 88.8176 321.201 88.9366 320.915C89.0556 320.629 89.23 320.369 89.4499 320.15C89.6697 319.931 89.9307 319.757 90.2179 319.639C90.505 319.521 90.8127 319.46 91.1234 319.461H91.428L80.5834 243.696L71.3889 275.508L60.9919 316.983C64.7726 316.04 64.1856 318.224 64.1856 319.461C64.1856 320.086 63.9366 320.685 63.4935 321.127C63.0503 321.569 62.4493 321.818 61.8226 321.818H50.0078C49.4583 321.818 48.9258 321.627 48.5021 321.278C48.0784 320.929 47.7901 320.444 47.6869 319.906C47.5836 319.368 47.6719 318.81 47.9365 318.33C48.2011 317.85 48.6254 317.476 49.1364 317.275Z" fill="#2F2E41"/>
<path d="M62.4462 208.877L63.3914 199.451C63.4896 199.067 63.7073 198.723 64.0133 198.469C64.3194 198.216 64.6981 198.065 65.0952 198.04C65.489 193.549 67.1459 174.178 67.2449 173.333L67.2488 173.298L68.0022 157.246C68.0296 156.663 68.2713 156.111 68.6813 155.694C69.0912 155.278 69.6407 155.026 70.2246 154.988L74.2042 154.729C74.2588 154.727 74.3105 154.704 74.3485 154.665C74.3865 154.626 74.4077 154.574 74.4077 154.519C74.4077 154.081 74.4943 153.647 74.6625 153.242C74.8306 152.837 75.0771 152.469 75.3879 152.159C75.6987 151.849 76.0676 151.603 76.4736 151.436C76.8796 151.268 77.3148 151.182 77.7543 151.182H89.5366C90.2998 151.182 91.0366 151.46 91.6087 151.964C92.1809 152.467 92.5491 153.162 92.6442 153.917C92.6494 153.969 92.6741 154.017 92.7134 154.052C92.7526 154.086 92.8035 154.105 92.8559 154.104H92.8573C94.1961 154.076 95.5004 154.528 96.5336 155.378C97.5668 156.227 98.2604 157.418 98.4885 158.734C100.099 168.08 103.327 189.293 101.731 201.086C101.176 205.192 102.373 201.94 102.584 205.375C102.604 205.707 102.559 206.04 102.451 206.354C102.343 206.669 102.173 206.959 101.952 207.208C102.405 207.372 102.774 207.707 102.98 208.141C103.186 208.575 103.212 209.072 103.053 209.525L103.26 209.474C103.199 209.714 103.092 209.94 102.943 210.138C102.795 210.337 102.609 210.505 102.396 210.632C102.183 210.759 101.947 210.842 101.701 210.878C101.456 210.914 101.205 210.902 100.965 210.841L70.1392 215.007C69.1268 214.752 62.191 209.887 62.4462 208.877Z" fill="#5499BD"/>
<path d="M144.816 170.554C144.623 171.198 144.29 171.793 143.842 172.295C143.394 172.797 142.84 173.196 142.221 173.462C141.602 173.728 140.931 173.855 140.257 173.835C139.583 173.815 138.922 173.647 138.32 173.344L126.403 184.19L124.821 175.843L136.387 166.85C136.964 165.875 137.88 165.145 138.961 164.798C140.041 164.452 141.212 164.512 142.251 164.969C143.29 165.425 144.125 166.246 144.598 167.275C145.07 168.305 145.148 169.471 144.816 170.554Z" fill="#9E616A"/>
<path d="M103.338 162.262C103.338 162.262 99.1827 152.897 93.9345 154.758C88.6863 156.62 91.396 165.706 91.396 165.706L111.114 195.337C111.114 195.337 139.554 177.143 136.096 177.014C132.637 176.886 131.603 170.613 131.603 170.613L116.572 178.103L116.063 175.437L115.248 176.25L113.145 174.599L103.338 162.262Z" fill="#5499BD"/>
<path d="M282.801 348.48L0.359118 348.559C0.263779 348.559 0.17244 348.527 0.105123 348.469C0.0378048 348.412 0 348.334 0 348.253C0 348.172 0.0378048 348.094 0.105123 348.036C0.17244 347.979 0.263779 347.947 0.359118 347.946L282.801 347.867C282.896 347.867 282.988 347.9 283.055 347.957C283.122 348.015 283.16 348.093 283.16 348.174C283.16 348.255 283.122 348.333 283.055 348.39C282.988 348.448 282.896 348.48 282.801 348.48Z" fill="#CACACA"/>
<path d="M71.898 129.351C70.3079 130.112 68.5279 128.967 67.1551 127.833L67.6462 128.256C65.2199 130.61 64.0855 133.997 63.5312 137.331C62.9764 140.662 62.9145 144.068 62.2159 147.375C61.5168 150.678 60.0665 153.997 57.3577 156.021C53.7286 158.731 48.7234 158.557 44.2699 157.726C44.2106 157.714 44.1553 157.705 44.0959 157.693C45.2942 154.242 45.7813 150.586 45.5281 146.943C44.3343 150.594 42.302 153.916 39.5933 156.644C36.6405 155.834 33.7584 154.787 30.9751 153.513C29.1742 152.686 27.2351 151.556 26.7353 149.642C26.2342 147.742 27.3978 145.75 28.9537 144.551C30.5095 143.351 32.4191 142.726 34.1917 141.871C35.9613 141.021 37.7124 139.808 38.421 137.978C40.0552 133.767 35.3997 128.935 37.2141 124.796C38.1088 122.76 40.3002 121.653 42.36 120.799C45.5044 119.5 48.7333 118.413 52.0247 117.548C54.914 116.788 57.9309 116.197 60.8743 116.696C63.8176 117.194 66.7013 118.979 67.7606 121.767C69.5282 122.363 71.4047 123.034 72.5391 124.518C73.673 125.998 73.5816 128.547 71.898 129.351Z" fill="#2F2E41"/>
<path d="M86.0465 124.472C81.4976 120.891 77.8196 121.502 74.9822 123.727C74.5053 123.198 72.4754 124.654 71.7881 124.445L69.3022 129.099C68.023 131.35 67.4982 133.648 67.705 134.941C65.352 141.522 70.9318 145.965 77.5305 148.312C80.1636 149.255 83.0365 149.296 85.6958 148.43L85.7768 147.308L86.2766 148.227C86.2766 148.227 92.309 160.615 93.7345 161.171C92.8696 158.933 90.5883 148.298 89.9515 146.082C89.0783 143.065 89.6748 138.274 90.188 135.336C90.5078 133.524 90.5246 131.673 90.2375 129.856L90.2248 129.777L91.6362 132.618L94.803 130.632C93.5927 127.116 93.5685 122.911 86.0465 124.472Z" fill="#2F2E41"/>
</svg>
