<svg width="337" height="294" viewBox="0 0 337 294" fill="none" xmlns="http://www.w3.org/2000/svg">
<path d="M243.89 286.222L237.857 286.222L234.986 262.938L243.891 262.938L243.89 286.222Z" fill="#FFB6B6"/>
<path d="M244.103 292.521L225.547 292.521V292.286C225.548 290.37 226.308 288.532 227.663 287.177C229.017 285.822 230.854 285.061 232.77 285.061L236.159 282.488L242.483 285.061L244.103 285.061L244.103 292.521Z" fill="#2F2E41"/>
<path d="M306.349 269.217L301.582 272.918L285.044 256.285L292.079 250.822L306.349 269.217Z" fill="#FFB6B6"/>
<path d="M310.376 274.062L295.717 285.443L295.574 285.257C294.399 283.744 293.874 281.825 294.114 279.924C294.353 278.023 295.338 276.295 296.851 275.12L297.952 271.008L304.525 269.162L305.804 268.168L310.376 274.062Z" fill="#2F2E41"/>
<path d="M280.248 156.56C280.248 156.56 279.837 162.864 279.317 171.876C279.232 173.354 279.734 174.959 279.645 176.567C279.585 177.634 278.935 178.671 278.874 179.783C278.811 180.957 279.709 181.996 279.645 183.21C279.582 184.396 278.558 185.756 278.496 186.97C277.831 200.035 275.419 215.676 277.834 220.048C279.024 222.203 297.15 252.055 297.15 252.055C297.15 252.055 288.699 264.737 286.285 260.51C283.096 254.926 258.517 228.805 258.517 223.816C258.517 218.834 252.831 181.495 252.831 181.495L248.866 203.592L247.048 207.97L247.619 210.54L246.445 214.009L246.381 217.442L245.237 223.816C245.237 223.816 248.678 273.482 246.74 274.865C244.797 276.254 235.386 278.748 234.275 276.254C233.17 273.759 228.939 224.42 228.939 224.42C228.939 224.42 227.78 201.81 226.524 180.794C226.452 179.574 225.595 178.101 225.528 176.899C225.45 175.504 225.993 173.692 225.921 172.34C225.842 170.788 225.154 169.695 225.088 168.209C224.575 156.729 224.496 147.682 225.414 146.305C228.184 142.15 230.677 138.829 230.677 138.829C230.677 138.829 270.276 129.13 280.249 141.595L280.248 156.56Z" fill="#2F2E41"/>
<path d="M244.634 37.6708L254.182 37.1367L261.377 41.0662L281.386 154.428C281.386 154.428 260.932 163.887 248.255 160.263C235.579 156.64 222.23 156.844 222.23 156.844L231.957 48.5411L239.804 41.2943L244.634 37.6708Z" fill="#2F2E41"/>
<path d="M194.367 114.52L175.56 128.172C174.84 128.209 174.142 128.436 173.537 128.829C172.932 129.222 172.441 129.767 172.114 130.411C171.786 131.054 171.634 131.772 171.672 132.493C171.711 133.213 171.938 133.911 172.331 134.516C172.725 135.121 173.271 135.611 173.914 135.938C174.557 136.265 175.275 136.416 175.996 136.377C176.716 136.338 177.413 136.11 178.017 135.715C178.622 135.321 179.111 134.774 179.437 134.13L205.01 120.472L194.367 114.52Z" fill="#FFB6B6"/>
<path d="M277.207 108.945L260.448 125.046C259.739 125.182 259.079 125.502 258.533 125.974C257.988 126.446 257.576 127.054 257.34 127.736C257.103 128.418 257.051 129.15 257.188 129.859C257.324 130.567 257.645 131.228 258.117 131.773C258.59 132.318 259.198 132.729 259.88 132.965C260.562 133.2 261.294 133.252 262.002 133.114C262.71 132.977 263.37 132.655 263.914 132.182C264.459 131.708 264.869 131.1 265.103 130.417L288.565 113.384L277.207 108.945Z" fill="#FFB6B6"/>
<path d="M260.562 40.0742L275.341 46.1122C277.611 46.2229 279.776 47.0989 281.484 48.5976C283.192 50.0964 284.343 52.1295 284.748 54.366L283.768 83.5663L278.438 97.4573L282.239 129.102L280.248 133.088L281.968 137.156C279.444 141.256 279.958 146.628 281.456 152.413H279.645L276.023 151.809C276.023 151.809 268.049 154.578 266.415 144.631C262.139 118.594 259.725 130.068 259.725 130.068L257.62 49.2824L260.562 40.0742Z" fill="#5499BD"/>
<path d="M240.408 40.0859L226.602 54.5664C224.333 54.677 222.168 55.5531 220.46 57.0518C218.752 58.5506 217.601 60.5837 217.195 62.8202L222.903 107.723L220.224 124.953L221.695 128.86L220.63 133.276L222.299 137.315L221.092 142.75L222.903 150.6L231.957 148.185L231.888 141.746L234.302 54.1798L240.408 40.0859Z" fill="#5499BD"/>
<path d="M220.488 56.9959C216.914 58.6452 208.084 100.87 205.492 101.766C202.901 102.661 203.89 102.526 203.527 103.274C203.163 104.021 203.075 107.368 200.587 107.761C198.1 108.153 184.956 120.142 184.956 120.142L188.287 131.253C188.287 131.253 213.581 116.797 220.555 108.791C227.529 100.785 231.284 59.6156 231.284 59.6156L231.998 55.5083C231.998 55.5083 224.062 55.3466 220.488 56.9959Z" fill="#5499BD"/>
<path d="M279.645 60.6194C276.33 62.743 288.926 93.5444 286.482 94.7864C284.037 96.0283 284.999 95.7594 284.741 96.5496C284.483 97.3398 284.854 100.667 282.444 101.397C280.033 102.127 268.654 115.803 268.654 115.803L273.476 126.354C273.476 126.354 296.552 108.567 302.364 99.6813C308.177 90.7955 304.394 87.7951 304.394 87.7951C297.183 72.4726 290.438 47.484 280.249 49.1452C280.249 49.1452 282.96 58.4958 279.645 60.6194Z" fill="#5499BD"/>
<path d="M246.681 35.2795C255.618 35.2795 262.863 28.0316 262.863 19.0909C262.863 10.1502 255.618 2.90234 246.681 2.90234C237.745 2.90234 230.5 10.1502 230.5 19.0909C230.5 28.0316 237.745 35.2795 246.681 35.2795Z" fill="#FFB6B6"/>
<path d="M263.067 29.5213C263.067 29.5213 259.504 30.4989 257.43 31.0432C257.537 29.4992 258.205 28.0538 258.545 26.5434C258.884 25.033 258.81 23.2566 257.688 22.1901C256.566 21.1237 254.229 21.5392 254.049 23.0737C253.099 21.0431 252.148 19.0088 251.195 16.9707C248.477 22.5672 242.921 17.798 236.863 19.2121C233.772 19.9405 229.899 19.6276 228.266 16.9032C229.184 16.1327 229.957 15.2048 230.549 14.1631C229.607 14.4395 228.628 14.5637 227.647 14.531C227.669 13.5565 227.925 12.6016 228.393 11.7467C228.861 10.8918 229.528 10.1618 230.337 9.61834C231.208 9.04841 229.051 7.02049 229.812 6.30663C231.372 4.84969 232.418 5.83904 233.34 3.91859C233.934 2.73102 234.849 1.73416 235.982 1.04145C237.114 0.348743 238.418 -0.0119947 239.746 0.00030431C242.394 0.0623495 247.139 0.0367923 248.166 2.47753C251.441 0.333068 255.999 0.938952 259.2 3.18853C261.86 5.05112 264.888 10.6811 265.556 13.8593C266.224 17.0374 264.752 26.7514 263.067 29.5213Z" fill="#2F2E41"/>
<path d="M169.211 142.448C173.194 142.448 176.422 139.218 176.422 135.234C176.422 131.249 173.194 128.02 169.211 128.02C165.229 128.02 162 131.249 162 135.234C162 139.218 165.229 142.448 169.211 142.448Z" fill="#CCCCCC"/>
<path d="M335.536 293.886L1.468 294C1.27542 294 1.08461 293.989 0.906535 293.967C0.728456 293.944 0.566603 293.912 0.430233 293.871C0.293862 293.83 0.185623 293.781 0.111797 293.727C0.0379721 293.673 0 293.615 0 293.557C0 293.499 0.0379721 293.441 0.111797 293.387C0.185623 293.334 0.293862 293.285 0.430233 293.244C0.566603 293.202 0.728456 293.17 0.906535 293.148C1.08461 293.125 1.27542 293.114 1.468 293.114L335.536 293C335.924 293 336.297 293.047 336.571 293.13C336.846 293.213 337 293.325 337 293.443C337 293.56 336.846 293.673 336.571 293.756C336.297 293.839 335.924 293.886 335.536 293.886Z" fill="#CACACA"/>
<path d="M50.0612 116.999H136.761C138.32 117.019 139.83 116.454 140.984 115.417C142.139 114.379 142.855 112.948 142.986 111.409C143.042 110.589 142.928 109.766 142.649 108.991C142.371 108.216 141.935 107.507 141.368 106.906C140.801 106.305 140.115 105.825 139.353 105.498C138.591 105.17 137.769 105 136.939 105H50.0612C48.4537 105 46.912 105.632 45.7753 106.757C44.6386 107.882 44 109.409 44 111C44 112.591 44.6386 114.117 45.7753 115.242C46.912 116.367 48.4537 116.999 50.0612 116.999Z" fill="#5499BD"/>
<path d="M0.506622 127H143.493C143.628 127 143.757 126.947 143.852 126.854C143.947 126.76 144 126.633 144 126.5C144 126.367 143.947 126.24 143.852 126.146C143.757 126.053 143.628 126 143.493 126H0.506622C0.372269 126 0.243408 126.053 0.148407 126.146C0.0533905 126.24 0 126.367 0 126.5C0 126.633 0.0533905 126.76 0.148407 126.854C0.243408 126.947 0.372269 127 0.506622 127Z" fill="#E6E6E6"/>
<path d="M6.33803 117H137.662C139.343 117 140.955 116.368 142.144 115.243C143.332 114.117 144 112.591 144 111C144 109.409 143.332 107.883 142.144 106.757C140.955 105.632 139.343 105 137.662 105H6.33803C4.65709 105 3.04497 105.632 1.85635 106.757C0.66774 107.883 0 109.409 0 111C0 112.591 0.66774 114.117 1.85635 115.243C3.04497 116.368 4.65709 117 6.33803 117ZM137.662 105.96C139.074 105.96 140.428 106.491 141.427 107.436C142.425 108.381 142.986 109.663 142.986 111C142.986 112.337 142.425 113.619 141.427 114.564C140.428 115.509 139.074 116.04 137.662 116.04H6.33803C4.92604 116.04 3.57187 115.509 2.57344 114.564C1.575 113.619 1.01408 112.337 1.01408 111C1.01408 109.663 1.575 108.381 2.57344 107.436C3.57187 106.491 4.92604 105.96 6.33803 105.96H137.662Z" fill="#3F3D56"/>
<path d="M89.0504 164.999H136.772C138.329 165.021 139.835 164.408 140.988 163.285C142.141 162.161 142.855 160.61 142.986 158.944C143.042 158.055 142.928 157.163 142.65 156.324C142.372 155.484 141.936 154.715 141.37 154.064C140.804 153.413 140.12 152.894 139.36 152.539C138.599 152.184 137.779 152 136.949 152H89.0504C87.4457 152 85.9068 152.685 84.7721 153.904C83.6375 155.123 83 156.776 83 158.5C83 160.224 83.6375 161.877 84.7721 163.096C85.9068 164.315 87.4458 164.999 89.0504 164.999Z" fill="#4FCE6C"/>
<path d="M0.506622 174H143.493C143.628 174 143.757 173.947 143.852 173.854C143.947 173.76 144 173.633 144 173.5C144 173.367 143.947 173.24 143.852 173.146C143.757 173.053 143.628 173 143.493 173H0.506622C0.372269 173 0.243408 173.053 0.148407 173.146C0.0533905 173.24 0 173.367 0 173.5C0 173.633 0.0533905 173.76 0.148407 173.854C0.243408 173.947 0.372269 174 0.506622 174Z" fill="#E6E6E6"/>
<path d="M6.33803 165H137.662C139.343 165 140.955 164.315 142.144 163.096C143.332 161.877 144 160.224 144 158.5C144 156.776 143.332 155.123 142.144 153.904C140.955 152.685 139.343 152 137.662 152H6.33803C4.65709 152 3.04497 152.685 1.85635 153.904C0.66774 155.123 0 156.776 0 158.5C0 160.224 0.66774 161.877 1.85635 163.096C3.04497 164.315 4.65709 165 6.33803 165ZM137.662 153.04C139.074 153.04 140.428 153.615 141.427 154.639C142.425 155.663 142.986 157.052 142.986 158.5C142.986 159.948 142.425 161.337 141.427 162.361C140.428 163.385 139.074 163.96 137.662 163.96H6.33803C4.92604 163.96 3.57187 163.385 2.57344 162.361C1.575 161.337 1.01408 159.948 1.01408 158.5C1.01408 157.052 1.575 155.663 2.57344 154.639C3.57187 153.615 4.92604 153.04 6.33803 153.04H137.662Z" fill="#3F3D56"/>
<path d="M25.0488 211.999H136.774C138.33 212.019 139.836 211.454 140.989 210.417C142.141 209.379 142.855 207.948 142.986 206.409C143.042 205.589 142.928 204.766 142.65 203.991C142.372 203.216 141.937 202.507 141.371 201.906C140.805 201.305 140.121 200.825 139.36 200.498C138.6 200.17 137.78 200 136.951 200H25.0488C23.4445 200 21.906 200.632 20.7716 201.757C19.6373 202.882 19 204.409 19 206C19 207.591 19.6373 209.117 20.7716 210.242C21.906 211.367 23.4446 211.999 25.0488 211.999Z" fill="#4FCE6C"/>
<path d="M0.506622 222H143.493C143.628 222 143.757 221.947 143.852 221.854C143.947 221.76 144 221.633 144 221.5C144 221.367 143.947 221.24 143.852 221.146C143.757 221.053 143.628 221 143.493 221H0.506622C0.372269 221 0.243408 221.053 0.148407 221.146C0.0533905 221.24 0 221.367 0 221.5C0 221.633 0.0533905 221.76 0.148407 221.854C0.243408 221.947 0.372269 222 0.506622 222Z" fill="#E6E6E6"/>
<path d="M6.33803 212H137.662C139.343 212 140.955 211.368 142.144 210.243C143.332 209.117 144 207.591 144 206C144 204.409 143.332 202.883 142.144 201.757C140.955 200.632 139.343 200 137.662 200H6.33803C4.65709 200 3.04497 200.632 1.85635 201.757C0.66774 202.883 0 204.409 0 206C0 207.591 0.66774 209.117 1.85635 210.243C3.04497 211.368 4.65709 212 6.33803 212ZM137.662 200.96C139.074 200.96 140.428 201.491 141.427 202.436C142.425 203.381 142.986 204.663 142.986 206C142.986 207.337 142.425 208.619 141.427 209.564C140.428 210.509 139.074 211.04 137.662 211.04H6.33803C4.92604 211.04 3.57187 210.509 2.57344 209.564C1.575 208.619 1.01408 207.337 1.01408 206C1.01408 204.663 1.575 203.381 2.57344 202.436C3.57187 201.491 4.92604 200.96 6.33803 200.96H137.662Z" fill="#3F3D56"/>
<path d="M94.0093 158H93V136H166V136.999H94.0093V158Z" fill="#CCCCCC"/>
<path d="M169 142C165.686 142 163 139.314 163 136C163 132.686 165.686 130 169 130C172.314 130 175 132.686 175 136C175 139.314 172.314 142 169 142Z" fill="#CCCCCC"/>
</svg>
