<svg width="393" height="643" viewBox="0 0 393 643" fill="none" xmlns="http://www.w3.org/2000/svg">
<path d="M318.35 739.265C265.48 700.933 225.298 655.717 203.05 613.643C180.769 571.505 176.618 532.835 195.157 507.266C213.696 481.697 251.74 473.619 298.717 481.696C345.623 489.761 401.09 513.896 453.959 552.228C506.829 590.561 547.011 635.776 569.259 677.85C591.541 719.988 595.691 758.658 577.152 784.227C558.613 809.797 520.569 817.874 473.592 809.797C426.686 801.732 371.219 777.598 318.35 739.265Z" stroke="white" stroke-opacity="0.11" stroke-width="2"/>
<path d="M239.906 705.918C162.804 650.016 102.141 586.878 66.3764 530.023C48.4928 501.593 36.8632 474.779 32.4894 451.259C28.1162 427.742 31.0098 407.612 42.0362 392.404C53.0625 377.196 71.2952 368.188 95.0063 365.033C118.721 361.878 147.821 364.595 180.402 372.754C245.559 389.071 324.427 427.099 401.53 483.001C478.632 538.903 539.295 602.041 575.059 658.896C592.943 687.326 604.573 714.14 608.946 737.66C613.32 761.177 610.426 781.307 599.4 796.515C588.373 811.723 570.14 820.731 546.429 823.886C522.715 827.041 493.614 824.324 461.033 816.165C395.877 799.848 317.008 761.82 239.906 705.918Z" stroke="white" stroke-opacity="0.11" stroke-width="2"/>
<path d="M135.725 665.569C36.8863 593.907 -41.1466 513.316 -87.4223 440.984C-110.562 404.815 -125.732 370.756 -131.619 340.944C-137.506 311.134 -134.097 285.673 -120.228 266.544C-106.359 247.416 -83.219 236.259 -53.0558 232.587C-22.8908 228.915 14.1965 232.744 55.7669 243.493C138.901 264.988 239.758 314.1 338.596 385.762C437.435 457.424 515.468 538.014 561.743 610.346C584.883 646.515 600.053 680.574 605.94 710.386C611.827 740.196 608.418 765.658 594.549 784.786C580.68 803.915 557.54 815.071 527.377 818.743C497.212 822.416 460.125 818.586 418.554 807.838C335.42 786.342 234.563 737.231 135.725 665.569Z" stroke="white" stroke-opacity="0.11" stroke-width="2"/>
</svg>
