<svg width="393" height="470" viewBox="0 0 393 470" fill="none" xmlns="http://www.w3.org/2000/svg">
<path d="M-3.52656 -202.316C40.0104 -153.642 69.6889 -100.934 82.5074 -55.0983C95.3453 -9.19346 91.1995 29.4777 67.6597 50.5333C44.12 71.589 5.2276 71.4142 -38.9675 53.5574C-83.0958 35.7276 -132.182 0.37871 -175.719 -48.2947C-219.256 -96.968 -248.934 -149.677 -261.753 -195.512C-274.591 -241.417 -270.445 -280.088 -246.905 -301.144C-223.366 -322.199 -184.473 -322.025 -140.278 -304.168C-96.1498 -286.338 -47.0635 -250.989 -3.52656 -202.316Z" stroke="white" stroke-opacity="0.11" stroke-width="2"/>
<path d="M66.0604 -153.09C129.553 -82.1073 175.445 -7.53984 198.337 55.6069C209.784 87.1829 215.463 115.854 214.749 139.766C214.035 163.675 206.938 182.734 192.937 195.257C178.936 207.78 159.207 212.717 135.367 210.771C111.523 208.825 83.6601 199.998 53.5507 185.114C-6.66278 155.35 -75.672 101.46 -139.164 30.4772C-202.656 -40.5058 -248.549 -115.073 -271.441 -178.22C-282.888 -209.796 -288.566 -238.467 -287.852 -262.379C-287.139 -286.289 -280.042 -305.347 -266.041 -317.87C-252.04 -330.394 -232.311 -335.33 -208.47 -333.384C-184.627 -331.438 -156.764 -322.611 -126.655 -307.727C-66.4411 -277.963 2.56814 -224.073 66.0604 -153.09Z" stroke="white" stroke-opacity="0.11" stroke-width="2"/>
<path d="M159.314 -91.5641C240.705 -0.570093 299.871 94.7366 329.753 175.238C344.695 215.492 352.297 251.993 351.727 282.375C351.158 312.756 342.426 336.915 324.816 352.667C307.206 368.419 282.226 374.414 251.97 371.605C221.712 368.797 186.281 357.188 147.936 337.868C71.2515 299.23 -16.8944 229.845 -98.2859 138.851C-179.677 47.8572 -238.843 -47.4494 -268.725 -127.951C-283.668 -168.204 -291.269 -204.706 -290.7 -235.088C-290.131 -265.469 -281.399 -289.628 -263.788 -305.38C-246.178 -321.132 -221.198 -327.127 -190.942 -324.318C-160.685 -321.51 -125.253 -309.901 -86.9083 -290.581C-10.2238 -251.943 77.9221 -182.558 159.314 -91.5641Z" stroke="white" stroke-opacity="0.11" stroke-width="2"/>
</svg>
