<svg width="393" height="430" viewBox="0 0 393 430" fill="none" xmlns="http://www.w3.org/2000/svg">
<path d="M91.2428 160.281C88.0105 161.512 84.7099 162.556 81.3574 163.407C76.929 164.486 74.4287 164.986 70.1545 163.327C70.0043 163.269 69.8611 163.212 69.7259 163.155C61.6243 159.711 54.6989 153.987 49.7925 146.679C44.8862 139.37 42.2105 130.794 42.0913 121.993C42.0699 121.691 42.07 121.374 42.07 121.064C42.0658 119.572 42.1371 118.082 42.2836 116.597C42.4709 114.575 42.7944 112.568 43.252 110.59L43.2092 110.582C39.7487 107.044 38.4172 102.198 38.8587 97.3284C39.1611 94.0272 40.209 90.8376 41.9235 88.0001C43.6379 85.1625 45.9741 82.751 48.7561 80.9473C53.116 78.2067 58.032 76.4718 63.1466 75.8688C64.5199 75.7105 65.9011 75.6304 67.2836 75.6289H80.2713C82.9537 75.001 85.6787 74.5714 88.4243 74.3437H88.4456C114.585 72.1761 135.199 89.5017 133.276 110.582C133.262 110.605 133.241 110.628 133.226 110.652C132.671 111.557 132.18 112.417 131.745 113.237C131.325 114.004 130.969 114.739 130.663 115.436C128.278 120.824 139.613 204.421 135.548 205.69C133.233 206.41 123.906 144.204 125.579 156.033C127.687 170.873 103.285 155.831 91.2428 160.281Z" fill="#2F2E41"/>
<path d="M130.62 311.399L166.854 388.577L27.4698 374.463L56.5656 300.373L130.62 311.399Z" fill="#FFB6B6"/>
<path d="M203.357 466.138C179.119 474.205 153.576 477.625 128.069 476.22L116.978 458.236C116.978 458.236 116.513 464.934 115.82 475.174C103.678 473.767 91.6947 471.227 80.0263 467.586C57.898 460.668 37.1552 449.949 16.129 440.063C11.8703 414.681 10.2722 375.541 33.8175 352.756L160.549 375.974C160.549 375.974 180.883 391.18 175.443 396.626C170.004 402.065 169.161 401.222 172.735 404.796C176.309 408.369 184.032 413.146 184.11 416.271C184.142 417.491 192.809 439.615 203.357 466.138Z" fill="#2F2E41"/>
<path d="M108.49 162.264L77.8717 164.399L58.0822 183.519L51.1514 184.755C44.9215 185.866 39.3159 189.224 35.3973 194.191C31.4788 199.159 29.5199 205.392 29.8921 211.708C31.3177 235.857 34.5097 271.939 41.1812 283.646C51.526 301.798 60.0705 296.102 51.526 301.798C42.9814 307.493 37.2448 303.018 41.1812 312.019C45.1176 321.019 35.8609 332.564 35.8609 332.564L32.1761 336.248L36.0843 337.85L160.617 354.051C160.617 354.051 149.849 305.646 156.583 293.755C163.317 281.864 179.645 245.921 165.073 231.857L150.825 181.726L126.316 174.499L108.49 162.264Z" fill="#5499BD"/>
<path d="M293.835 360.933C291.786 360.868 289.775 360.358 287.943 359.44C286.11 358.522 284.498 357.217 283.22 355.615C281.941 354.012 281.026 352.152 280.537 350.161C280.048 348.171 279.998 346.098 280.389 344.086L221.974 304.532L228.944 285.688L297.981 333.173C301.32 334.084 304.208 336.187 306.099 339.085C307.989 341.982 308.751 345.472 308.24 348.894C307.729 352.316 305.981 355.431 303.326 357.65C300.67 359.869 297.294 361.037 293.835 360.933Z" fill="#FFB6B6"/>
<path d="M128.84 179.358L120.351 182.718L165.632 271.138L259.372 335.022L272.884 312.188L201.529 250.567L172.961 195.789C168.941 188.081 162.206 182.135 154.058 179.1C145.909 176.065 136.925 176.157 128.84 179.358Z" fill="#5499BD"/>
<path d="M91.5875 154.487C108.567 154.487 122.332 140.725 122.332 123.749C122.332 106.772 108.567 93.0098 91.5875 93.0098C74.6076 93.0098 60.8427 106.772 60.8427 123.749C60.8427 140.725 74.6076 154.487 91.5875 154.487Z" fill="#FFB6B6"/>
<path d="M118.323 110.75C117.81 111.021 117.305 111.27 116.792 111.519C116.258 111.775 115.724 112.032 115.183 112.274C104.894 116.937 96.5131 117.456 91.4291 110.75C91.29 107.222 90.4956 103.751 89.0865 100.513C89.3355 104.131 88.3818 107.73 86.3736 110.75H76.1343C65.5889 117.748 60.1774 124.177 67.4972 147.15C67.9742 148.659 71.2426 202.28 72.1753 206.402C56.2113 200.28 42.4402 135.275 42.0913 118.147C42.07 117.869 42.07 117.577 42.07 117.293C42.0658 115.92 42.1372 114.549 42.2836 113.185C42.4715 111.322 42.7951 109.476 43.252 107.66L43.2093 107.653C41.585 106.101 40.3459 104.19 39.5905 102.074C38.8352 99.9585 38.5846 97.6954 38.8587 95.4655C41.5367 91.9596 44.8508 88.9891 48.6279 86.709C52.0625 85.0462 55.6425 83.7021 59.3229 82.6938C59.4154 82.6725 59.4938 82.6511 59.5863 82.6298C60.7114 82.3236 61.8649 82.046 63.0184 81.8039C65.3956 81.3055 67.799 80.9419 70.2172 80.7147C70.3952 80.7076 70.5661 80.6934 70.7228 80.6934C71.69 80.694 72.6393 80.9546 73.4713 81.448C73.4784 81.448 73.4784 81.4551 73.4926 81.4551C74.292 81.9327 74.9549 82.6079 75.4176 83.4159C75.8803 84.2238 76.1271 85.1373 76.1343 86.0683H87.5413C87.9614 86.0683 88.3815 86.0825 88.8016 86.1039C104.687 86.7374 117.454 93.5291 118.273 109.141C118.309 109.682 118.323 110.209 118.323 110.75Z" fill="#2F2E41"/>
<path d="M50.8829 111.986C62.0693 111.986 71.1377 102.92 71.1377 91.7353C71.1377 80.551 62.0693 71.4844 50.8829 71.4844C39.6964 71.4844 30.628 80.551 30.628 91.7353C30.628 102.92 39.6964 111.986 50.8829 111.986Z" fill="#2F2E41"/>
<path d="M78.6907 82.3682C76.3895 93.3133 65.0365 99.8594 54.1754 97.1816C48.9597 95.8957 44.4686 92.591 41.69 87.9944C38.9114 83.3978 38.0729 77.8858 39.3591 72.6712C42.0374 61.8122 55.2187 64.9427 63.8743 57.8577C76.1189 47.835 81.7939 67.6079 78.6907 82.3682Z" fill="#2F2E41"/>
<path d="M33.6873 387.037C50.9501 316.653 85.1548 256.157 141.802 208.759C143.995 205.153 147.528 202.564 151.627 201.56C155.727 200.555 160.057 201.217 163.669 203.401L298.334 285.036C301.941 287.228 304.531 290.761 305.535 294.859C306.54 298.958 305.877 303.287 303.693 306.898C282.072 379.119 249.687 441.789 195.578 485.176C193.386 488.782 189.853 491.371 185.753 492.376C181.654 493.38 177.324 492.718 173.712 490.534L39.0464 408.899C35.4399 406.707 32.8502 403.174 31.8455 399.076C30.8408 394.977 31.5032 390.648 33.6873 387.037Z" fill="#F2F2F2"/>
<path opacity="0.2" d="M57.6228 410.757C54.0163 408.566 51.4266 405.033 50.422 400.934C49.4173 396.836 50.0797 392.506 52.2639 388.895C69.5267 318.511 103.731 258.015 160.379 210.617C161.83 208.257 163.879 206.322 166.319 205.008L163.669 203.401C160.057 201.217 155.727 200.555 151.628 201.56C147.528 202.564 143.995 205.153 141.802 208.759C85.155 256.157 50.9503 316.653 33.6875 387.037C31.5033 390.648 30.8409 394.977 31.8456 399.076C32.8502 403.174 35.4399 406.707 39.0464 408.899L173.712 490.534C176.109 491.976 178.844 492.759 181.641 492.803C184.438 492.847 187.197 492.151 189.638 490.786L57.6228 410.757Z" fill="black"/>
<path d="M215.551 371.433L125.157 316.978C123.721 316.11 122.688 314.708 122.285 313.08C121.882 311.451 122.143 309.729 123.009 308.292C123.874 306.855 125.276 305.821 126.904 305.416C128.532 305.011 130.255 305.269 131.693 306.133L222.087 360.588C223.519 361.457 224.549 362.859 224.95 364.486C225.351 366.112 225.09 367.832 224.225 369.267C223.36 370.702 221.962 371.736 220.336 372.142C218.71 372.548 216.989 372.293 215.551 371.433Z" fill="white"/>
<path d="M162.966 299.22L143.079 287.24C141.638 286.378 140.598 284.979 140.189 283.351C139.78 281.722 140.034 279.998 140.896 278.557C141.758 277.116 143.158 276.077 144.786 275.668C146.415 275.258 148.14 275.513 149.581 276.375L149.615 276.395L169.502 288.375C170.935 289.245 171.965 290.646 172.366 292.273C172.767 293.9 172.506 295.62 171.641 297.055C170.776 298.491 169.377 299.525 167.751 299.931C166.125 300.336 164.404 300.081 162.966 299.22Z" fill="white"/>
<path d="M201.184 395.272L110.791 340.817C109.353 339.951 108.318 338.55 107.913 336.922C107.507 335.293 107.765 333.571 108.63 332.133C109.494 330.694 110.894 329.658 112.523 329.251C114.151 328.845 115.874 329.101 117.314 329.964L117.326 329.972L207.72 384.427C209.153 385.296 210.182 386.698 210.583 388.324C210.984 389.951 210.723 391.671 209.858 393.106C208.993 394.541 207.595 395.575 205.969 395.981C204.343 396.387 202.623 396.132 201.184 395.272Z" fill="white"/>
<path d="M227.03 268.757C241.612 268.757 253.433 256.939 253.433 242.36C253.433 227.781 241.612 215.963 227.03 215.963C212.449 215.963 200.628 227.781 200.628 242.36C200.628 256.939 212.449 268.757 227.03 268.757Z" fill="#3F3D56"/>
<path d="M228.571 269.676C245.914 269.676 259.973 255.63 259.973 238.303C259.973 220.976 245.914 206.93 228.571 206.93C211.228 206.93 197.168 220.976 197.168 238.303C197.168 255.63 211.228 269.676 228.571 269.676Z" fill="white"/>
<path d="M225.037 253.654C224.505 253.654 223.98 253.53 223.504 253.292C223.029 253.055 222.615 252.709 222.296 252.284L213.891 241.087C213.62 240.728 213.423 240.318 213.311 239.882C213.199 239.447 213.174 238.993 213.238 238.548C213.301 238.102 213.452 237.674 213.681 237.287C213.911 236.9 214.214 236.561 214.574 236.291C214.935 236.021 215.345 235.825 215.781 235.714C216.217 235.602 216.671 235.578 217.117 235.641C217.562 235.705 217.991 235.856 218.378 236.086C218.766 236.315 219.104 236.619 219.374 236.979L224.873 244.303L238.996 223.138C239.245 222.764 239.566 222.443 239.94 222.192C240.314 221.942 240.734 221.768 241.175 221.68C241.616 221.592 242.071 221.591 242.512 221.678C242.954 221.766 243.374 221.939 243.748 222.188C244.123 222.438 244.444 222.758 244.695 223.132C244.945 223.506 245.12 223.925 245.208 224.366C245.296 224.807 245.297 225.261 245.209 225.702C245.122 226.143 244.948 226.562 244.699 226.937L227.889 252.129C227.585 252.585 227.176 252.961 226.696 253.226C226.216 253.491 225.68 253.637 225.132 253.653C225.101 253.653 225.069 253.654 225.037 253.654Z" fill="#4FCE6C"/>
<path d="M42.0842 387.782C40.072 386.958 38.263 385.706 36.7822 384.114C35.3014 382.522 34.1841 380.628 33.5077 378.561C32.8313 376.495 32.6119 374.307 32.8647 372.147C33.1174 369.988 33.8363 367.909 34.9716 366.055L-8.40753 305.09L5.5088 288.947L56.5013 361.734C59.4809 363.876 61.5709 367.038 62.3751 370.618C63.1794 374.198 62.6421 377.949 60.865 381.16C59.0879 384.371 56.1945 386.819 52.7331 388.039C49.2717 389.26 45.4827 389.168 42.0842 387.782Z" fill="#FFB6B6"/>
<path d="M43.0809 194.584C40.8863 193.293 38.3033 192.826 35.7956 193.268C33.2879 193.709 31.0196 195.03 29.398 196.992L-29.2129 278.947L25.1041 356.078L46.3586 333.253L13.2961 281.308L57.2364 239.48C60.8473 231.571 61.3988 222.605 58.7845 214.313C56.1702 206.022 50.5755 198.993 43.0809 194.584Z" fill="#5499BD"/>
<path d="M339.345 35.6811C338.789 36.5301 338.333 37.2119 337.93 37.8807C337.158 39.2383 336.485 40.6573 335.481 41.8728C335.306 42.0867 335.252 42.3278 335.111 42.5617C334.761 43.2174 334.379 43.8527 334.05 44.4748C333.74 45.0635 333.464 45.6726 333.095 46.3616C332.816 46.3733 332.45 46.3779 332.124 46.3156C331.593 46.2186 331.409 45.9221 331.624 45.4134C331.9 44.8043 332.23 44.182 332.638 43.6544C333.027 43.16 333.283 42.5842 333.452 42.0016C333.656 41.211 334.026 40.5219 334.495 39.8936C334.689 39.6463 334.817 39.3585 334.965 39.0374C335.382 38.1941 335.799 37.3512 336.216 36.508C336.741 35.4105 337.319 34.2997 337.884 33.1353C337.401 32.8841 337.007 33.0093 336.568 33.0606C335.99 33.1176 335.398 33.1208 334.839 33.1445C334.733 33.1708 334.613 33.1431 334.474 33.1491C331.858 33.6508 329.229 34.0985 326.647 34.6203C325.462 34.8551 324.257 35.1229 323.086 35.4116C322.18 35.6345 321.255 35.891 320.395 36.1878C319.716 36.412 319.116 36.7304 318.436 36.9547C317.471 37.2779 317.02 37.0473 316.554 35.9371C317.759 35.6689 318.53 34.5392 319.755 34.2377C320.767 33.9885 321.799 33.706 322.798 33.4031C324.996 32.6911 327.298 32.409 329.561 31.966C331.611 31.5752 333.667 31.3255 335.651 30.6658C335.811 30.6265 335.958 30.5333 336.245 30.4343C336 30.2384 335.821 30.0829 335.655 29.9812C334.13 29.2745 332.827 28.1999 331.402 27.326C330.674 26.8789 329.925 26.4651 329.216 25.9846C328.852 25.761 328.495 25.4502 328.244 25.1133C327.729 24.3855 327.154 23.7582 326.339 23.3037C325.577 22.8363 325.44 22.3857 325.857 21.5426C326.163 21.6383 326.435 21.7137 326.72 21.8428C327.907 22.4335 329.093 23.0242 330.227 23.628C331.207 24.184 332.155 24.7196 333.076 25.3759C334.228 26.1746 335.521 26.739 336.873 27.4314C337.11 26.661 336.815 26.0218 336.639 25.4099C336.541 25.1208 336.402 24.8986 336.304 24.6094C335.448 22.1148 334.611 19.5868 333.775 17.0586C333.16 15.2161 332.652 13.3476 332.57 11.3742C332.564 11.2333 332.525 11.072 332.499 10.9644C332.306 9.92993 332.468 9.43407 333.715 8.87107C334.095 8.69211 334.42 8.75443 334.597 9.13791C334.867 9.6697 335.136 10.2014 335.246 10.7725C335.576 12.4857 336.085 14.126 336.627 15.7868C336.666 15.948 336.738 16.1297 336.777 16.291C337.421 18.8381 338.065 21.3854 338.708 23.9324C339.04 25.1893 339.372 26.4462 339.757 27.6897C339.855 27.9789 340.007 28.2549 340.21 28.7459C340.452 28.3448 340.626 28.1309 340.734 27.8766C341.824 25.3877 343.188 22.9729 344.505 20.4844C344.895 19.7618 345.185 18.9784 345.508 18.2152C345.812 17.4855 346.141 16.8632 346.776 16.3368C347.43 15.7768 348.108 15.7807 348.811 16.1203C349.03 16.2089 349.209 16.3641 349.474 16.5268C347.369 20.7761 345.271 24.9379 343.145 29.2203C343.417 29.2957 343.603 29.3639 343.796 29.345C345.785 29.0544 347.834 28.8919 349.72 28.1713C350.079 28.0257 350.452 27.9341 350.825 27.8421C353.009 27.3045 355.18 26.7131 357.396 26.1958C359.047 25.7893 360.725 25.4902 362.369 25.1711C362.721 25.1129 363.061 25.0006 363.285 25.4583C363.495 25.8622 363.433 26.1907 363.105 26.5848C362.757 27.0122 362.337 27.2581 361.771 27.369C360.16 27.7085 358.549 28.0482 356.984 28.4619C355.506 28.8827 354.041 29.3574 352.576 29.8322C352.449 29.8919 352.322 29.9516 352.162 29.9908C351.404 30.1207 350.553 30.1023 349.833 30.3931C349.113 30.6843 348.46 31.0161 347.701 31.1458C346.59 31.334 345.485 31.6631 344.366 31.9383C344.437 32.3482 344.795 32.4308 345.027 32.573C346.531 33.5413 348.035 34.5098 349.558 35.4448L353.6 37.9244C353.898 38.1073 354.176 38.3235 354.454 38.5401C354.732 38.7564 354.916 39.0529 354.715 39.3871C354.547 39.7418 354.279 40.0355 353.814 39.9792C353.469 39.9502 353.13 39.8342 352.812 39.6849C352.242 39.4266 351.638 39.1479 351.095 38.769C350.155 38.1463 349.147 37.7107 348.078 37.3758C347.859 37.2872 347.64 37.1989 347.462 37.0434C345.926 35.8265 344.041 35.2654 342.385 34.2491C342.352 34.2288 342.265 34.2215 342.126 34.2275C342.145 34.4221 342.11 34.63 342.182 34.8116C342.358 35.4232 342.501 36.0146 342.751 36.5797C343.361 38.053 343.671 39.5714 343.928 41.1029C344.308 43.2593 344.741 45.4026 345.088 47.5386C345.338 49.1575 345.462 50.8358 345.626 52.4473C345.682 53.0314 345.772 53.6361 345.848 54.1869C345.893 54.4891 345.898 54.8583 345.512 54.8962C345.319 54.9153 345.028 54.645 344.956 54.4635C344.287 52.8625 343.618 51.2613 343.395 49.5221C343.211 47.9439 342.888 46.3718 342.544 44.833C342.324 43.9191 341.943 43.0445 341.649 42.1769C341.512 41.7265 341.341 41.2556 341.291 40.8125C341.099 39.5497 340.673 38.3729 339.982 37.2616C339.771 36.8578 339.654 36.374 339.345 35.6809L339.345 35.6811Z" fill="#5499BD"/>
</svg>
